{"glyphs":{"0":{"ha":749,"x_min":58,"x_max":692,"o":"m 365 -16 q 139 108 220 -16 q 58 467 58 232 q 143 857 58 724 q 387 989 227 989 q 692 490 692 989 q 606 114 692 243 q 365 -16 519 -16 m 380 895 q 172 472 172 895 q 376 77 172 77 q 578 479 578 77 q 380 895 578 895 z "},"1":{"ha":749,"x_min":114,"x_max":669,"o":"m 669 0 l 119 0 l 119 98 l 339 98 l 339 853 l 114 786 l 114 892 l 450 994 l 450 98 l 669 98 l 669 0 z "},"2":{"ha":749,"x_min":65,"x_max":660,"o":"m 651 0 l 65 0 l 65 99 l 349 383 q 504 564 457 492 q 550 718 550 636 q 502 848 550 802 q 365 895 454 895 q 115 783 235 895 l 115 900 q 380 989 229 989 q 585 918 511 989 q 660 729 660 848 q 608 546 660 635 q 423 325 557 457 l 199 103 l 199 100 l 651 100 l 651 0 z "},"3":{"ha":749,"x_min":89,"x_max":651,"o":"m 89 36 l 89 156 q 314 77 189 77 q 476 128 416 77 q 537 265 537 179 q 267 456 537 456 l 186 456 l 186 550 l 262 550 q 503 729 503 550 q 319 895 503 895 q 126 825 217 895 l 126 933 q 347 989 220 989 q 544 924 470 989 q 617 757 617 859 q 422 510 617 565 l 422 507 q 589 434 527 497 q 651 275 651 370 q 557 64 651 144 q 309 -16 463 -16 q 89 36 171 -16 z "},"4":{"ha":749,"x_min":9,"x_max":701,"o":"m 701 258 l 576 258 l 576 0 l 467 0 l 467 258 l 9 258 l 9 331 l 442 972 l 576 972 l 576 349 l 701 349 l 701 258 m 467 349 l 467 769 q 469 869 467 814 l 467 869 q 429 795 457 845 l 130 349 l 467 349 z "},"5":{"ha":749,"x_min":111,"x_max":656,"o":"m 111 24 l 111 142 q 314 77 211 77 q 480 136 417 77 q 543 290 543 194 q 479 439 543 386 q 294 493 414 493 q 142 485 254 493 l 142 972 l 612 972 l 612 872 l 247 872 l 247 587 q 330 590 292 590 q 571 512 486 590 q 656 297 656 433 q 565 70 656 156 q 313 -16 473 -16 q 111 24 178 -16 z "},"6":{"ha":749,"x_min":75,"x_max":693,"o":"m 633 961 l 633 856 q 475 895 558 895 q 268 779 345 895 q 190 471 190 664 l 193 471 q 415 608 260 608 q 618 527 543 608 q 693 308 693 445 q 607 74 693 165 q 388 -16 521 -16 q 158 100 241 -16 q 75 428 75 217 q 184 836 75 684 q 472 989 293 989 q 633 961 574 989 m 391 514 q 251 456 304 514 q 197 318 197 397 q 251 148 197 218 q 392 77 304 77 q 528 139 476 77 q 579 294 579 200 q 530 456 579 397 q 391 514 480 514 z "},"7":{"ha":749,"x_min":58,"x_max":685,"o":"m 685 937 l 300 0 l 184 0 l 549 872 l 58 872 l 58 972 l 685 972 l 685 937 z "},"8":{"ha":749,"x_min":68,"x_max":682,"o":"m 278 510 l 278 513 q 103 749 103 594 q 183 921 103 854 q 389 989 263 989 q 576 926 503 989 q 650 764 650 863 q 469 513 650 602 l 469 510 q 682 247 682 434 q 595 55 682 126 q 354 -16 509 -16 q 149 54 229 -16 q 68 237 68 125 q 278 510 68 425 m 536 750 q 494 856 536 817 q 379 895 452 895 q 264 854 311 895 q 217 751 217 814 q 375 560 217 625 q 536 750 536 627 m 368 457 q 182 243 182 383 q 236 124 182 170 q 378 77 290 77 q 515 123 462 77 q 568 239 568 169 q 368 457 568 385 z "},"9":{"ha":749,"x_min":64,"x_max":681,"o":"m 117 16 l 117 123 q 289 77 198 77 q 495 184 421 77 q 568 486 568 290 q 566 486 567 486 q 349 361 503 361 q 144 446 224 361 q 64 664 64 530 q 152 898 64 806 q 376 989 239 989 q 601 875 520 989 q 681 545 681 762 q 576 130 681 275 q 286 -16 472 -16 q 117 16 189 -16 m 366 895 q 232 834 286 895 q 178 680 178 773 q 231 518 178 577 q 374 460 283 460 q 507 513 452 460 q 562 644 562 567 q 507 825 562 755 q 366 895 453 895 z "},"\u0000":{"ha":0,"x_min":0,"x_max":0,"o":""},"\r":{"ha":380,"x_min":0,"x_max":0,"o":""}," ":{"ha":380,"x_min":0,"x_max":0,"o":""},"A":{"ha":896,"x_min":15,"x_max":880,"o":"m 880 0 l 754 0 l 651 273 l 239 273 l 142 0 l 15 0 l 388 972 l 506 972 l 880 0 m 614 375 l 461 789 q 446 854 454 810 l 444 854 q 428 789 437 813 l 277 375 l 614 375 z "},"B":{"ha":796,"x_min":127,"x_max":726,"o":"m 127 0 l 127 972 l 404 972 q 604 911 530 972 q 678 750 678 849 q 633 606 678 667 q 510 519 589 545 l 510 517 q 667 443 608 505 q 726 279 726 380 q 637 77 726 155 q 411 0 547 0 l 127 0 m 241 869 l 241 555 l 358 555 q 505 601 452 555 q 559 728 559 646 q 372 869 559 869 l 241 869 m 241 453 l 241 103 l 396 103 q 552 151 496 103 q 607 281 607 198 q 372 453 607 453 l 241 453 z "},"C":{"ha":860,"x_min":64,"x_max":789,"o":"m 789 41 q 521 -16 682 -16 q 189 117 313 -16 q 64 468 64 251 q 204 845 64 701 q 560 989 345 989 q 789 949 699 989 l 789 827 q 559 886 685 886 q 287 774 391 886 q 183 475 183 662 q 280 192 183 297 q 536 86 378 86 q 789 151 682 86 l 789 41 z "},"D":{"ha":974,"x_min":127,"x_max":910,"o":"m 127 0 l 127 972 l 396 972 q 910 498 910 972 q 767 137 910 273 q 385 0 625 0 l 127 0 m 241 869 l 241 103 l 387 103 q 684 205 578 103 q 791 496 791 308 q 393 869 791 869 l 241 869 z "},"E":{"ha":703,"x_min":127,"x_max":643,"o":"m 643 0 l 127 0 l 127 972 l 621 972 l 621 869 l 241 869 l 241 546 l 593 546 l 593 444 l 241 444 l 241 103 l 643 103 l 643 0 z "},"F":{"ha":678,"x_min":127,"x_max":621,"o":"m 621 869 l 241 869 l 241 533 l 593 533 l 593 431 l 241 431 l 241 0 l 127 0 l 127 972 l 621 972 l 621 869 z "},"G":{"ha":953,"x_min":64,"x_max":854,"o":"m 854 66 q 529 -16 708 -16 q 192 118 321 -16 q 64 473 64 252 q 207 844 64 699 q 568 989 349 989 q 835 937 727 989 l 835 811 q 555 886 717 886 q 288 773 392 886 q 183 481 183 661 q 280 192 183 297 q 543 86 377 86 q 741 132 657 86 l 741 404 l 528 404 l 528 507 l 854 507 l 854 66 z "},"H":{"ha":986,"x_min":127,"x_max":859,"o":"m 859 0 l 745 0 l 745 444 l 241 444 l 241 0 l 127 0 l 127 972 l 241 972 l 241 546 l 745 546 l 745 972 l 859 972 l 859 0 z "},"I":{"ha":370,"x_min":33,"x_max":336,"o":"m 336 972 l 336 875 l 241 875 l 241 98 l 336 98 l 336 0 l 33 0 l 33 98 l 127 98 l 127 875 l 33 875 l 33 972 l 336 972 z "},"J":{"ha":496,"x_min":14,"x_max":376,"o":"m 376 349 q 303 80 376 176 q 107 -16 230 -16 q 14 0 50 -16 l 14 113 q 109 86 50 86 q 262 347 262 86 l 262 972 l 376 972 l 376 349 z "},"K":{"ha":806,"x_min":127,"x_max":804,"o":"m 804 0 l 646 0 l 270 445 q 244 479 249 470 l 241 479 l 241 0 l 127 0 l 127 972 l 241 972 l 241 515 l 244 515 q 270 549 254 530 l 633 972 l 775 972 l 358 506 l 804 0 z "},"L":{"ha":654,"x_min":127,"x_max":632,"o":"m 632 0 l 127 0 l 127 972 l 241 972 l 241 103 l 632 103 l 632 0 z "},"M":{"ha":1247,"x_min":127,"x_max":1119,"o":"m 1119 0 l 1006 0 l 1006 652 q 1015 842 1006 730 l 1013 842 q 983 747 996 776 l 651 0 l 595 0 l 264 742 q 235 842 250 774 l 232 842 q 237 651 237 783 l 237 0 l 127 0 l 127 972 l 278 972 l 576 294 q 621 178 611 216 l 625 178 q 672 297 654 258 l 977 972 l 1119 972 l 1119 0 z "},"N":{"ha":1039,"x_min":127,"x_max":911,"o":"m 911 0 l 772 0 l 271 775 q 240 836 252 804 l 236 836 q 241 703 241 805 l 241 0 l 127 0 l 127 972 l 275 972 l 762 210 q 802 144 793 162 l 804 144 q 798 288 798 186 l 798 972 l 911 972 l 911 0 z "},"O":{"ha":1047,"x_min":64,"x_max":983,"o":"m 519 -16 q 188 120 313 -16 q 64 475 64 256 q 191 849 64 709 q 536 989 317 989 q 860 853 737 989 q 983 498 983 718 q 857 122 983 260 q 519 -16 731 -16 m 528 886 q 279 775 374 886 q 183 485 183 665 q 276 196 183 305 q 519 86 370 86 q 772 191 680 86 q 864 483 864 295 q 774 781 864 675 q 528 886 685 886 z "},"P":{"ha":778,"x_min":127,"x_max":722,"o":"m 241 368 l 241 0 l 127 0 l 127 972 l 395 972 q 636 897 551 972 q 722 682 722 821 q 627 456 722 544 q 370 368 532 368 l 241 368 m 241 869 l 241 471 l 361 471 q 541 525 479 471 q 603 677 603 578 q 375 869 603 869 l 241 869 z "},"Q":{"ha":1047,"x_min":64,"x_max":1006,"o":"m 513 -16 q 425 -8 469 -16 q 338 18 380 1 q 257 61 296 35 q 188 120 219 86 q 64 475 64 256 q 190 849 64 710 q 538 989 317 989 q 860 853 736 989 q 983 498 983 718 q 963 325 983 406 q 900 177 942 243 q 794 65 858 111 q 644 0 730 20 q 710 -67 679 -38 q 771 -116 741 -96 q 836 -146 802 -136 q 909 -157 869 -157 q 932 -156 920 -157 q 959 -152 945 -155 q 984 -147 972 -150 q 1006 -140 996 -144 l 1006 -250 q 982 -255 996 -253 q 955 -259 968 -258 q 927 -262 941 -261 q 902 -263 913 -263 q 785 -244 837 -263 q 688 -191 733 -224 q 601 -113 643 -157 q 513 -16 559 -68 m 528 886 q 279 775 374 886 q 183 485 183 665 q 276 195 183 306 q 519 86 370 86 q 772 191 680 86 q 864 483 864 295 q 774 781 864 676 q 528 886 685 886 z "},"R":{"ha":831,"x_min":127,"x_max":825,"o":"m 825 0 l 689 0 l 526 273 q 483 337 504 311 q 440 381 462 364 q 392 406 418 398 q 335 414 367 414 l 241 414 l 241 0 l 127 0 l 127 972 l 418 972 q 535 957 481 972 q 629 908 589 941 q 691 827 669 876 q 713 713 713 779 q 698 620 713 663 q 655 545 683 578 q 587 488 627 511 q 498 452 547 465 l 498 449 q 540 424 522 438 q 574 391 558 410 q 607 348 591 372 q 642 292 623 324 l 825 0 m 241 869 l 241 517 l 396 517 q 475 530 439 517 q 538 567 511 543 q 579 626 564 591 q 594 704 594 661 q 544 826 594 782 q 397 869 493 869 l 241 869 z "},"S":{"ha":738,"x_min":82,"x_max":671,"o":"m 82 39 l 82 174 q 137 137 105 153 q 205 110 170 121 q 277 92 241 98 q 343 86 313 86 q 500 125 448 86 q 552 237 552 164 q 535 306 552 277 q 487 359 517 335 q 415 405 456 383 q 325 452 373 427 q 230 504 274 477 q 153 562 186 530 q 102 634 121 594 q 83 729 83 675 q 113 845 83 795 q 189 926 142 894 q 297 973 237 958 q 421 989 358 989 q 631 954 565 989 l 631 826 q 410 886 545 886 q 335 878 372 886 q 269 852 298 870 q 221 807 239 835 q 203 739 203 779 q 217 675 203 702 q 258 625 231 648 q 324 582 285 603 q 414 536 363 561 q 513 481 466 510 q 595 418 559 453 q 651 342 630 384 q 671 245 671 300 q 643 124 671 174 q 567 43 615 74 q 457 -2 519 12 q 326 -16 395 -16 q 269 -13 302 -16 q 199 -2 235 -9 q 133 16 164 5 q 82 39 101 26 z "},"T":{"ha":728,"x_min":28,"x_max":703,"o":"m 703 869 l 422 869 l 422 0 l 308 0 l 308 869 l 28 869 l 28 972 l 703 972 l 703 869 z "},"U":{"ha":954,"x_min":115,"x_max":839,"o":"m 839 393 q 469 -16 839 -16 q 115 378 115 -16 l 115 972 l 229 972 l 229 385 q 481 86 229 86 q 725 375 725 86 l 725 972 l 839 972 l 839 393 z "},"V":{"ha":863,"x_min":12,"x_max":850,"o":"m 850 972 l 490 0 l 365 0 l 12 972 l 139 972 l 408 201 q 428 115 421 164 l 431 115 q 453 203 436 156 l 728 972 l 850 972 z "},"W":{"ha":1297,"x_min":18,"x_max":1280,"o":"m 1280 972 l 1006 0 l 872 0 l 672 711 q 656 810 659 756 l 654 810 q 636 712 650 760 l 435 0 l 302 0 l 18 972 l 143 972 l 350 227 q 366 129 363 180 l 370 129 q 391 227 373 165 l 606 972 l 715 972 l 921 221 q 937 130 932 182 l 940 130 q 958 224 943 165 l 1157 972 l 1280 972 z "},"X":{"ha":819,"x_min":18,"x_max":799,"o":"m 799 0 l 660 0 l 436 372 q 414 420 426 389 l 411 420 q 388 372 404 405 l 157 0 l 18 0 l 343 489 l 43 972 l 183 972 l 382 631 q 416 563 401 597 l 419 563 q 457 633 441 608 l 664 972 l 795 972 l 489 490 l 799 0 z "},"Y":{"ha":768,"x_min":12,"x_max":760,"o":"m 760 972 l 439 359 l 439 0 l 325 0 l 325 357 l 12 972 l 142 972 l 359 533 q 383 473 363 525 l 385 473 q 411 533 392 496 l 639 972 l 760 972 z "},"Z":{"ha":792,"x_min":22,"x_max":762,"o":"m 762 945 l 193 103 l 749 103 l 749 0 l 22 0 l 22 32 l 587 869 l 68 869 l 68 972 l 762 972 l 762 945 z "},"À":{"ha":896,"x_min":15,"x_max":880,"o":"m 880 0 l 754 0 l 651 273 l 239 273 l 142 0 l 15 0 l 388 972 l 506 972 l 880 0 m 614 375 l 461 789 q 446 854 454 810 l 444 854 q 428 789 437 813 l 277 375 l 614 375 m 514 1062 l 428 1062 l 250 1284 l 364 1284 l 514 1062 z "},"Á":{"ha":896,"x_min":15,"x_max":880,"o":"m 880 0 l 754 0 l 651 273 l 239 273 l 142 0 l 15 0 l 388 972 l 506 972 l 880 0 m 614 375 l 461 789 q 446 854 454 810 l 444 854 q 428 789 437 813 l 277 375 l 614 375 m 588 1284 l 410 1062 l 324 1062 l 475 1284 l 588 1284 z "},"Â":{"ha":896,"x_min":15,"x_max":880,"o":"m 880 0 l 754 0 l 651 273 l 239 273 l 142 0 l 15 0 l 388 972 l 506 972 l 880 0 m 614 375 l 461 789 q 446 854 454 810 l 444 854 q 428 789 437 813 l 277 375 l 614 375 m 629 1061 l 546 1061 l 435 1217 l 323 1061 l 246 1061 l 392 1286 l 482 1286 l 629 1061 z "},"Ã":{"ha":896,"x_min":15,"x_max":880,"o":"m 880 0 l 754 0 l 651 273 l 239 273 l 142 0 l 15 0 l 388 972 l 506 972 l 880 0 m 614 375 l 461 789 q 446 854 454 810 l 444 854 q 428 789 437 813 l 277 375 l 614 375 m 663 1223 q 630 1106 663 1152 q 542 1061 597 1061 q 432 1097 494 1061 q 351 1126 380 1126 q 292 1049 292 1126 l 228 1049 q 260 1165 228 1122 q 351 1209 293 1209 q 452 1174 395 1209 q 539 1144 503 1144 q 596 1223 596 1144 l 663 1223 z "},"Ä":{"ha":896,"x_min":15,"x_max":880,"o":"m 880 0 l 754 0 l 651 273 l 239 273 l 142 0 l 15 0 l 388 972 l 506 972 l 880 0 m 614 375 l 461 789 q 446 854 454 810 l 444 854 q 428 789 437 813 l 277 375 l 614 375 m 570 1061 q 523 1080 543 1061 q 503 1128 503 1099 q 522 1176 503 1157 q 568 1195 541 1195 q 616 1176 597 1195 q 636 1128 636 1156 q 617 1081 636 1101 q 570 1061 598 1061 m 309 1061 q 261 1081 281 1061 q 241 1128 241 1101 q 260 1176 241 1157 q 307 1195 279 1195 q 355 1176 335 1195 q 376 1128 376 1156 q 356 1081 376 1101 q 309 1061 336 1061 z "},"Å":{"ha":896,"x_min":15,"x_max":880,"o":"m 880 0 l 754 0 l 651 273 l 239 273 l 142 0 l 15 0 l 374 935 q 305 1046 305 970 q 346 1143 305 1106 q 449 1181 387 1181 q 547 1144 509 1181 q 585 1050 585 1107 q 519 937 585 974 l 880 0 m 445 1125 q 389 1104 411 1125 q 368 1050 368 1082 q 445 972 368 972 q 500 995 477 972 q 522 1050 522 1017 q 500 1104 522 1083 q 445 1125 477 1125 m 614 375 l 461 789 q 446 854 454 810 l 444 854 q 428 789 437 813 l 277 375 l 614 375 z "},"Æ":{"ha":1195,"x_min":7,"x_max":1131,"o":"m 1131 0 l 616 0 l 616 273 l 270 273 l 139 0 l 7 0 l 481 972 l 1108 972 l 1108 869 l 729 869 l 729 546 l 1081 546 l 1081 444 l 729 444 l 729 103 l 1131 103 l 1131 0 m 616 375 l 616 869 l 551 869 l 317 375 l 616 375 z "},"Ç":{"ha":860,"x_min":64,"x_max":789,"o":"m 789 41 q 521 -16 682 -16 q 189 117 313 -16 q 64 468 64 251 q 204 845 64 701 q 560 989 345 989 q 789 949 699 989 l 789 827 q 559 886 685 886 q 287 774 391 886 q 183 475 183 662 q 280 192 183 297 q 536 86 378 86 q 789 151 682 86 l 789 41 m 651 -174 q 465 -293 651 -293 q 420 -292 439 -293 l 420 -231 q 468 -235 450 -235 q 564 -174 564 -235 q 476 -121 564 -121 q 448 -123 469 -121 l 448 0 l 522 0 l 522 -71 q 616 -98 581 -71 q 651 -174 651 -125 z "},"È":{"ha":703,"x_min":127,"x_max":643,"o":"m 643 0 l 127 0 l 127 972 l 621 972 l 621 869 l 241 869 l 241 546 l 593 546 l 593 444 l 241 444 l 241 103 l 643 103 l 643 0 m 477 1062 l 391 1062 l 213 1284 l 327 1284 l 477 1062 z "},"É":{"ha":703,"x_min":127,"x_max":643,"o":"m 643 0 l 127 0 l 127 972 l 621 972 l 621 869 l 241 869 l 241 546 l 593 546 l 593 444 l 241 444 l 241 103 l 643 103 l 643 0 m 545 1284 l 367 1061 l 281 1061 l 432 1284 l 545 1284 z "},"Ê":{"ha":703,"x_min":127,"x_max":643,"o":"m 643 0 l 127 0 l 127 972 l 621 972 l 621 869 l 241 869 l 241 546 l 593 546 l 593 444 l 241 444 l 241 103 l 643 103 l 643 0 m 561 1063 l 478 1063 l 367 1219 l 255 1063 l 178 1063 l 324 1288 l 414 1288 l 561 1063 z "},"Ë":{"ha":703,"x_min":127,"x_max":643,"o":"m 643 0 l 127 0 l 127 972 l 621 972 l 621 869 l 241 869 l 241 546 l 593 546 l 593 444 l 241 444 l 241 103 l 643 103 l 643 0 m 508 1062 q 461 1081 481 1062 q 441 1129 441 1100 q 460 1177 441 1158 q 507 1196 479 1196 q 555 1176 535 1196 q 574 1129 574 1157 q 555 1082 574 1101 q 508 1062 536 1062 m 248 1062 q 199 1082 219 1062 q 179 1129 179 1102 q 198 1177 179 1158 q 245 1196 218 1196 q 294 1176 273 1196 q 314 1129 314 1157 q 294 1082 314 1101 q 248 1062 275 1062 z "},"Ì":{"ha":370,"x_min":18,"x_max":336,"o":"m 336 972 l 336 875 l 241 875 l 241 98 l 336 98 l 336 0 l 33 0 l 33 98 l 127 98 l 127 875 l 33 875 l 33 972 l 336 972 m 282 1062 l 196 1062 l 18 1284 l 132 1284 l 282 1062 z "},"Í":{"ha":370,"x_min":33,"x_max":345,"o":"m 336 972 l 336 875 l 241 875 l 241 98 l 336 98 l 336 0 l 33 0 l 33 98 l 127 98 l 127 875 l 33 875 l 33 972 l 336 972 m 345 1284 l 168 1062 l 81 1062 l 233 1284 l 345 1284 z "},"Î":{"ha":370,"x_min":-3,"x_max":380,"o":"m 336 972 l 336 875 l 241 875 l 241 98 l 336 98 l 336 0 l 33 0 l 33 98 l 127 98 l 127 875 l 33 875 l 33 972 l 336 972 m 380 1063 l 297 1063 l 186 1219 l 74 1063 l -3 1063 l 143 1288 l 233 1288 l 380 1063 z "},"Ï":{"ha":370,"x_min":-10,"x_max":385,"o":"m 336 972 l 336 875 l 241 875 l 241 98 l 336 98 l 336 0 l 33 0 l 33 98 l 127 98 l 127 875 l 33 875 l 33 972 l 336 972 m 319 1062 q 272 1081 292 1062 q 252 1129 252 1100 q 271 1177 252 1158 q 317 1196 290 1196 q 366 1176 346 1196 q 385 1129 385 1157 q 366 1082 385 1101 q 319 1062 347 1062 m 58 1062 q 10 1082 30 1062 q -10 1129 -10 1102 q 9 1177 -10 1158 q 56 1196 28 1196 q 104 1176 84 1196 q 125 1129 125 1157 q 105 1082 125 1101 q 58 1062 85 1062 z "},"Ñ":{"ha":1039,"x_min":127,"x_max":911,"o":"m 911 0 l 772 0 l 271 775 q 240 836 252 804 l 236 836 q 241 703 241 805 l 241 0 l 127 0 l 127 972 l 275 972 l 762 210 q 802 144 793 162 l 804 144 q 798 288 798 186 l 798 972 l 911 972 l 911 0 m 755 1223 q 722 1106 755 1152 q 634 1061 690 1061 q 524 1097 586 1061 q 444 1126 472 1126 q 384 1049 384 1126 l 320 1049 q 353 1165 320 1122 q 444 1209 385 1209 q 545 1174 488 1209 q 631 1144 595 1144 q 688 1223 688 1144 l 755 1223 z "},"Ò":{"ha":1047,"x_min":64,"x_max":983,"o":"m 519 -16 q 188 120 313 -16 q 64 475 64 256 q 191 849 64 709 q 536 989 317 989 q 860 853 737 989 q 983 498 983 718 q 857 122 983 260 q 519 -16 731 -16 m 528 886 q 279 775 374 886 q 183 485 183 665 q 276 196 183 305 q 519 86 370 86 q 772 191 680 86 q 864 483 864 295 q 774 781 864 675 q 528 886 685 886 m 597 1062 l 511 1062 l 333 1284 l 447 1284 l 597 1062 z "},"Ó":{"ha":1047,"x_min":64,"x_max":983,"o":"m 519 -16 q 188 120 313 -16 q 64 475 64 256 q 191 849 64 709 q 536 989 317 989 q 860 853 737 989 q 983 498 983 718 q 857 122 983 260 q 519 -16 731 -16 m 528 886 q 279 775 374 886 q 183 485 183 665 q 276 196 183 305 q 519 86 370 86 q 772 191 680 86 q 864 483 864 295 q 774 781 864 675 q 528 886 685 886 m 697 1284 l 519 1062 l 433 1062 l 585 1284 l 697 1284 z "},"Ô":{"ha":1047,"x_min":64,"x_max":983,"o":"m 519 -16 q 188 120 313 -16 q 64 475 64 256 q 191 849 64 709 q 536 989 317 989 q 860 853 737 989 q 983 498 983 718 q 857 122 983 260 q 519 -16 731 -16 m 528 886 q 279 775 374 886 q 183 485 183 665 q 276 196 183 305 q 519 86 370 86 q 772 191 680 86 q 864 483 864 295 q 774 781 864 675 q 528 886 685 886 m 721 1062 l 638 1062 l 527 1218 l 415 1062 l 338 1062 l 484 1287 l 574 1287 l 721 1062 z "},"Õ":{"ha":1047,"x_min":64,"x_max":983,"o":"m 519 -16 q 188 120 313 -16 q 64 475 64 256 q 191 849 64 709 q 536 989 317 989 q 860 853 737 989 q 983 498 983 718 q 857 122 983 260 q 519 -16 731 -16 m 528 886 q 279 775 374 886 q 183 485 183 665 q 276 196 183 305 q 519 86 370 86 q 772 191 680 86 q 864 483 864 295 q 774 781 864 675 q 528 886 685 886 m 748 1222 q 715 1106 748 1151 q 627 1061 683 1061 q 517 1096 579 1061 q 437 1125 465 1125 q 377 1048 377 1125 l 313 1048 q 346 1165 313 1121 q 437 1208 378 1208 q 538 1173 481 1208 q 625 1143 588 1143 q 682 1222 682 1143 l 748 1222 z "},"Ö":{"ha":1047,"x_min":64,"x_max":983,"o":"m 519 -16 q 188 120 313 -16 q 64 475 64 256 q 191 849 64 709 q 536 989 317 989 q 860 853 737 989 q 983 498 983 718 q 857 122 983 260 q 519 -16 731 -16 m 528 886 q 279 775 374 886 q 183 485 183 665 q 276 196 183 305 q 519 86 370 86 q 772 191 680 86 q 864 483 864 295 q 774 781 864 675 q 528 886 685 886 m 656 1060 q 610 1079 629 1060 q 590 1127 590 1098 q 609 1175 590 1156 q 655 1194 628 1194 q 703 1174 684 1194 q 723 1127 723 1155 q 704 1080 723 1099 q 656 1060 685 1060 m 396 1060 q 348 1080 368 1060 q 328 1127 328 1100 q 347 1175 328 1156 q 394 1194 366 1194 q 442 1174 422 1194 q 463 1127 463 1155 q 443 1080 463 1099 q 396 1060 423 1060 z "},"Ø":{"ha":1047,"x_min":64,"x_max":983,"o":"m 220 89 l 117 -35 l 64 9 l 171 139 q 64 475 64 271 q 190 848 64 707 q 536 989 317 989 q 808 901 694 989 l 900 1011 l 953 968 l 859 856 q 983 498 983 720 q 857 122 983 260 q 519 -16 731 -16 q 220 89 339 -16 m 739 817 q 528 886 654 886 q 278 774 374 886 q 183 485 183 663 q 250 232 183 334 l 739 817 m 785 766 l 293 179 q 519 86 382 86 q 772 191 680 86 q 864 483 864 296 q 785 766 864 659 z "},"Œ":{"ha":1293,"x_min":64,"x_max":1227,"o":"m 1227 0 l 739 0 q 646 -9 728 0 q 522 -16 579 -16 q 187 120 311 -16 q 64 475 64 256 q 192 849 64 709 q 541 989 321 989 q 662 982 602 989 q 739 972 738 972 l 1206 972 l 1206 869 l 826 869 l 826 546 l 1177 546 l 1177 444 l 826 444 l 826 103 l 1227 103 l 1227 0 m 712 109 l 712 867 q 530 886 604 886 q 279 773 375 886 q 183 485 183 661 q 278 198 183 310 q 526 86 372 86 q 712 109 605 86 z "},"Š":{"ha":738,"x_min":82,"x_max":671,"o":"m 82 39 l 82 174 q 137 137 105 153 q 205 110 170 121 q 277 92 241 98 q 343 86 313 86 q 500 125 448 86 q 552 237 552 164 q 535 306 552 277 q 487 359 517 335 q 415 405 456 383 q 325 452 373 427 q 230 504 274 477 q 153 562 186 530 q 102 634 121 594 q 83 729 83 675 q 113 845 83 795 q 189 926 142 894 q 297 973 237 958 q 421 989 358 989 q 631 954 565 989 l 631 826 q 410 886 545 886 q 335 878 372 886 q 269 852 298 870 q 221 807 239 835 q 203 739 203 779 q 217 675 203 702 q 258 625 231 648 q 324 582 285 603 q 414 536 363 561 q 513 481 466 510 q 595 418 559 453 q 651 342 630 384 q 671 245 671 300 q 643 124 671 174 q 567 43 615 74 q 457 -2 519 12 q 326 -16 395 -16 q 269 -13 302 -16 q 199 -2 235 -9 q 133 16 164 5 q 82 39 101 26 m 560 1287 l 415 1063 l 326 1063 l 179 1287 l 257 1287 l 368 1132 l 479 1287 l 560 1287 z "},"Ù":{"ha":954,"x_min":115,"x_max":839,"o":"m 839 393 q 469 -16 839 -16 q 115 378 115 -16 l 115 972 l 229 972 l 229 385 q 481 86 229 86 q 725 375 725 86 l 725 972 l 839 972 l 839 393 m 563 1062 l 477 1062 l 299 1284 l 413 1284 l 563 1062 z "},"Ú":{"ha":954,"x_min":115,"x_max":839,"o":"m 839 393 q 469 -16 839 -16 q 115 378 115 -16 l 115 972 l 229 972 l 229 385 q 481 86 229 86 q 725 375 725 86 l 725 972 l 839 972 l 839 393 m 651 1284 l 473 1061 l 387 1061 l 538 1284 l 651 1284 z "},"Û":{"ha":954,"x_min":115,"x_max":839,"o":"m 839 393 q 469 -16 839 -16 q 115 378 115 -16 l 115 972 l 229 972 l 229 385 q 481 86 229 86 q 725 375 725 86 l 725 972 l 839 972 l 839 393 m 669 1063 l 587 1063 l 475 1219 l 363 1063 l 287 1063 l 433 1288 l 523 1288 l 669 1063 z "},"Ü":{"ha":954,"x_min":115,"x_max":839,"o":"m 839 393 q 469 -16 839 -16 q 115 378 115 -16 l 115 972 l 229 972 l 229 385 q 481 86 229 86 q 725 375 725 86 l 725 972 l 839 972 l 839 393 m 607 1063 q 560 1082 580 1063 q 541 1130 541 1101 q 559 1177 541 1158 q 606 1196 578 1196 q 654 1177 634 1196 q 673 1130 673 1158 q 654 1082 673 1102 q 607 1063 635 1063 m 347 1063 q 298 1083 318 1063 q 278 1130 278 1103 q 297 1177 278 1158 q 345 1196 317 1196 q 393 1177 372 1196 q 413 1130 413 1158 q 393 1082 413 1102 q 347 1063 374 1063 z "},"Ý":{"ha":768,"x_min":12,"x_max":760,"o":"m 760 972 l 439 359 l 439 0 l 325 0 l 325 357 l 12 972 l 142 972 l 359 533 q 383 473 363 525 l 385 473 q 411 533 392 496 l 639 972 l 760 972 m 564 1284 l 386 1062 l 300 1062 l 451 1284 l 564 1284 z "},"Ÿ":{"ha":768,"x_min":12,"x_max":760,"o":"m 760 972 l 439 359 l 439 0 l 325 0 l 325 357 l 12 972 l 142 972 l 359 533 q 383 473 363 525 l 385 473 q 411 533 392 496 l 639 972 l 760 972 m 515 1061 q 468 1080 488 1061 q 448 1128 448 1099 q 467 1176 448 1157 q 513 1195 486 1195 q 562 1176 542 1195 q 581 1128 581 1156 q 562 1081 581 1101 q 515 1061 543 1061 m 254 1061 q 206 1081 226 1061 q 186 1128 186 1101 q 205 1176 186 1157 q 252 1195 224 1195 q 300 1176 280 1195 q 321 1128 321 1156 q 301 1081 321 1101 q 254 1061 281 1061 z "},"Ž":{"ha":792,"x_min":22,"x_max":762,"o":"m 762 945 l 193 103 l 749 103 l 749 0 l 22 0 l 22 32 l 587 869 l 68 869 l 68 972 l 762 972 l 762 945 m 610 1285 l 465 1061 l 376 1061 l 229 1285 l 307 1285 l 418 1130 l 530 1285 l 610 1285 z "},"Ð":{"ha":974,"x_min":19,"x_max":910,"o":"m 127 0 l 127 435 l 19 435 l 19 540 l 127 540 l 127 972 l 396 972 q 910 498 910 972 q 767 136 910 272 q 385 0 625 0 l 127 0 m 241 869 l 241 540 l 469 540 l 469 435 l 241 435 l 241 103 l 387 103 q 684 205 578 103 q 791 496 791 308 q 393 869 791 869 l 241 869 z "},"Þ":{"ha":778,"x_min":127,"x_max":722,"o":"m 241 216 l 241 0 l 127 0 l 127 972 l 241 972 l 241 819 l 395 819 q 637 744 552 819 q 722 529 722 668 q 626 303 722 391 q 368 216 530 216 l 241 216 m 241 717 l 241 318 l 361 318 q 541 371 478 318 q 603 522 603 424 q 375 717 603 717 l 241 717 z "},"a":{"ha":707,"x_min":61,"x_max":610,"o":"m 610 0 l 498 0 l 498 109 l 496 109 q 282 -16 423 -16 q 120 39 178 -16 q 61 184 61 94 q 290 411 61 379 l 498 440 q 355 617 498 617 q 129 532 230 617 l 129 646 q 365 711 231 711 q 610 452 610 711 l 610 0 m 498 351 l 331 328 q 214 290 254 317 q 175 193 175 262 q 211 110 175 142 q 308 77 248 77 q 445 135 391 77 q 498 282 498 193 l 498 351 z "},"b":{"ha":817,"x_min":113,"x_max":751,"o":"m 227 100 l 224 100 l 224 0 l 113 0 l 113 1028 l 224 1028 l 224 572 l 227 572 q 467 711 309 711 q 676 617 600 711 q 751 368 751 524 q 667 89 751 193 q 435 -16 582 -16 q 227 100 297 -16 m 224 380 l 224 283 q 280 137 224 197 q 422 77 336 77 q 580 155 523 77 q 637 370 637 232 q 584 551 637 486 q 439 617 530 617 q 283 550 342 617 q 224 380 224 482 z "},"c":{"ha":642,"x_min":65,"x_max":587,"o":"m 586 32 q 396 -16 506 -16 q 156 80 248 -16 q 65 331 65 177 q 163 607 65 503 q 426 711 262 711 q 587 677 517 711 l 587 563 q 422 617 510 617 q 247 541 315 617 q 179 340 179 465 q 243 148 179 218 q 415 77 307 77 q 586 138 506 77 l 586 32 z "},"d":{"ha":818,"x_min":65,"x_max":705,"o":"m 705 0 l 594 0 l 594 118 l 591 118 q 353 -16 514 -16 q 143 77 222 -16 q 65 331 65 170 q 152 607 65 503 q 383 711 239 711 q 591 598 526 711 l 594 598 l 594 1028 l 705 1028 l 705 0 m 594 314 l 594 416 q 538 559 594 500 q 397 617 483 617 q 237 543 296 617 q 179 336 179 468 q 235 147 179 216 q 385 77 291 77 q 536 144 478 77 q 594 314 594 212 z "},"e":{"ha":726,"x_min":65,"x_max":671,"o":"m 671 319 l 180 319 q 243 140 183 203 q 407 77 302 77 q 623 155 524 77 l 623 50 q 380 -16 531 -16 q 149 78 233 -16 q 65 345 65 173 q 157 609 65 507 q 385 711 249 711 q 596 623 522 711 q 671 378 671 534 l 671 319 m 557 414 q 510 564 556 510 q 383 617 465 617 q 250 561 304 617 q 182 414 195 505 l 557 414 z "},"f":{"ha":435,"x_min":36,"x_max":456,"o":"m 456 930 q 382 949 423 949 q 265 802 265 949 l 265 694 l 428 694 l 428 600 l 265 600 l 265 0 l 155 0 l 155 600 l 36 600 l 36 694 l 155 694 l 155 807 q 218 980 155 916 q 375 1043 281 1043 q 456 1031 426 1043 l 456 930 z "},"g":{"ha":818,"x_min":65,"x_max":705,"o":"m 705 56 q 339 -327 705 -327 q 114 -278 210 -327 l 114 -167 q 338 -232 231 -232 q 594 41 594 -232 l 594 117 l 591 117 q 353 -16 512 -16 q 144 76 223 -16 q 65 325 65 169 q 150 606 65 502 q 383 711 235 711 q 591 598 524 711 l 594 598 l 594 694 l 705 694 l 705 56 m 594 314 l 594 416 q 538 558 594 499 q 399 617 482 617 q 237 542 296 617 q 179 332 179 467 q 235 147 179 216 q 383 77 291 77 q 535 144 477 77 q 594 314 594 210 z "},"h":{"ha":786,"x_min":113,"x_max":689,"o":"m 689 0 l 578 0 l 578 400 q 416 617 578 617 q 279 554 335 617 q 224 393 224 492 l 224 0 l 113 0 l 113 1028 l 224 1028 l 224 579 l 227 579 q 454 711 307 711 q 689 428 689 711 l 689 0 z "},"i":{"ha":336,"x_min":98,"x_max":243,"o":"m 170 871 q 119 891 140 871 q 98 943 98 911 q 119 995 98 974 q 170 1015 140 1015 q 221 995 200 1015 q 243 943 243 974 q 221 892 243 913 q 170 871 200 871 m 224 0 l 113 0 l 113 694 l 224 694 l 224 0 z "},"j":{"ha":336,"x_min":-134,"x_max":243,"o":"m 224 29 q 155 -234 224 -142 q -42 -327 86 -327 q -134 -305 -90 -327 l -134 -201 q -39 -232 -84 -232 q 113 11 113 -232 l 113 694 l 224 694 l 224 29 m 170 871 q 119 891 140 871 q 98 943 98 911 q 119 995 98 974 q 170 1015 140 1015 q 221 995 200 1015 q 243 943 243 974 q 221 892 243 913 q 170 871 200 871 z "},"k":{"ha":690,"x_min":113,"x_max":689,"o":"m 689 0 l 533 0 l 227 334 l 224 334 l 224 0 l 113 0 l 113 1028 l 224 1028 l 224 376 l 227 376 l 518 694 l 664 694 l 342 359 l 689 0 z "},"l":{"ha":336,"x_min":113,"x_max":224,"o":"m 224 0 l 113 0 l 113 1028 l 224 1028 l 224 0 z "},"m":{"ha":1196,"x_min":113,"x_max":1099,"o":"m 1099 0 l 987 0 l 987 399 q 952 566 987 514 q 832 617 916 617 q 711 552 761 617 q 661 396 661 487 l 661 0 l 550 0 l 550 412 q 392 617 550 617 q 271 556 319 617 q 224 396 224 494 l 224 0 l 113 0 l 113 694 l 224 694 l 224 585 l 227 585 q 442 711 300 711 q 566 671 513 711 q 639 567 619 631 q 869 711 716 711 q 1099 428 1099 711 l 1099 0 z "},"n":{"ha":786,"x_min":113,"x_max":689,"o":"m 689 0 l 578 0 l 578 396 q 416 617 578 617 q 278 554 333 617 q 224 396 224 492 l 224 0 l 113 0 l 113 694 l 224 694 l 224 579 l 227 579 q 454 711 305 711 q 629 637 568 711 q 689 425 689 564 l 689 0 z "},"o":{"ha":814,"x_min":65,"x_max":749,"o":"m 403 -16 q 157 81 249 -16 q 65 339 65 178 q 161 612 65 514 q 419 711 256 711 q 662 615 574 711 q 749 350 749 519 q 655 84 749 184 q 403 -16 561 -16 m 411 617 q 241 544 304 617 q 179 343 179 471 q 242 149 179 220 q 411 77 305 77 q 577 147 519 77 q 635 346 635 217 q 577 547 635 476 q 411 617 519 617 z "},"p":{"ha":817,"x_min":113,"x_max":751,"o":"m 227 100 l 224 100 l 224 -319 l 113 -319 l 113 694 l 224 694 l 224 572 l 227 572 q 467 711 309 711 q 676 617 601 711 q 751 368 751 524 q 667 89 751 193 q 435 -16 582 -16 q 227 100 300 -16 m 224 380 l 224 283 q 280 137 224 197 q 422 77 336 77 q 580 155 523 77 q 637 370 637 232 q 584 551 637 486 q 439 617 530 617 q 283 550 342 617 q 224 380 224 482 z "},"q":{"ha":818,"x_min":65,"x_max":705,"o":"m 705 -319 l 594 -319 l 594 119 l 591 119 q 354 -16 519 -16 q 144 77 223 -16 q 65 331 65 170 q 152 607 65 504 q 385 711 239 711 q 591 598 528 711 l 594 598 l 594 694 l 705 694 l 705 -319 m 594 313 l 594 414 q 538 558 594 499 q 396 617 482 617 q 237 543 296 617 q 179 334 179 469 q 235 145 179 214 q 380 77 292 77 q 536 144 478 77 q 594 313 594 211 z "},"r":{"ha":483,"x_min":113,"x_max":475,"o":"m 475 582 q 391 604 446 604 q 272 537 319 604 q 224 354 224 470 l 224 0 l 113 0 l 113 694 l 224 694 l 224 551 l 227 551 q 299 666 250 625 q 408 707 348 707 q 475 697 452 707 l 475 582 z "},"s":{"ha":589,"x_min":71,"x_max":531,"o":"m 71 25 l 71 144 q 271 77 161 77 q 417 175 417 77 q 405 222 417 203 q 371 256 392 241 q 320 283 349 271 q 258 308 292 295 q 177 345 212 326 q 119 387 142 363 q 84 440 96 410 q 72 510 72 470 q 94 596 72 559 q 154 660 117 634 q 239 698 191 685 q 338 711 287 711 q 499 680 428 711 l 499 567 q 323 617 422 617 q 267 610 292 617 q 223 590 241 603 q 196 559 205 577 q 186 519 186 541 q 196 474 186 492 q 224 441 205 456 q 271 416 243 427 q 332 391 298 404 q 415 354 378 373 q 477 312 452 336 q 517 258 503 289 q 531 186 531 228 q 508 96 531 134 q 448 33 486 58 q 360 -4 410 8 q 256 -16 311 -16 q 71 25 149 -16 z "},"t":{"ha":471,"x_min":29,"x_max":435,"o":"m 435 7 q 331 -15 395 -15 q 149 189 149 -15 l 149 600 l 29 600 l 29 694 l 149 694 l 149 864 l 260 900 l 260 694 l 435 694 l 435 600 l 260 600 l 260 208 q 283 109 260 138 q 362 79 307 79 q 435 102 404 79 l 435 7 z "},"u":{"ha":786,"x_min":98,"x_max":674,"o":"m 674 0 l 563 0 l 563 110 l 560 110 q 346 -16 491 -16 q 98 279 98 -16 l 98 694 l 208 694 l 208 297 q 376 77 208 77 q 510 137 458 77 q 563 294 563 197 l 563 694 l 674 694 l 674 0 z "},"v":{"ha":665,"x_min":9,"x_max":659,"o":"m 659 694 l 382 0 l 273 0 l 9 694 l 132 694 l 308 190 q 332 93 328 134 l 335 93 q 357 187 342 145 l 541 694 l 659 694 z "},"w":{"ha":1004,"x_min":16,"x_max":987,"o":"m 987 694 l 779 0 l 664 0 l 521 497 q 510 562 513 526 l 507 562 q 493 498 505 537 l 338 0 l 227 0 l 16 694 l 133 694 l 277 172 q 286 110 283 149 l 292 110 q 304 174 294 140 l 464 694 l 566 694 l 709 171 q 720 109 716 146 l 725 109 q 736 171 726 135 l 878 694 l 987 694 z "},"x":{"ha":637,"x_min":18,"x_max":620,"o":"m 620 694 l 387 343 l 616 0 l 486 0 l 350 225 q 319 278 337 246 l 317 278 q 285 225 313 272 l 146 0 l 18 0 l 254 340 l 28 694 l 157 694 l 292 457 q 321 403 307 431 l 323 403 l 497 694 l 620 694 z "},"y":{"ha":672,"x_min":9,"x_max":665,"o":"m 665 694 l 346 -111 q 106 -327 260 -327 q 33 -318 62 -327 l 33 -218 q 99 -231 69 -231 q 225 -130 183 -231 l 281 1 l 9 694 l 133 694 l 321 160 q 335 107 324 150 l 339 107 q 353 159 342 123 l 550 694 l 665 694 z "},"z":{"ha":628,"x_min":22,"x_max":597,"o":"m 597 663 l 186 95 l 593 95 l 593 0 l 22 0 l 22 35 l 433 600 l 61 600 l 61 694 l 597 694 l 597 663 z "},"à":{"ha":707,"x_min":61,"x_max":610,"o":"m 610 0 l 498 0 l 498 109 l 496 109 q 282 -16 423 -16 q 120 39 178 -16 q 61 184 61 94 q 290 411 61 379 l 498 440 q 355 617 498 617 q 129 532 230 617 l 129 646 q 365 711 231 711 q 610 452 610 711 l 610 0 m 498 351 l 331 328 q 214 290 254 317 q 175 193 175 262 q 211 110 175 142 q 308 77 248 77 q 445 135 391 77 q 498 282 498 193 l 498 351 m 457 826 l 371 826 l 193 1048 l 307 1048 l 457 826 z "},"á":{"ha":707,"x_min":61,"x_max":610,"o":"m 610 0 l 498 0 l 498 109 l 496 109 q 282 -16 423 -16 q 120 39 178 -16 q 61 184 61 94 q 290 411 61 379 l 498 440 q 355 617 498 617 q 129 532 230 617 l 129 646 q 365 711 231 711 q 610 452 610 711 l 610 0 m 498 351 l 331 328 q 214 290 254 317 q 175 193 175 262 q 211 110 175 142 q 308 77 248 77 q 445 135 391 77 q 498 282 498 193 l 498 351 m 513 1048 l 336 826 l 250 826 l 401 1048 l 513 1048 z "},"â":{"ha":707,"x_min":61,"x_max":610,"o":"m 610 0 l 498 0 l 498 109 l 496 109 q 282 -16 423 -16 q 120 39 178 -16 q 61 184 61 94 q 290 411 61 379 l 498 440 q 355 617 498 617 q 129 532 230 617 l 129 646 q 365 711 231 711 q 610 452 610 711 l 610 0 m 498 351 l 331 328 q 214 290 254 317 q 175 193 175 262 q 211 110 175 142 q 308 77 248 77 q 445 135 391 77 q 498 282 498 193 l 498 351 m 547 826 l 464 826 l 353 982 l 241 826 l 164 826 l 310 1051 l 400 1051 l 547 826 z "},"ã":{"ha":707,"x_min":61,"x_max":610,"o":"m 610 0 l 498 0 l 498 109 l 496 109 q 282 -16 423 -16 q 120 39 178 -16 q 61 184 61 94 q 290 411 61 379 l 498 440 q 355 617 498 617 q 129 532 230 617 l 129 646 q 365 711 231 711 q 610 452 610 711 l 610 0 m 498 351 l 331 328 q 214 290 254 317 q 175 193 175 262 q 211 110 175 142 q 308 77 248 77 q 445 135 391 77 q 498 282 498 193 l 498 351 m 572 989 q 540 872 572 918 q 452 827 507 827 q 342 863 404 827 q 261 892 290 892 q 201 815 201 892 l 138 815 q 170 931 138 888 q 261 975 203 975 q 362 940 305 975 q 449 910 412 910 q 506 989 506 910 l 572 989 z "},"ä":{"ha":707,"x_min":61,"x_max":610,"o":"m 610 0 l 498 0 l 498 109 l 496 109 q 282 -16 423 -16 q 120 39 178 -16 q 61 184 61 94 q 290 411 61 379 l 498 440 q 355 617 498 617 q 129 532 230 617 l 129 646 q 365 711 231 711 q 610 452 610 711 l 610 0 m 498 351 l 331 328 q 214 290 254 317 q 175 193 175 262 q 211 110 175 142 q 308 77 248 77 q 445 135 391 77 q 498 282 498 193 l 498 351 m 480 826 q 433 845 453 826 q 414 893 414 864 q 433 941 414 922 q 479 960 452 960 q 527 940 507 960 q 547 893 547 921 q 528 846 547 865 q 480 826 509 826 m 220 826 q 171 846 191 826 q 151 893 151 866 q 171 941 151 922 q 218 960 190 960 q 266 940 245 960 q 286 893 286 921 q 267 846 286 865 q 220 826 247 826 z "},"å":{"ha":707,"x_min":61,"x_max":610,"o":"m 610 0 l 498 0 l 498 109 l 496 109 q 282 -16 423 -16 q 120 39 178 -16 q 61 184 61 94 q 290 411 61 379 l 498 440 q 355 617 498 617 q 129 532 230 617 l 129 646 q 365 711 231 711 q 610 452 610 711 l 610 0 m 498 351 l 331 328 q 214 290 254 317 q 175 193 175 262 q 211 110 175 142 q 308 77 248 77 q 445 135 391 77 q 498 282 498 193 l 498 351 m 351 798 q 253 833 292 798 q 214 926 214 869 q 254 1024 214 987 q 355 1061 294 1061 q 454 1024 416 1061 q 493 930 493 987 q 452 836 493 873 q 351 798 410 798 m 351 1006 q 296 984 318 1006 q 275 929 275 962 q 351 853 275 853 q 407 875 385 853 q 429 929 429 897 q 407 984 429 962 q 351 1006 385 1006 z "},"æ":{"ha":1156,"x_min":61,"x_max":1100,"o":"m 1100 319 l 608 319 q 670 140 610 203 q 833 77 730 77 q 1051 155 954 77 l 1051 50 q 808 -16 962 -16 q 549 139 625 -16 l 546 139 q 283 -16 448 -16 q 120 38 180 -16 q 61 184 61 93 q 321 404 61 388 l 498 415 q 353 617 498 617 q 129 534 234 617 l 129 646 q 365 711 229 711 q 568 575 522 711 l 571 575 q 812 711 650 711 q 1025 622 949 711 q 1100 376 1100 534 l 1100 319 m 986 414 q 940 564 985 511 q 814 617 895 617 q 679 562 735 617 q 610 414 623 506 l 986 414 m 498 278 l 498 321 l 361 313 q 220 279 267 307 q 174 187 174 252 q 210 107 174 138 q 307 77 245 77 q 443 135 387 77 q 498 278 498 192 z "},"ç":{"ha":642,"x_min":65,"x_max":587,"o":"m 586 32 q 396 -16 506 -16 q 156 80 248 -16 q 65 331 65 177 q 163 607 65 503 q 426 711 262 711 q 587 677 517 711 l 587 563 q 422 617 510 617 q 247 541 315 617 q 179 340 179 465 q 243 148 179 218 q 415 77 307 77 q 586 138 506 77 l 586 32 m 528 -174 q 341 -293 528 -293 q 297 -292 315 -293 l 297 -231 q 345 -235 326 -235 q 440 -174 440 -235 q 353 -121 440 -121 q 325 -123 346 -121 l 325 0 l 398 0 l 398 -71 q 493 -98 458 -71 q 528 -174 528 -125 z "},"è":{"ha":726,"x_min":65,"x_max":671,"o":"m 671 319 l 180 319 q 243 140 183 203 q 407 77 302 77 q 623 155 524 77 l 623 50 q 380 -16 531 -16 q 149 78 233 -16 q 65 345 65 173 q 157 609 65 507 q 385 711 249 711 q 596 623 522 711 q 671 378 671 534 l 671 319 m 557 414 q 510 564 556 510 q 383 617 465 617 q 250 561 304 617 q 182 414 195 505 l 557 414 m 492 826 l 406 826 l 228 1048 l 342 1048 l 492 826 z "},"é":{"ha":726,"x_min":65,"x_max":671,"o":"m 671 319 l 180 319 q 243 140 183 203 q 407 77 302 77 q 623 155 524 77 l 623 50 q 380 -16 531 -16 q 149 78 233 -16 q 65 345 65 173 q 157 609 65 507 q 385 711 249 711 q 596 623 522 711 q 671 378 671 534 l 671 319 m 557 414 q 510 564 556 510 q 383 617 465 617 q 250 561 304 617 q 182 414 195 505 l 557 414 m 539 1048 l 361 826 l 275 826 l 427 1048 l 539 1048 z "},"ê":{"ha":726,"x_min":65,"x_max":671,"o":"m 671 319 l 180 319 q 243 140 183 203 q 407 77 302 77 q 623 155 524 77 l 623 50 q 380 -16 531 -16 q 149 78 233 -16 q 65 345 65 173 q 157 609 65 507 q 385 711 249 711 q 596 623 522 711 q 671 378 671 534 l 671 319 m 557 414 q 510 564 556 510 q 383 617 465 617 q 250 561 304 617 q 182 414 195 505 l 557 414 m 570 826 l 487 826 l 376 982 l 264 826 l 187 826 l 333 1051 l 423 1051 l 570 826 z "},"ë":{"ha":726,"x_min":65,"x_max":671,"o":"m 671 319 l 180 319 q 243 140 183 203 q 407 77 302 77 q 623 155 524 77 l 623 50 q 380 -16 531 -16 q 149 78 233 -16 q 65 345 65 173 q 157 609 65 507 q 385 711 249 711 q 596 623 522 711 q 671 378 671 534 l 671 319 m 557 414 q 510 564 556 510 q 383 617 465 617 q 250 561 304 617 q 182 414 195 505 l 557 414 m 506 826 q 459 845 479 826 q 439 893 439 864 q 458 941 439 922 q 505 960 477 960 q 553 940 533 960 q 572 893 572 921 q 553 846 572 865 q 506 826 534 826 m 245 826 q 197 846 217 826 q 177 893 177 866 q 196 941 177 922 q 243 960 216 960 q 292 940 271 960 q 312 893 312 921 q 292 846 312 865 q 245 826 273 826 z "},"ì":{"ha":336,"x_min":-14,"x_max":250,"o":"m 224 0 l 113 0 l 113 694 l 224 694 l 224 0 m 250 826 l 164 826 l -14 1048 l 100 1048 l 250 826 z "},"í":{"ha":336,"x_min":60,"x_max":323,"o":"m 224 0 l 113 0 l 113 694 l 224 694 l 224 0 m 323 1048 l 146 826 l 60 826 l 211 1048 l 323 1048 z "},"î":{"ha":336,"x_min":-31,"x_max":352,"o":"m 224 0 l 113 0 l 113 694 l 224 694 l 224 0 m 352 826 l 269 826 l 158 982 l 46 826 l -31 826 l 115 1051 l 205 1051 l 352 826 z "},"ï":{"ha":336,"x_min":-37,"x_max":358,"o":"m 224 0 l 113 0 l 113 694 l 224 694 l 224 0 m 292 826 q 245 845 264 826 q 225 893 225 864 q 244 941 225 922 q 290 960 263 960 q 338 940 319 960 q 358 893 358 921 q 339 846 358 865 q 292 826 320 826 m 31 826 q -17 846 3 826 q -37 893 -37 866 q -18 941 -37 922 q 29 960 1 960 q 77 940 57 960 q 98 893 98 921 q 78 846 98 865 q 31 826 58 826 z "},"ñ":{"ha":786,"x_min":113,"x_max":689,"o":"m 689 0 l 578 0 l 578 396 q 416 617 578 617 q 278 554 333 617 q 224 396 224 492 l 224 0 l 113 0 l 113 694 l 224 694 l 224 579 l 227 579 q 454 711 305 711 q 629 637 568 711 q 689 425 689 564 l 689 0 m 616 989 q 583 872 616 918 q 495 827 551 827 q 385 863 447 827 q 304 892 333 892 q 245 815 245 892 l 181 815 q 214 931 181 888 q 304 975 246 975 q 406 940 349 975 q 492 910 456 910 q 549 989 549 910 l 616 989 z "},"ò":{"ha":814,"x_min":65,"x_max":749,"o":"m 403 -16 q 157 81 249 -16 q 65 339 65 178 q 161 612 65 514 q 419 711 256 711 q 662 615 574 711 q 749 350 749 519 q 655 84 749 184 q 403 -16 561 -16 m 411 617 q 241 544 304 617 q 179 343 179 471 q 242 149 179 220 q 411 77 305 77 q 577 147 519 77 q 635 346 635 217 q 577 547 635 476 q 411 617 519 617 m 507 826 l 420 826 l 243 1048 l 357 1048 l 507 826 z "},"ó":{"ha":814,"x_min":65,"x_max":749,"o":"m 403 -16 q 157 81 249 -16 q 65 339 65 178 q 161 612 65 514 q 419 711 256 711 q 662 615 574 711 q 749 350 749 519 q 655 84 749 184 q 403 -16 561 -16 m 411 617 q 241 544 304 617 q 179 343 179 471 q 242 149 179 220 q 411 77 305 77 q 577 147 519 77 q 635 346 635 217 q 577 547 635 476 q 411 617 519 617 m 574 1048 l 396 826 l 310 826 l 461 1048 l 574 1048 z "},"ô":{"ha":814,"x_min":65,"x_max":749,"o":"m 403 -16 q 157 81 249 -16 q 65 339 65 178 q 161 612 65 514 q 419 711 256 711 q 662 615 574 711 q 749 350 749 519 q 655 84 749 184 q 403 -16 561 -16 m 411 617 q 241 544 304 617 q 179 343 179 471 q 242 149 179 220 q 411 77 305 77 q 577 147 519 77 q 635 346 635 217 q 577 547 635 476 q 411 617 519 617 m 600 826 l 517 826 l 406 982 l 294 826 l 218 826 l 363 1051 l 454 1051 l 600 826 z "},"õ":{"ha":814,"x_min":65,"x_max":749,"o":"m 403 -16 q 157 81 249 -16 q 65 339 65 178 q 161 612 65 514 q 419 711 256 711 q 662 615 574 711 q 749 350 749 519 q 655 84 749 184 q 403 -16 561 -16 m 411 617 q 241 544 304 617 q 179 343 179 471 q 242 149 179 220 q 411 77 305 77 q 577 147 519 77 q 635 346 635 217 q 577 547 635 476 q 411 617 519 617 m 631 989 q 599 872 631 918 q 511 827 566 827 q 401 863 463 827 q 320 892 349 892 q 260 815 260 892 l 197 815 q 229 931 197 888 q 320 975 262 975 q 421 940 364 975 q 508 910 471 910 q 565 989 565 910 l 631 989 z "},"ö":{"ha":814,"x_min":65,"x_max":749,"o":"m 403 -16 q 157 81 249 -16 q 65 339 65 178 q 161 612 65 514 q 419 711 256 711 q 662 615 574 711 q 749 350 749 519 q 655 84 749 184 q 403 -16 561 -16 m 411 617 q 241 544 304 617 q 179 343 179 471 q 242 149 179 220 q 411 77 305 77 q 577 147 519 77 q 635 346 635 217 q 577 547 635 476 q 411 617 519 617 m 538 826 q 491 845 511 826 q 471 893 471 864 q 490 941 471 922 q 536 960 509 960 q 585 940 565 960 q 604 893 604 921 q 585 846 604 865 q 538 826 566 826 m 277 826 q 229 846 249 826 q 209 893 209 866 q 228 941 209 922 q 275 960 248 960 q 323 940 303 960 q 344 893 344 921 q 324 846 344 865 q 277 826 304 826 z "},"ø":{"ha":814,"x_min":33,"x_max":796,"o":"m 796 711 l 682 589 q 749 354 749 495 q 654 83 749 183 q 403 -16 560 -16 q 187 53 273 -16 l 89 -56 l 33 -3 l 134 109 q 65 339 65 201 q 161 612 65 514 q 420 711 258 711 q 629 644 545 711 l 739 764 l 796 711 m 557 567 q 411 617 503 617 q 241 544 303 617 q 179 343 179 471 q 213 191 179 254 l 557 567 m 604 503 l 260 129 q 410 77 319 77 q 578 148 520 77 q 636 347 636 218 q 604 503 636 438 z "},"œ":{"ha":1289,"x_min":65,"x_max":1238,"o":"m 1238 319 l 746 319 q 808 140 748 203 q 972 77 868 77 q 1189 155 1091 77 l 1189 50 q 947 -16 1097 -16 q 688 144 764 -16 l 685 144 q 403 -16 596 -16 q 156 81 248 -16 q 65 338 65 178 q 161 612 65 513 q 420 711 258 711 q 693 551 620 711 l 696 551 q 957 711 777 711 q 1164 622 1090 711 q 1238 379 1238 532 l 1238 319 m 1124 414 q 1077 564 1122 510 q 953 617 1031 617 q 815 559 871 617 q 747 414 758 501 l 1124 414 m 411 617 q 241 544 304 617 q 179 340 179 470 q 241 148 179 218 q 410 77 304 77 q 576 147 517 77 q 635 345 635 216 q 576 547 635 476 q 411 617 517 617 z "},"š":{"ha":589,"x_min":71,"x_max":531,"o":"m 71 25 l 71 144 q 271 77 161 77 q 417 175 417 77 q 405 222 417 203 q 371 256 392 241 q 320 283 349 271 q 258 308 292 295 q 177 345 212 326 q 119 387 142 363 q 84 440 96 410 q 72 510 72 470 q 94 596 72 559 q 154 660 117 634 q 239 698 191 685 q 338 711 287 711 q 499 680 428 711 l 499 567 q 323 617 422 617 q 267 610 292 617 q 223 590 241 603 q 196 559 205 577 q 186 519 186 541 q 196 474 186 492 q 224 441 205 456 q 271 416 243 427 q 332 391 298 404 q 415 354 378 373 q 477 312 452 336 q 517 258 503 289 q 531 186 531 228 q 508 96 531 134 q 448 33 486 58 q 360 -4 410 8 q 256 -16 311 -16 q 71 25 149 -16 m 463 1050 l 317 826 l 228 826 l 81 1050 l 159 1050 l 271 895 l 382 1050 l 463 1050 z "},"ß":{"ha":755,"x_min":113,"x_max":708,"o":"m 313 1 l 313 110 q 428 77 363 77 q 548 127 502 77 q 594 261 594 177 q 526 426 594 363 q 338 503 458 490 l 338 591 q 469 661 418 605 q 521 795 521 718 q 484 908 521 868 q 380 949 446 949 q 224 739 224 949 l 224 0 l 113 0 l 113 755 q 187 964 113 886 q 388 1043 262 1043 q 568 979 500 1043 q 635 808 635 914 q 584 654 635 722 q 452 559 533 585 l 452 555 q 708 267 708 505 q 633 65 708 146 q 433 -16 557 -16 q 313 1 365 -16 z "},"ù":{"ha":786,"x_min":98,"x_max":674,"o":"m 674 0 l 563 0 l 563 110 l 560 110 q 346 -16 491 -16 q 98 279 98 -16 l 98 694 l 208 694 l 208 297 q 376 77 208 77 q 510 137 458 77 q 563 294 563 197 l 563 694 l 674 694 l 674 0 m 478 826 l 392 826 l 214 1048 l 328 1048 l 478 826 z "},"ú":{"ha":786,"x_min":98,"x_max":674,"o":"m 674 0 l 563 0 l 563 110 l 560 110 q 346 -16 491 -16 q 98 279 98 -16 l 98 694 l 208 694 l 208 297 q 376 77 208 77 q 510 137 458 77 q 563 294 563 197 l 563 694 l 674 694 l 674 0 m 570 1048 l 392 826 l 306 826 l 457 1048 l 570 1048 z "},"û":{"ha":786,"x_min":98,"x_max":674,"o":"m 674 0 l 563 0 l 563 110 l 560 110 q 346 -16 491 -16 q 98 279 98 -16 l 98 694 l 208 694 l 208 297 q 376 77 208 77 q 510 137 458 77 q 563 294 563 197 l 563 694 l 674 694 l 674 0 m 579 826 l 496 826 l 385 982 l 273 826 l 197 826 l 342 1051 l 433 1051 l 579 826 z "},"ü":{"ha":786,"x_min":98,"x_max":674,"o":"m 674 0 l 563 0 l 563 110 l 560 110 q 346 -16 491 -16 q 98 279 98 -16 l 98 694 l 208 694 l 208 297 q 376 77 208 77 q 510 137 458 77 q 563 294 563 197 l 563 694 l 674 694 l 674 0 m 522 826 q 475 845 495 826 q 456 893 456 864 q 475 941 456 922 q 521 960 494 960 q 569 940 549 960 q 589 893 589 921 q 570 846 589 865 q 522 826 551 826 m 262 826 q 213 846 233 826 q 193 893 193 866 q 213 941 193 922 q 260 960 232 960 q 308 940 288 960 q 328 893 328 921 q 309 846 328 865 q 262 826 289 826 z "},"ý":{"ha":672,"x_min":9,"x_max":665,"o":"m 665 694 l 346 -111 q 106 -327 260 -327 q 33 -318 62 -327 l 33 -218 q 99 -231 69 -231 q 225 -130 183 -231 l 281 1 l 9 694 l 133 694 l 321 160 q 335 107 324 150 l 339 107 q 353 159 342 123 l 550 694 l 665 694 m 517 1048 l 339 826 l 253 826 l 404 1048 l 517 1048 z "},"ÿ":{"ha":672,"x_min":9,"x_max":665,"o":"m 665 694 l 346 -111 q 106 -327 260 -327 q 33 -318 62 -327 l 33 -218 q 99 -231 69 -231 q 225 -130 183 -231 l 281 1 l 9 694 l 133 694 l 321 160 q 335 107 324 150 l 339 107 q 353 159 342 123 l 550 694 l 665 694 m 467 826 q 420 845 440 826 q 401 893 401 864 q 420 941 401 922 q 466 960 439 960 q 514 940 494 960 q 534 893 534 921 q 515 846 534 865 q 467 826 496 826 m 207 826 q 158 846 178 826 q 138 893 138 866 q 158 941 138 922 q 205 960 177 960 q 253 940 233 960 q 273 893 273 921 q 254 846 273 865 q 207 826 234 826 z "},"ž":{"ha":628,"x_min":22,"x_max":597,"o":"m 597 663 l 186 95 l 593 95 l 593 0 l 22 0 l 22 35 l 433 600 l 61 600 l 61 694 l 597 694 l 597 663 m 530 1050 l 385 826 l 296 826 l 149 1050 l 227 1050 l 338 895 l 450 1050 l 530 1050 z "},"ð":{"ha":777,"x_min":65,"x_max":711,"o":"m 533 656 l 536 659 q 401 839 475 768 l 199 736 l 164 803 l 347 892 q 168 1028 267 963 l 318 1028 q 435 936 369 993 l 631 1034 l 668 970 l 489 882 q 711 357 711 673 q 623 90 711 194 q 385 -15 536 -15 q 150 80 235 -15 q 65 339 65 175 q 153 607 65 504 q 391 709 241 709 q 533 656 474 709 m 395 617 q 237 544 294 617 q 179 343 179 470 q 235 149 179 220 q 392 77 292 77 q 542 151 486 77 q 597 346 597 224 q 395 617 597 617 z "},"þ":{"ha":817,"x_min":113,"x_max":751,"o":"m 227 100 l 224 100 l 224 -319 l 113 -319 l 113 1028 l 224 1028 l 224 572 l 227 572 q 467 711 309 711 q 676 617 601 711 q 751 368 751 524 q 667 89 751 193 q 435 -16 582 -16 q 227 100 300 -16 m 224 380 l 224 283 q 280 137 224 197 q 422 77 336 77 q 580 155 523 77 q 637 370 637 232 q 584 551 637 486 q 439 617 530 617 q 283 550 342 617 q 224 380 224 482 z "},"&":{"ha":1112,"x_min":81,"x_max":1084,"o":"m 980 -16 q 912 -5 941 -16 q 857 25 882 5 q 809 72 832 44 q 760 135 785 100 q 697 79 732 106 q 618 31 661 52 q 523 -3 574 9 q 411 -16 471 -16 q 277 3 338 -16 q 172 57 216 21 q 105 144 129 92 q 81 264 81 197 q 140 442 81 368 q 307 562 199 515 q 266 597 286 577 q 230 643 245 617 q 204 699 214 668 q 194 766 194 730 q 213 861 194 820 q 267 931 233 903 q 347 974 300 960 q 446 989 393 989 q 543 974 499 989 q 618 932 587 960 q 667 867 650 905 q 685 783 685 829 q 638 647 685 701 q 499 555 592 593 q 584 511 546 537 q 654 452 622 484 q 714 382 686 419 q 769 304 742 345 q 852 473 824 381 q 880 667 880 566 q 877 715 880 692 q 868 760 873 738 l 976 760 q 982 718 981 738 q 985 670 983 698 q 972 546 985 608 q 937 425 959 484 q 887 313 916 366 q 826 216 858 260 q 869 160 850 184 q 909 119 889 136 q 950 95 929 103 q 999 87 972 87 q 1040 93 1019 87 q 1084 106 1061 98 l 1084 3 q 1033 -11 1059 -6 q 980 -16 1006 -16 m 411 81 q 506 92 463 81 q 586 122 549 103 q 652 165 623 140 q 707 217 682 190 q 630 327 665 281 q 560 406 595 373 q 484 463 524 439 q 391 507 444 487 q 312 470 348 490 q 250 421 276 449 q 209 355 224 393 q 194 268 194 318 q 211 186 194 222 q 257 128 228 151 q 326 93 287 104 q 411 81 366 81 m 581 773 q 568 831 581 807 q 536 870 555 854 q 493 893 517 886 q 446 900 469 900 q 340 864 380 900 q 300 766 300 828 q 308 714 300 739 q 332 669 317 690 q 368 631 347 648 q 411 604 388 615 q 538 673 496 633 q 581 773 581 713 z "},",":{"ha":301,"x_min":26,"x_max":214,"o":"m 214 155 l 106 -179 l 26 -179 l 106 155 l 214 155 z "},";":{"ha":301,"x_min":26,"x_max":229,"o":"m 153 559 q 99 581 121 559 q 77 635 77 604 q 99 688 77 666 q 153 709 121 709 q 207 688 184 709 q 229 635 229 666 q 207 581 229 604 q 153 559 184 559 m 214 155 l 106 -179 l 26 -179 l 106 155 l 214 155 z "},":":{"ha":301,"x_min":76,"x_max":228,"o":"m 151 559 q 98 581 120 559 q 76 635 76 604 q 98 688 76 666 q 151 709 120 709 q 205 688 183 709 q 228 635 228 666 q 205 581 228 604 q 151 559 183 559 m 151 -15 q 98 7 120 -15 q 76 61 76 30 q 98 115 76 92 q 151 138 120 138 q 205 115 183 138 q 228 61 228 92 q 205 7 228 30 q 151 -15 183 -15 z "},".":{"ha":301,"x_min":76,"x_max":228,"o":"m 151 -15 q 98 7 120 -15 q 76 61 76 30 q 98 115 76 92 q 151 138 120 138 q 205 115 183 138 q 228 61 228 92 q 205 7 228 30 q 151 -15 183 -15 z "},"…":{"ha":1018,"x_min":95,"x_max":924,"o":"m 849 -12 q 797 9 818 -12 q 775 62 775 31 q 797 116 775 94 q 849 139 818 139 q 902 116 880 139 q 924 62 924 94 q 902 9 924 31 q 849 -12 880 -12 m 509 -12 q 455 9 477 -12 q 433 62 433 31 q 455 116 433 94 q 509 139 477 139 q 561 116 539 139 q 583 62 583 94 q 561 9 583 31 q 509 -12 539 -12 m 168 -12 q 116 9 137 -12 q 95 62 95 31 q 116 116 95 94 q 168 139 137 139 q 221 116 199 139 q 243 62 243 94 q 221 9 243 31 q 168 -12 199 -12 z "},"!":{"ha":395,"x_min":122,"x_max":273,"o":"m 254 972 l 241 274 l 150 274 l 138 972 l 254 972 m 197 -12 q 144 9 166 -12 q 122 62 122 31 q 144 116 122 94 q 197 138 166 138 q 250 116 228 138 q 273 62 273 94 q 250 9 273 31 q 197 -12 228 -12 z "},"¡":{"ha":395,"x_min":122,"x_max":273,"o":"m 197 560 q 144 582 166 560 q 122 635 122 604 q 144 688 122 666 q 197 709 166 709 q 250 688 228 709 q 273 635 273 666 q 250 582 273 604 q 197 560 228 560 m 257 -275 l 140 -275 l 153 423 l 244 423 l 257 -275 z "},"?":{"ha":623,"x_min":89,"x_max":554,"o":"m 227 270 q 216 316 221 288 q 212 372 212 344 q 229 450 212 415 q 272 515 246 485 q 328 574 298 546 q 385 631 359 602 q 428 691 410 660 q 445 761 445 723 q 432 819 445 793 q 398 861 420 844 q 348 886 376 878 q 288 895 319 895 q 89 804 173 895 l 89 924 q 304 989 193 989 q 401 975 355 989 q 480 935 446 962 q 534 868 515 908 q 554 775 554 828 q 536 686 554 725 q 492 613 519 646 q 434 552 465 581 q 376 495 403 524 q 332 437 349 467 q 314 370 314 406 q 321 313 314 338 q 336 270 329 288 l 227 270 m 288 -12 q 235 9 258 -12 q 213 62 213 31 q 235 115 213 94 q 288 138 258 138 q 341 115 319 138 q 363 62 363 94 q 341 9 363 31 q 288 -12 318 -12 z "},"¿":{"ha":623,"x_min":97,"x_max":562,"o":"m 424 427 q 435 381 430 410 q 439 326 439 353 q 422 247 439 282 q 379 182 405 212 q 323 123 353 151 q 267 66 292 95 q 223 6 241 37 q 206 -64 206 -26 q 219 -121 206 -96 q 253 -163 231 -146 q 303 -189 275 -180 q 363 -197 332 -197 q 562 -107 478 -197 l 562 -227 q 347 -292 458 -292 q 250 -278 296 -292 q 171 -238 205 -264 q 117 -171 137 -211 q 97 -78 97 -131 q 115 12 97 -28 q 159 84 132 51 q 217 145 186 117 q 275 202 248 174 q 319 260 302 230 q 337 328 337 291 q 330 384 337 359 q 315 427 322 410 l 424 427 m 363 709 q 416 688 393 709 q 438 635 438 667 q 416 582 438 604 q 363 559 393 559 q 310 582 332 559 q 288 635 288 604 q 310 688 288 667 q 363 709 333 709 z "},"(":{"ha":419,"x_min":95,"x_max":406,"o":"m 404 -221 l 305 -221 q 95 371 95 19 q 305 972 95 724 l 406 972 q 193 372 193 715 q 404 -221 193 33 z "},")":{"ha":419,"x_min":15,"x_max":327,"o":"m 115 -221 l 16 -221 q 228 372 228 33 q 15 972 228 715 l 115 972 q 327 371 327 724 q 115 -221 327 19 z "},"[":{"ha":419,"x_min":136,"x_max":385,"o":"m 385 -221 l 136 -221 l 136 972 l 385 972 l 385 892 l 235 892 l 235 -140 l 385 -140 l 385 -221 z "},"]":{"ha":419,"x_min":36,"x_max":285,"o":"m 285 -221 l 36 -221 l 36 -140 l 186 -140 l 186 892 l 36 892 l 36 972 l 285 972 l 285 -221 z "},"{":{"ha":419,"x_min":62,"x_max":376,"o":"m 376 -221 q 168 -11 168 -218 l 168 193 q 62 336 168 330 l 62 415 q 168 562 168 422 l 168 760 q 376 972 168 970 l 376 886 q 269 751 269 883 l 269 553 q 167 378 269 410 l 167 375 q 269 201 269 345 l 269 5 q 293 -102 269 -70 q 376 -136 317 -134 l 376 -221 z "},"}":{"ha":419,"x_min":45,"x_max":358,"o":"m 358 336 q 252 193 252 330 l 252 -11 q 45 -221 252 -218 l 45 -136 q 129 -102 104 -134 q 153 5 153 -69 l 153 201 q 254 375 153 345 l 254 378 q 153 553 153 410 l 153 751 q 45 886 153 883 l 45 972 q 252 760 252 970 l 252 562 q 358 415 252 422 l 358 336 z "},"|":{"ha":332,"x_min":117,"x_max":217,"o":"m 217 -327 l 117 -327 l 117 1062 l 217 1062 l 217 -327 z "},"/":{"ha":541,"x_min":-19,"x_max":551,"o":"m 551 972 l 85 -161 l -19 -161 l 446 972 l 551 972 z "},"\\":{"ha":526,"x_min":-18,"x_max":541,"o":"m 541 -163 l 439 -163 l -18 972 l 87 972 l 541 -163 z "},"'":{"ha":319,"x_min":100,"x_max":219,"o":"m 219 972 l 199 669 l 121 669 l 100 972 l 219 972 z "},"\"":{"ha":545,"x_min":100,"x_max":444,"o":"m 219 972 l 199 669 l 121 669 l 100 972 l 219 972 m 444 972 l 424 669 l 346 669 l 326 972 l 444 972 z "},"‘":{"ha":318,"x_min":72,"x_max":247,"o":"m 247 989 l 174 686 l 72 686 l 167 989 l 247 989 z "},"’":{"ha":318,"x_min":75,"x_max":250,"o":"m 250 989 l 155 686 l 75 686 l 150 989 l 250 989 z "},"“":{"ha":524,"x_min":72,"x_max":453,"o":"m 453 989 l 378 686 l 278 686 l 374 989 l 453 989 m 247 989 l 174 686 l 72 686 l 167 989 l 247 989 z "},"”":{"ha":524,"x_min":75,"x_max":456,"o":"m 456 989 l 361 686 l 281 686 l 354 989 l 456 989 m 250 989 l 155 686 l 75 686 l 150 989 l 250 989 z "},"‚":{"ha":318,"x_min":60,"x_max":235,"o":"m 235 147 l 139 -155 l 60 -155 l 134 147 l 235 147 z "},"„":{"ha":524,"x_min":60,"x_max":440,"o":"m 440 147 l 346 -155 l 265 -155 l 339 147 l 440 147 m 235 147 l 139 -155 l 60 -155 l 134 147 l 235 147 z "},"‹":{"ha":439,"x_min":62,"x_max":379,"o":"m 378 136 l 265 136 l 62 363 l 265 597 l 379 597 l 172 363 l 378 136 z "},"›":{"ha":439,"x_min":62,"x_max":379,"o":"m 379 365 l 175 136 l 62 136 l 269 365 l 62 597 l 175 597 l 379 365 z "},"«":{"ha":703,"x_min":62,"x_max":643,"o":"m 642 136 l 528 136 l 325 363 l 528 597 l 643 597 l 435 363 l 642 136 m 378 136 l 265 136 l 62 363 l 265 597 l 378 597 l 172 363 l 378 136 z "},"»":{"ha":703,"x_min":61,"x_max":643,"o":"m 643 365 l 439 136 l 327 136 l 532 365 l 327 597 l 439 597 l 643 365 m 379 365 l 176 136 l 61 136 l 270 365 l 61 597 l 176 597 l 379 365 z "},"*":{"ha":579,"x_min":52,"x_max":529,"o":"m 529 749 l 343 711 l 472 546 l 397 494 l 292 674 l 184 494 l 110 546 l 239 711 l 52 749 l 82 833 l 260 766 l 244 972 l 338 972 l 322 766 l 500 833 l 529 749 z "},"†":{"ha":521,"x_min":33,"x_max":494,"o":"m 494 606 l 316 626 l 289 155 l 237 155 l 210 626 l 33 606 l 33 707 l 237 694 l 210 972 l 316 972 l 289 694 l 494 707 l 494 606 z "},"‡":{"ha":521,"x_min":33,"x_max":494,"o":"m 494 352 l 289 366 l 316 155 l 210 155 l 237 366 l 33 352 l 33 454 l 210 433 l 250 564 l 210 694 l 33 673 l 33 775 l 237 762 l 210 972 l 316 972 l 289 762 l 494 775 l 494 673 l 316 694 l 277 564 l 316 433 l 494 454 l 494 352 z "},"·":{"ha":301,"x_min":76,"x_max":228,"o":"m 151 346 q 98 368 120 346 q 76 422 76 391 q 98 476 76 454 q 151 498 120 498 q 205 476 183 498 q 228 422 228 454 q 205 368 228 391 q 151 346 183 346 z "},"•":{"ha":564,"x_min":111,"x_max":453,"o":"m 283 277 q 162 326 213 277 q 111 446 111 376 q 162 567 111 516 q 283 618 213 618 q 404 568 354 618 q 453 446 453 517 q 404 326 453 376 q 283 277 354 277 z "},"@":{"ha":1326,"x_min":117,"x_max":1213,"o":"m 789 285 l 786 285 q 591 123 736 123 q 442 192 498 123 q 385 376 385 260 q 464 631 385 530 q 669 732 542 732 q 756 707 718 732 q 806 644 795 682 l 808 644 q 815 722 810 663 l 900 722 q 868 342 868 349 q 949 201 868 201 q 1070 281 1022 201 q 1119 486 1119 360 q 1001 791 1119 673 q 674 909 883 909 q 341 768 473 909 q 210 415 210 627 q 335 79 210 207 q 672 -49 460 -49 q 958 7 840 -49 l 958 -77 q 665 -127 841 -127 q 268 21 418 -127 q 117 411 117 170 q 275 823 117 659 q 680 986 433 986 q 1061 849 910 986 q 1213 492 1213 712 q 1133 227 1213 330 q 939 123 1053 123 q 789 285 790 123 m 668 654 q 532 574 584 654 q 480 375 480 494 q 515 249 480 295 q 608 203 550 203 q 742 287 692 203 q 791 509 791 370 q 668 654 791 654 z "},"©":{"ha":1236,"x_min":110,"x_max":1126,"o":"m 618 -22 q 259 126 408 -22 q 110 486 110 275 q 259 846 110 697 q 618 995 408 995 q 978 846 829 995 q 1126 486 1126 697 q 978 126 1126 275 q 618 -22 829 -22 m 618 935 q 301 804 433 935 q 170 486 170 672 q 301 169 170 300 q 618 38 433 38 q 936 169 804 38 q 1067 486 1067 300 q 936 804 1067 672 q 618 935 804 935 m 823 180 q 640 134 745 134 q 403 230 498 134 q 307 469 307 326 q 405 736 307 637 q 660 836 503 836 q 820 800 749 836 l 820 699 q 648 747 755 747 q 473 675 542 747 q 404 481 404 603 q 474 291 404 363 q 653 220 545 220 q 823 273 752 220 l 823 180 z "},"®":{"ha":1236,"x_min":110,"x_max":1126,"o":"m 618 -22 q 259 126 408 -22 q 110 486 110 275 q 259 846 110 697 q 618 995 408 995 q 978 846 829 995 q 1126 486 1126 697 q 978 126 1126 275 q 618 -22 829 -22 m 618 935 q 301 804 433 935 q 170 486 170 672 q 301 169 170 300 q 618 38 433 38 q 936 169 804 38 q 1067 486 1067 300 q 936 804 1067 672 q 618 935 804 935 m 865 168 l 755 168 l 685 323 q 570 440 631 440 l 510 440 l 510 168 l 420 168 l 420 815 l 602 815 q 776 768 715 815 q 838 639 838 720 q 794 526 838 572 q 674 463 751 479 l 674 460 q 781 340 728 448 l 865 168 m 510 738 l 510 517 l 607 517 q 741 628 741 517 q 705 713 741 688 q 591 738 669 738 l 510 738 z "},"™":{"ha":1074,"x_min":52,"x_max":947,"o":"m 947 524 l 873 524 l 873 848 l 871 848 l 722 524 l 682 524 l 537 848 l 534 848 l 534 524 l 465 524 l 465 972 l 551 972 l 704 636 l 707 636 l 861 972 l 947 972 l 947 524 m 408 906 l 267 906 l 267 524 l 191 524 l 191 906 l 52 906 l 52 972 l 408 972 l 408 906 z "},"§":{"ha":623,"x_min":89,"x_max":547,"o":"m 446 282 q 507 156 507 232 q 439 11 507 66 q 267 -45 372 -45 q 104 -7 178 -45 l 104 100 q 274 50 193 50 q 362 77 331 50 q 393 144 393 104 q 369 205 393 180 q 247 282 345 230 q 89 497 89 365 q 189 663 89 608 q 117 814 117 719 q 180 956 117 900 q 347 1011 243 1011 q 496 982 435 1011 l 496 875 q 345 917 427 917 q 231 819 231 917 q 258 751 231 782 q 396 668 286 721 q 547 469 547 595 q 446 282 547 354 m 270 614 q 201 506 201 579 q 240 420 201 457 q 374 340 278 383 q 433 457 433 387 q 398 540 433 506 q 270 614 362 574 z "},"¶":{"ha":636,"x_min":57,"x_max":566,"o":"m 566 903 l 479 903 l 479 0 l 407 0 l 407 903 l 300 903 l 300 0 l 227 0 l 227 612 q 105 664 153 612 q 57 793 57 715 q 107 923 57 873 q 231 972 158 972 l 566 972 l 566 903 z "},"-":{"ha":555,"x_min":98,"x_max":468,"o":"m 468 343 l 98 343 l 98 431 l 468 431 l 468 343 z "},"–":{"ha":694,"x_min":0,"x_max":694,"o":"m 694 343 l 0 343 l 0 431 l 694 431 l 694 343 z "},"—":{"ha":1389,"x_min":0,"x_max":1389,"o":"m 1389 343 l 0 343 l 0 431 l 1389 431 l 1389 343 z "},"‒":{"ha":749,"x_min":61,"x_max":688,"o":"m 688 343 l 61 343 l 61 431 l 688 431 l 688 343 z "},"―":{"ha":1389,"x_min":0,"x_max":1389,"o":"m 1389 343 l 0 343 l 0 431 l 1389 431 l 1389 343 z "},"#":{"ha":821,"x_min":22,"x_max":791,"o":"m 791 700 l 775 628 l 598 628 l 555 425 l 746 425 l 728 353 l 541 353 l 481 83 l 396 83 l 454 353 l 285 353 l 228 83 l 143 83 l 200 353 l 22 353 l 36 425 l 216 425 l 257 628 l 69 628 l 83 700 l 271 700 l 328 972 l 414 972 l 357 700 l 528 700 l 586 972 l 669 972 l 612 700 l 791 700 m 514 628 l 343 628 l 298 425 l 471 425 l 514 628 z "},"¹":{"ha":488,"x_min":86,"x_max":433,"o":"m 433 396 l 92 396 l 92 472 l 217 472 l 217 875 l 86 838 l 86 922 l 305 987 l 305 472 l 433 472 l 433 396 z "},"²":{"ha":509,"x_min":71,"x_max":446,"o":"m 446 396 l 71 396 l 71 473 l 233 633 q 323 740 304 703 q 342 814 342 777 q 316 878 342 853 q 248 903 290 903 q 102 833 168 903 l 102 935 q 261 986 159 986 q 388 941 341 986 q 435 823 435 897 q 296 587 435 720 l 184 481 l 184 479 l 446 479 l 446 396 z "},"³":{"ha":509,"x_min":87,"x_max":444,"o":"m 87 418 l 87 514 q 235 463 157 463 q 320 488 289 463 q 351 557 351 513 q 203 652 351 652 l 146 652 l 146 732 l 200 732 q 334 823 334 732 q 236 904 334 904 q 110 857 172 904 l 110 951 q 254 986 169 986 q 376 946 331 986 q 422 840 422 905 q 323 701 422 738 l 323 699 q 444 562 444 670 q 386 432 444 482 q 232 382 328 382 q 87 418 139 382 z "},"%":{"ha":1137,"x_min":54,"x_max":1085,"o":"m 274 485 q 114 551 174 485 q 54 728 54 617 q 117 918 54 848 q 288 987 180 987 q 449 923 391 987 q 506 742 506 859 q 442 555 506 625 q 274 485 378 485 m 283 913 q 182 865 219 913 q 144 734 144 817 q 181 606 144 652 q 281 560 218 560 q 380 608 345 560 q 416 739 416 655 q 381 867 416 821 q 283 913 345 913 m 925 972 l 301 -7 l 204 -7 l 827 972 l 925 972 m 853 -15 q 693 52 753 -15 q 633 228 633 118 q 697 419 633 349 q 867 489 761 489 q 1027 424 970 489 q 1085 241 1085 359 q 1021 55 1085 125 q 853 -15 957 -15 m 863 412 q 761 365 798 412 q 724 233 724 317 q 760 107 724 153 q 860 61 797 61 q 960 109 924 61 q 996 240 996 157 q 960 368 996 323 q 863 412 924 412 z "},"‰":{"ha":1681,"x_min":54,"x_max":1626,"o":"m 274 485 q 114 551 174 485 q 54 728 54 617 q 117 918 54 848 q 288 987 180 987 q 449 923 391 987 q 506 742 506 859 q 442 555 506 625 q 274 485 378 485 m 283 913 q 182 865 219 913 q 144 734 144 817 q 181 606 144 652 q 281 560 218 560 q 380 608 345 560 q 416 739 416 655 q 381 867 416 821 q 283 913 345 913 m 926 972 l 301 -7 l 204 -7 l 829 972 l 926 972 m 1394 -15 q 1234 52 1294 -15 q 1175 228 1175 118 q 1239 418 1175 348 q 1408 489 1303 489 q 1569 424 1512 489 q 1626 241 1626 359 q 1563 55 1626 125 q 1394 -15 1499 -15 m 1404 412 q 1302 365 1339 412 q 1265 233 1265 317 q 1302 106 1265 152 q 1401 61 1338 61 q 1501 109 1466 61 q 1537 240 1537 157 q 1501 367 1537 322 q 1404 412 1466 412 m 853 -15 q 693 52 753 -15 q 633 228 633 118 q 697 419 633 349 q 867 489 761 489 q 1027 424 970 489 q 1085 241 1085 359 q 1021 55 1085 125 q 853 -15 957 -15 m 863 412 q 761 365 798 412 q 724 233 724 317 q 760 107 724 153 q 860 61 797 61 q 960 109 924 61 q 996 240 996 157 q 960 368 996 323 q 863 412 924 412 z "},"⁄":{"ha":240,"x_min":-212,"x_max":468,"o":"m 468 972 l -114 0 l -212 0 l 371 972 l 468 972 z "},"¼":{"ha":1259,"x_min":86,"x_max":1157,"o":"m 433 396 l 92 396 l 92 472 l 217 472 l 217 875 l 86 838 l 86 922 l 305 987 l 305 472 l 433 472 l 433 396 m 945 972 l 363 0 l 265 0 l 848 972 l 945 972 m 1157 138 l 1082 138 l 1082 0 l 993 0 l 993 138 l 726 138 l 726 201 l 977 576 l 1082 576 l 1082 212 l 1157 212 l 1157 138 m 996 491 l 993 491 q 967 441 985 470 l 819 212 l 993 212 l 993 431 q 996 491 993 453 z "},"½":{"ha":1293,"x_min":86,"x_max":1185,"o":"m 433 396 l 92 396 l 92 472 l 217 472 l 217 875 l 86 838 l 86 922 l 305 987 l 305 472 l 433 472 l 433 396 m 945 972 l 363 0 l 265 0 l 848 972 l 945 972 m 1185 1 l 810 1 l 810 78 l 972 238 q 1062 344 1043 307 q 1081 418 1081 381 q 1055 483 1081 458 q 987 507 1029 507 q 841 438 907 507 l 841 539 q 1000 591 898 591 q 1127 546 1080 591 q 1174 428 1174 501 q 1035 192 1174 324 l 924 86 l 924 83 l 1185 83 l 1185 1 z "},"¾":{"ha":1322,"x_min":87,"x_max":1201,"o":"m 87 418 l 87 514 q 235 463 157 463 q 320 488 289 463 q 351 557 351 513 q 203 652 351 652 l 146 652 l 146 732 l 200 732 q 334 823 334 732 q 236 904 334 904 q 110 857 172 904 l 110 951 q 254 986 169 986 q 376 946 331 986 q 422 840 422 905 q 323 701 422 738 l 323 699 q 444 562 444 670 q 386 432 444 482 q 232 382 328 382 q 87 418 139 382 m 993 972 l 411 0 l 313 0 l 896 972 l 993 972 m 1201 138 l 1126 138 l 1126 0 l 1037 0 l 1037 138 l 770 138 l 770 201 l 1021 576 l 1126 576 l 1126 212 l 1201 212 l 1201 138 m 1040 491 l 1037 491 q 1011 441 1029 470 l 863 212 l 1037 212 l 1037 431 q 1040 491 1037 453 z "},"+":{"ha":950,"x_min":157,"x_max":795,"o":"m 795 359 l 521 359 l 521 86 l 431 86 l 431 359 l 157 359 l 157 450 l 431 450 l 431 724 l 521 724 l 521 450 l 795 450 l 795 359 z "},"−":{"ha":950,"x_min":157,"x_max":795,"o":"m 795 359 l 157 359 l 157 450 l 795 450 l 795 359 z "},"±":{"ha":950,"x_min":157,"x_max":795,"o":"m 795 442 l 521 442 l 521 168 l 432 168 l 432 442 l 157 442 l 157 532 l 432 532 l 432 806 l 521 806 l 521 532 l 795 532 l 795 442 m 795 0 l 157 0 l 157 90 l 795 90 l 795 0 z "},"×":{"ha":950,"x_min":182,"x_max":769,"o":"m 769 175 l 705 111 l 475 342 l 245 111 l 182 175 l 412 404 l 182 635 l 245 699 l 475 468 l 705 699 l 769 635 l 538 404 l 769 175 z "},"÷":{"ha":950,"x_min":157,"x_max":795,"o":"m 480 589 q 430 609 450 589 q 410 660 410 630 q 429 712 410 690 q 480 734 449 734 q 550 661 550 734 q 529 609 550 629 q 480 589 509 589 m 795 359 l 157 359 l 157 450 l 795 450 l 795 359 m 477 76 q 427 96 448 76 q 406 146 406 117 q 426 199 406 176 q 477 221 446 221 q 546 147 546 221 q 526 96 546 117 q 477 76 507 76 z "},"=":{"ha":950,"x_min":157,"x_max":795,"o":"m 795 505 l 157 505 l 157 594 l 795 594 l 795 505 m 795 216 l 157 216 l 157 305 l 795 305 l 795 216 z "},"<":{"ha":950,"x_min":184,"x_max":768,"o":"m 768 86 l 184 379 l 184 419 l 768 746 l 768 644 l 332 403 l 332 400 l 768 187 l 768 86 z "},">":{"ha":950,"x_min":184,"x_max":768,"o":"m 768 379 l 184 86 l 184 187 l 621 399 l 621 403 l 184 644 l 184 746 l 768 419 l 768 379 z "},"¬":{"ha":950,"x_min":157,"x_max":795,"o":"m 795 172 l 705 172 l 705 464 l 157 464 l 157 554 l 795 554 l 795 172 z "},"°":{"ha":524,"x_min":73,"x_max":449,"o":"m 261 608 q 128 664 183 608 q 73 798 73 719 q 127 929 73 876 q 260 983 182 983 q 394 929 338 983 q 449 798 449 875 q 394 664 449 719 q 261 608 339 608 m 261 904 q 186 873 217 904 q 155 798 155 842 q 185 720 155 752 q 260 688 216 688 q 336 720 304 688 q 368 798 368 753 q 336 873 368 842 q 261 904 305 904 z "},"^":{"ha":950,"x_min":156,"x_max":796,"o":"m 796 423 l 694 423 l 469 843 l 465 843 l 256 423 l 156 423 l 442 989 l 486 989 l 796 423 z "},"~":{"ha":950,"x_min":142,"x_max":810,"o":"m 810 509 q 755 353 805 408 q 620 298 705 298 q 440 372 546 298 q 332 418 374 418 q 233 298 237 418 l 142 298 q 196 452 145 395 q 332 509 246 509 q 492 449 404 509 q 625 388 581 388 q 692 421 667 388 q 718 509 717 454 l 810 509 z "},"¦":{"ha":332,"x_min":117,"x_max":217,"o":"m 217 485 l 117 485 l 117 1062 l 217 1062 l 217 485 m 217 -327 l 117 -327 l 117 251 l 217 251 l 217 -327 z "},"_":{"ha":576,"x_min":0,"x_max":576,"o":"m 576 -201 l 0 -201 l 0 -121 l 576 -121 l 576 -201 z "},"ª":{"ha":545,"x_min":56,"x_max":467,"o":"m 467 486 l 379 486 l 379 554 l 376 554 q 220 473 323 473 q 101 514 146 473 q 56 617 56 554 q 224 777 56 754 l 379 798 q 277 911 379 911 q 104 853 184 911 l 104 940 q 285 987 180 987 q 418 939 370 987 q 467 802 467 890 l 467 486 m 379 729 l 257 712 q 143 621 143 696 q 169 565 143 587 q 239 543 195 543 q 337 585 294 543 q 379 684 379 626 l 379 729 z "},"º":{"ha":598,"x_min":53,"x_max":545,"o":"m 296 472 q 118 540 182 472 q 53 725 53 608 q 122 917 53 848 q 307 986 192 986 q 481 919 417 986 q 545 735 545 851 q 477 543 545 614 q 296 472 410 472 m 301 911 q 187 863 229 911 q 144 728 144 814 q 185 596 144 644 q 300 549 225 549 q 413 597 371 549 q 454 729 454 646 q 413 863 454 814 q 301 911 372 911 z "},"¤":{"ha":772,"x_min":68,"x_max":704,"o":"m 704 240 l 642 175 l 549 269 q 387 217 477 217 q 224 269 294 217 l 130 175 l 68 240 l 161 331 q 110 492 110 408 q 161 652 110 579 l 68 745 l 130 810 l 224 717 q 387 769 298 769 q 547 717 474 769 l 642 810 l 704 745 l 611 652 q 664 492 664 576 q 611 331 664 410 l 704 240 m 387 680 q 254 625 308 680 q 200 493 200 570 q 255 361 200 416 q 387 307 309 307 q 518 361 463 307 q 574 493 574 416 q 517 625 574 570 q 387 680 461 680 z "},"€":{"ha":749,"x_min":69,"x_max":688,"o":"m 688 34 q 496 -16 597 -16 q 151 327 207 -16 l 69 327 l 69 422 l 142 422 q 140 474 140 443 q 144 547 140 507 l 69 547 l 69 642 l 158 642 q 289 897 193 805 q 522 989 385 989 q 688 951 614 989 l 688 841 q 514 894 610 894 q 363 826 429 894 q 271 642 297 758 l 608 642 l 608 547 l 256 547 q 255 422 250 480 l 608 422 l 608 327 l 266 327 q 503 79 315 79 q 688 138 592 79 l 688 34 z "},"$":{"ha":749,"x_min":110,"x_max":663,"o":"m 418 5 l 418 -142 l 347 -142 l 347 0 q 113 58 203 0 l 113 176 q 220 118 152 142 q 347 95 288 95 l 347 442 q 154 575 198 514 q 110 718 110 635 q 177 888 110 817 q 347 974 244 960 l 347 1096 l 418 1096 l 418 977 q 602 939 551 972 l 602 823 q 418 882 532 878 l 418 524 q 611 394 559 456 q 663 251 663 331 q 598 89 663 155 q 418 5 533 24 m 347 562 l 347 878 q 257 827 290 866 q 224 732 224 788 q 251 637 224 674 q 347 562 278 600 m 418 407 l 418 100 q 549 241 549 129 q 418 407 549 335 z "},"¢":{"ha":749,"x_min":125,"x_max":646,"o":"m 646 142 q 496 95 581 102 l 496 -33 l 411 -33 l 411 96 q 202 205 280 111 q 125 440 125 300 q 202 689 125 589 q 411 814 280 789 l 411 958 l 496 958 l 496 821 q 646 786 579 819 l 646 669 q 496 722 577 718 l 496 190 q 646 248 578 198 l 646 142 m 411 197 l 411 713 q 284 623 330 692 q 239 452 239 553 q 285 283 239 350 q 411 197 331 216 z "},"£":{"ha":749,"x_min":72,"x_max":682,"o":"m 682 0 l 72 0 l 72 92 q 220 304 220 138 l 220 431 l 86 431 l 86 526 l 220 526 l 220 699 q 294 907 220 826 q 485 989 368 989 q 629 961 564 989 l 629 856 q 486 895 562 895 q 331 686 331 895 l 331 526 l 532 526 l 532 431 l 331 431 l 331 325 q 200 95 331 161 l 682 95 l 682 0 z "},"¥":{"ha":749,"x_min":46,"x_max":707,"o":"m 707 972 l 465 528 l 659 528 l 659 433 l 432 433 l 432 293 l 659 293 l 659 199 l 432 199 l 432 0 l 321 0 l 321 199 l 87 199 l 87 293 l 321 293 l 321 433 l 87 433 l 87 528 l 285 528 l 46 972 l 176 972 l 346 624 q 378 549 365 585 l 380 549 q 414 628 389 577 l 585 972 l 707 972 z "},"ƒ":{"ha":749,"x_min":64,"x_max":646,"o":"m 646 859 q 572 878 613 878 q 457 769 473 878 l 436 628 l 549 628 l 549 534 l 422 534 l 361 95 q 125 -189 321 -189 q 64 -178 104 -189 l 64 -81 q 122 -95 88 -95 q 251 103 224 -95 l 313 534 l 243 534 l 243 628 l 327 628 l 346 777 q 417 919 357 865 q 567 972 476 972 q 646 960 610 972 l 646 859 z "},"`":{"ha":372,"x_min":56,"x_max":319,"o":"m 319 826 l 233 826 l 56 1048 l 170 1048 l 319 826 z "},"´":{"ha":392,"x_min":92,"x_max":355,"o":"m 355 1048 l 178 826 l 92 826 l 243 1048 l 355 1048 z "},"ˆ":{"ha":515,"x_min":62,"x_max":445,"o":"m 445 826 l 362 826 l 251 982 l 139 826 l 62 826 l 208 1051 l 298 1051 l 445 826 z "},"ˇ":{"ha":515,"x_min":69,"x_max":450,"o":"m 450 1050 l 305 826 l 216 826 l 69 1050 l 147 1050 l 258 895 l 370 1050 l 450 1050 z "},"˜":{"ha":468,"x_min":24,"x_max":458,"o":"m 458 989 q 426 872 458 918 q 338 827 393 827 q 228 863 290 827 q 147 892 176 892 q 87 815 87 892 l 24 815 q 56 931 24 888 q 147 975 89 975 q 248 940 191 975 q 335 910 298 910 q 392 989 392 910 l 458 989 z "},"¨":{"ha":575,"x_min":85,"x_max":480,"o":"m 414 826 q 367 845 387 826 q 347 893 347 864 q 366 941 347 922 q 412 960 385 960 q 460 940 441 960 q 480 893 480 921 q 461 846 480 865 q 414 826 442 826 m 153 826 q 105 846 125 826 q 85 893 85 866 q 104 941 85 922 q 151 960 123 960 q 199 940 179 960 q 220 893 220 921 q 200 846 220 865 q 153 826 180 826 z "},"¯":{"ha":431,"x_min":42,"x_max":387,"o":"m 387 826 l 42 826 l 42 900 l 387 900 l 387 826 z "},"˘":{"ha":422,"x_min":25,"x_max":397,"o":"m 397 997 q 337 873 391 920 q 208 826 284 826 q 79 873 129 826 q 25 997 28 920 l 93 997 q 210 892 101 892 q 289 920 256 892 q 328 997 321 949 l 397 997 z "},"˚":{"ha":389,"x_min":56,"x_max":335,"o":"m 193 798 q 95 833 134 798 q 56 926 56 869 q 96 1024 56 987 q 197 1061 136 1061 q 296 1024 258 1061 q 335 930 335 987 q 294 836 335 873 q 193 798 252 798 m 193 1006 q 138 984 160 1006 q 117 929 117 962 q 193 853 117 853 q 249 875 227 853 q 271 929 271 897 q 249 984 271 962 q 193 1006 227 1006 z "},"¸":{"ha":285,"x_min":35,"x_max":265,"o":"m 265 -174 q 79 -293 265 -293 q 35 -292 53 -293 l 35 -231 q 82 -235 64 -235 q 178 -174 178 -235 q 90 -121 178 -121 q 62 -123 83 -121 l 62 0 l 136 0 l 136 -71 q 230 -98 195 -71 q 265 -174 265 -125 z "},"µ":{"ha":802,"x_min":113,"x_max":711,"o":"m 711 0 l 595 0 q 580 114 580 49 l 576 114 q 387 -16 519 -16 q 226 68 274 -16 l 223 68 l 223 -269 l 113 -269 l 113 694 l 223 694 l 223 270 q 270 133 223 184 q 392 82 317 82 q 525 140 474 82 q 576 297 576 199 l 576 694 l 689 694 l 689 180 q 711 0 689 52 z "},"◻":{"ha":827,"x_min":122,"x_max":705,"o":"m 122 778 l 705 778 l 705 195 l 122 195 l 122 778 m 176 249 l 651 249 l 651 724 l 176 724 l 176 249 z "},"◼":{"ha":827,"x_min":122,"x_max":705,"o":"m 122 778 l 705 778 l 705 195 l 122 195 l 122 778 z "},"◽":{"ha":827,"x_min":239,"x_max":589,"o":"m 239 661 l 589 661 l 589 311 l 239 311 l 239 661 m 286 359 l 541 359 l 541 614 l 286 614 l 286 359 z "},"◾":{"ha":827,"x_min":239,"x_max":589,"o":"m 239 661 l 589 661 l 589 311 l 239 311 l 239 661 z "},"‌":{"ha":0,"x_min":-24,"x_max":24,"o":"m 24 1187 l 24 -277 l -24 -277 l -24 1187 l 24 1187 z "},"‍":{"ha":0,"x_min":-149,"x_max":149,"o":"m 24 -277 l -24 -277 l -24 984 l -115 892 l -149 925 l -33 1040 l -149 1154 l -115 1187 l 0 1071 l 115 1187 l 149 1154 l 33 1040 l 149 925 l 115 892 l 24 984 l 24 -277 z "},"◌":{"ha":825,"x_min":69,"x_max":756,"o":"m 665 623 q 632 589 665 589 q 597 623 597 589 q 632 656 597 656 q 665 623 665 656 m 564 689 q 532 656 564 656 q 496 689 496 656 q 532 724 496 724 q 564 689 564 724 m 732 522 q 697 488 732 488 q 664 522 664 488 q 699 555 664 555 q 732 522 732 555 m 756 404 q 724 370 756 370 q 688 404 688 370 q 724 438 688 438 q 756 404 756 438 m 446 714 q 412 680 446 680 q 378 714 378 680 q 412 747 378 747 q 446 714 446 747 m 329 689 q 294 656 329 656 q 261 689 261 656 q 294 724 261 724 q 329 689 329 724 m 732 286 q 697 253 732 253 q 664 286 664 253 q 697 321 664 321 q 732 286 732 321 m 229 623 q 195 589 229 589 q 161 621 161 589 q 195 656 161 656 q 229 623 229 656 m 665 184 q 632 151 665 151 q 597 184 597 151 q 632 219 597 219 q 665 184 665 219 m 564 118 q 532 85 564 85 q 496 118 496 85 q 532 153 496 153 q 564 118 564 153 m 161 522 q 129 488 161 488 q 94 522 94 488 q 127 555 94 555 q 161 522 161 555 m 137 404 q 104 370 138 370 q 69 404 69 370 q 104 438 69 438 q 137 404 138 438 m 446 96 q 412 61 446 61 q 378 96 378 61 q 412 129 378 129 q 446 96 446 129 m 161 286 q 127 253 161 253 q 94 286 94 253 q 127 321 94 321 q 161 286 161 321 m 329 121 q 294 85 329 85 q 261 118 261 85 q 294 153 261 153 q 329 121 329 153 m 229 184 q 195 151 229 151 q 161 184 161 151 q 195 219 161 219 q 229 184 229 219 z "},"͏":{"ha":0,"x_min":0,"x_max":0,"o":""},"⁠":{"ha":0,"x_min":0,"x_max":0,"o":""},"က":{"ha":1482,"x_min":81,"x_max":1401,"o":"m 438 711 q 536 698 490 711 q 621 661 582 685 q 692 605 661 637 q 746 531 724 572 q 798 606 768 572 q 866 662 827 639 q 950 698 904 686 q 1050 711 996 711 q 1193 682 1128 711 q 1304 604 1258 654 q 1376 489 1350 555 q 1401 348 1401 423 q 1375 205 1401 272 q 1302 90 1349 139 q 1192 12 1256 41 q 1050 -16 1127 -16 q 932 0 987 -16 l 957 85 q 1048 72 998 72 q 1152 94 1105 72 q 1231 153 1198 115 q 1281 240 1263 190 q 1299 347 1299 290 q 1282 454 1299 404 q 1232 542 1264 505 q 1153 601 1199 579 q 1050 623 1107 623 q 952 604 997 623 q 873 553 907 586 q 819 477 840 521 q 793 381 798 433 q 795 341 795 361 q 782 237 795 288 q 747 140 770 186 q 693 56 724 95 q 626 -12 663 18 l 563 54 q 614 109 591 77 q 656 178 638 141 q 683 257 673 216 q 693 340 693 298 q 674 453 693 401 q 622 543 656 505 q 542 602 589 581 q 438 623 494 623 q 335 602 382 623 q 254 543 288 581 q 202 453 220 505 q 183 340 183 401 q 193 257 183 298 q 220 178 203 216 q 262 109 238 141 q 313 54 286 77 l 250 -12 q 183 56 214 18 q 129 140 152 95 q 94 237 106 186 q 81 341 81 288 q 108 488 81 420 q 182 605 134 555 q 295 683 229 654 q 438 711 360 711 z "},"ခ":{"ha":833,"x_min":61,"x_max":752,"o":"m 650 347 q 632 454 650 404 q 580 542 614 505 q 498 601 546 579 q 392 623 451 623 q 250 582 311 623 q 152 471 190 541 l 74 512 q 127 592 96 555 q 198 655 158 629 q 287 696 238 682 q 392 711 335 711 q 538 682 472 711 q 652 604 604 654 q 726 489 699 555 q 752 348 752 423 q 726 205 752 272 q 652 90 699 139 q 539 12 605 41 q 395 -16 473 -16 q 276 2 332 -16 q 176 55 220 21 q 102 138 132 90 q 61 245 72 186 q 112 288 83 269 q 173 320 140 307 q 241 341 205 334 q 312 349 276 349 q 405 335 361 349 q 484 297 448 321 q 548 241 520 273 q 595 171 576 208 q 636 252 621 207 q 650 347 650 296 m 391 72 q 467 82 432 72 q 532 112 503 93 q 496 171 519 144 q 444 218 473 198 q 380 249 415 238 q 307 260 345 260 q 231 249 269 260 q 160 217 193 238 q 253 110 193 147 q 391 72 313 72 z "},"ဂ":{"ha":876,"x_min":81,"x_max":795,"o":"m 438 711 q 582 683 516 711 q 694 605 647 654 q 768 488 742 555 q 795 341 795 420 q 782 237 795 288 q 747 140 770 186 q 693 56 724 95 q 626 -12 663 18 l 563 54 q 614 109 591 77 q 656 178 638 141 q 683 257 673 216 q 693 340 693 298 q 674 453 693 401 q 622 543 656 505 q 542 602 589 581 q 438 623 494 623 q 335 602 382 623 q 254 543 288 581 q 202 453 220 505 q 183 340 183 401 q 193 257 183 298 q 220 178 203 216 q 262 109 238 141 q 313 54 286 77 l 250 -12 q 183 56 214 18 q 129 140 152 95 q 94 237 106 186 q 81 341 81 288 q 108 488 81 420 q 182 605 134 555 q 295 683 229 654 q 438 711 360 711 z "},"ဃ":{"ha":1464,"x_min":68,"x_max":1383,"o":"m 416 -16 q 276 9 338 -16 q 170 75 214 34 q 104 169 127 117 q 81 277 81 222 q 95 360 81 325 q 131 420 110 395 q 178 465 153 446 q 225 500 203 484 q 261 533 246 516 q 275 570 275 549 q 257 609 275 594 q 214 623 239 623 q 169 610 191 623 q 133 577 146 597 l 68 637 q 133 691 96 672 q 214 711 170 711 q 275 699 247 711 q 325 668 304 688 q 359 621 347 648 q 371 564 371 594 q 357 504 371 528 q 322 459 343 479 q 276 422 300 439 q 230 384 252 404 q 195 338 209 363 q 181 275 181 312 q 197 205 181 241 q 242 140 212 170 q 316 91 272 110 q 417 72 360 72 q 523 93 475 72 q 605 153 571 115 q 657 243 639 191 q 675 356 675 295 q 666 443 675 401 q 638 520 656 484 q 597 586 621 556 q 545 640 573 616 l 608 707 q 676 638 646 676 q 730 557 707 601 q 765 463 752 513 q 777 357 777 412 q 777 334 777 345 q 774 311 776 323 q 801 216 780 260 q 856 140 822 172 q 934 90 889 109 q 1031 72 979 72 q 1135 94 1088 72 q 1213 153 1181 115 q 1263 240 1246 190 q 1281 347 1281 290 q 1263 454 1281 404 q 1212 542 1245 505 q 1133 601 1179 579 q 1030 623 1087 623 q 939 610 980 623 l 913 694 q 1031 711 969 711 q 1173 682 1109 711 q 1284 605 1238 654 q 1357 489 1331 555 q 1383 347 1383 422 q 1357 205 1383 271 q 1286 90 1332 140 q 1175 12 1240 41 q 1031 -16 1110 -16 q 932 -4 978 -16 q 848 32 886 9 q 780 89 810 56 q 728 163 749 122 q 674 90 706 123 q 603 33 642 56 q 516 -3 563 9 q 416 -16 469 -16 z "},"င":{"ha":827,"x_min":81,"x_max":760,"o":"m 760 182 q 707 102 738 138 q 636 39 676 66 q 547 -2 596 13 q 438 -16 497 -16 q 295 12 360 -16 q 182 90 229 41 q 108 206 134 140 q 81 347 81 272 q 108 489 81 422 q 182 604 134 555 q 295 682 229 654 q 438 711 360 711 q 547 696 497 711 q 636 655 596 682 q 707 592 676 629 q 760 512 738 555 l 682 471 q 637 534 662 507 q 583 582 613 562 q 517 612 553 602 q 438 623 481 623 q 334 601 381 623 q 254 542 288 579 q 202 454 220 505 q 183 347 183 404 q 202 240 183 290 q 254 153 220 190 q 334 94 288 115 q 438 72 381 72 q 583 112 523 72 q 682 223 643 153 l 760 182 z "},"စ":{"ha":876,"x_min":81,"x_max":795,"o":"m 81 347 q 108 489 81 422 q 182 604 134 555 q 295 682 229 654 q 438 711 360 711 q 582 682 516 711 q 694 604 647 654 q 768 489 742 555 q 795 347 795 422 q 768 206 795 272 q 694 90 742 140 q 582 12 647 41 q 438 -16 516 -16 q 295 12 360 -16 q 182 90 229 41 q 108 206 134 140 q 81 347 81 272 m 438 72 q 542 94 495 72 q 622 153 589 115 q 674 240 656 190 q 693 347 693 290 q 674 454 693 404 q 622 542 656 505 q 542 601 589 579 q 438 623 495 623 q 383 617 409 623 q 333 600 357 611 q 424 490 391 555 q 458 347 458 425 q 424 203 458 269 q 332 94 390 138 q 382 78 355 83 q 438 72 409 72 m 183 347 q 203 236 183 288 q 260 146 223 184 q 332 233 305 180 q 359 347 359 286 q 332 461 359 408 q 260 549 305 514 q 203 459 223 511 q 183 347 183 407 z "},"ဆ":{"ha":1437,"x_min":61,"x_max":1356,"o":"m 700 526 l 703 526 q 753 602 723 568 q 822 660 783 636 q 906 697 860 684 q 1002 711 951 711 q 1144 682 1080 711 q 1256 604 1209 654 q 1330 489 1303 555 q 1356 347 1356 422 q 1330 206 1356 272 q 1256 90 1303 140 q 1144 12 1209 41 q 1002 -16 1080 -16 q 906 -3 951 -16 q 822 34 861 10 q 753 92 783 58 q 703 168 723 126 l 700 168 q 649 93 679 127 q 582 35 620 59 q 497 -3 543 10 q 395 -16 450 -16 q 276 2 332 -16 q 176 55 220 21 q 102 138 132 90 q 61 245 72 186 q 112 288 83 269 q 173 320 140 307 q 241 341 205 334 q 312 349 276 349 q 405 335 361 349 q 485 297 448 321 q 549 241 521 273 q 595 171 577 208 q 636 252 622 207 q 650 347 650 296 q 632 454 650 404 q 582 542 614 505 q 502 601 549 579 q 395 623 454 623 q 252 582 314 623 q 152 471 190 541 l 74 512 q 127 592 96 555 q 200 655 159 629 q 290 696 241 682 q 395 711 338 711 q 496 697 449 711 q 581 660 543 684 q 649 602 619 635 q 700 526 679 568 m 753 347 q 771 240 753 290 q 821 153 789 190 q 900 94 854 115 q 1002 72 946 72 q 1104 94 1058 72 q 1184 153 1151 115 q 1236 240 1217 190 q 1254 347 1254 290 q 1236 454 1254 404 q 1184 542 1217 505 q 1104 601 1151 579 q 1002 623 1058 623 q 900 601 946 623 q 821 542 854 579 q 771 454 789 505 q 753 347 753 404 m 392 72 q 469 82 435 72 q 533 111 503 92 q 497 171 519 143 q 445 218 474 198 q 380 249 415 238 q 307 260 345 260 q 231 249 269 260 q 160 217 193 238 q 253 110 193 147 q 392 72 313 72 z "},"ဇ":{"ha":909,"x_min":81,"x_max":855,"o":"m 650 474 q 627 541 648 513 q 577 587 607 568 q 510 614 547 605 q 439 623 474 623 q 334 601 381 623 q 253 542 287 579 q 201 454 220 504 q 183 347 183 404 q 201 240 183 290 q 254 153 220 190 q 336 94 288 115 q 443 72 384 72 q 546 91 498 72 q 628 146 593 110 l 687 81 q 580 9 642 35 q 441 -16 517 -16 q 295 12 361 -16 q 181 90 229 41 q 107 206 134 140 q 81 347 81 272 q 107 489 81 422 q 181 604 134 555 q 294 682 228 654 q 441 711 361 711 q 569 688 513 711 q 663 630 625 666 q 721 549 701 594 q 741 457 741 503 q 732 400 741 427 q 803 308 773 356 q 855 217 833 259 l 781 178 q 740 248 763 210 q 688 321 716 286 q 615 268 659 288 q 519 248 572 248 q 445 259 479 248 q 387 289 412 270 q 349 335 363 309 q 335 393 335 362 q 347 444 335 420 q 379 485 358 468 q 428 512 399 503 q 490 522 456 522 q 574 508 535 522 q 648 473 614 494 l 650 474 m 629 385 q 568 424 600 408 q 501 439 537 439 q 475 436 488 439 q 452 427 462 433 q 436 412 442 420 q 430 392 430 403 q 438 365 430 376 q 460 346 447 353 q 490 334 473 338 q 523 330 507 330 q 585 345 559 330 q 629 385 611 360 z "},"ဈ":{"ha":1134,"x_min":81,"x_max":1039,"o":"m 532 -413 l 532 -5 q 438 -16 486 -16 q 295 12 360 -16 q 182 90 229 41 q 108 206 134 140 q 81 347 81 272 q 108 489 81 422 q 182 604 134 555 q 295 682 229 654 q 438 711 360 711 q 582 682 516 711 q 694 604 647 654 q 768 489 742 555 q 795 347 795 422 q 783 252 795 298 q 750 165 772 205 q 696 92 728 125 q 627 35 665 59 l 627 -413 q 638 -479 627 -448 q 671 -532 650 -509 q 721 -568 692 -555 q 785 -581 750 -581 q 850 -568 821 -581 q 900 -532 879 -555 q 932 -479 921 -509 q 944 -413 944 -448 l 944 696 l 1039 696 l 1039 -413 q 1020 -513 1039 -466 q 968 -594 1002 -559 q 888 -649 935 -629 q 785 -669 841 -669 q 683 -649 729 -669 q 603 -594 636 -629 q 550 -513 569 -559 q 532 -413 532 -466 m 438 72 q 542 94 495 72 q 622 153 589 115 q 674 240 656 190 q 693 347 693 290 q 674 454 693 404 q 622 542 656 505 q 542 601 589 579 q 438 623 495 623 q 383 617 409 623 q 333 600 357 611 q 424 490 391 555 q 458 347 458 425 q 424 203 458 269 q 332 94 390 138 q 382 78 355 83 q 438 72 409 72 m 183 347 q 203 236 183 288 q 260 146 223 184 q 332 233 305 180 q 359 347 359 286 q 332 461 359 408 q 260 549 305 514 q 203 459 223 511 q 183 347 183 407 z "},"ဉ":{"ha":834,"x_min":75,"x_max":1321,"o":"m 999 -568 q 1111 -563 1067 -568 q 1179 -544 1154 -557 q 1214 -505 1204 -530 q 1223 -441 1223 -480 l 1223 -406 l 1321 -406 l 1321 -446 q 1302 -553 1321 -511 q 1244 -618 1284 -594 q 1142 -650 1204 -642 q 994 -659 1080 -659 l 412 -659 q 308 -656 355 -659 q 223 -644 261 -654 q 158 -615 186 -635 q 112 -564 130 -596 q 84 -482 93 -531 q 75 -364 75 -433 l 75 182 l 153 223 q 251 112 191 151 q 393 72 311 72 q 499 94 451 72 q 581 153 547 115 q 633 240 614 190 q 651 347 651 290 q 633 454 651 404 q 581 542 614 505 q 499 601 547 579 q 393 623 452 623 q 251 582 311 623 q 153 471 191 541 l 75 512 q 127 592 96 555 q 199 655 159 629 q 287 696 239 682 q 393 711 336 711 q 539 682 473 711 q 653 604 606 654 q 727 489 701 555 q 753 347 753 422 q 726 206 753 272 q 653 90 700 140 q 539 12 606 41 q 394 -16 473 -16 q 272 4 328 -16 q 173 56 216 24 l 173 -352 q 177 -440 173 -404 q 191 -500 181 -477 q 218 -538 201 -524 q 263 -558 236 -551 q 328 -566 290 -565 q 417 -568 366 -568 l 999 -568 z "},"ည":{"ha":1440,"x_min":75,"x_max":1359,"o":"m 998 -568 q 1110 -563 1066 -568 q 1179 -544 1154 -557 q 1213 -505 1204 -530 q 1223 -441 1223 -480 l 1223 -406 l 1320 -406 l 1320 -446 q 1302 -553 1320 -511 q 1243 -618 1283 -594 q 1142 -650 1204 -642 q 994 -659 1080 -659 l 412 -659 q 308 -656 355 -659 q 223 -644 261 -654 q 158 -615 186 -635 q 112 -564 130 -596 q 84 -482 93 -531 q 75 -364 75 -433 l 75 182 l 153 223 q 251 112 191 151 q 393 72 311 72 q 499 94 451 72 q 581 153 547 115 q 633 240 614 190 q 651 347 651 290 q 633 454 651 404 q 581 542 614 505 q 499 601 547 579 q 393 623 452 623 q 251 582 311 623 q 153 471 191 541 l 75 512 q 127 592 96 555 q 199 655 159 629 q 287 696 239 682 q 393 711 336 711 q 539 682 473 711 q 653 604 606 654 q 727 489 701 555 q 753 347 753 422 q 751 311 753 328 q 777 216 756 260 q 832 140 798 172 q 910 90 865 109 q 1008 72 955 72 q 1111 94 1065 72 q 1190 153 1157 115 q 1240 240 1222 190 q 1257 347 1257 290 q 1239 454 1257 404 q 1188 542 1221 505 q 1109 601 1156 579 q 1006 623 1063 623 q 915 610 956 623 l 890 694 q 1008 711 945 711 q 1149 682 1085 711 q 1260 605 1214 654 q 1333 489 1307 555 q 1359 347 1359 422 q 1334 205 1359 271 q 1262 90 1308 140 q 1151 12 1216 41 q 1008 -16 1086 -16 q 908 -4 954 -16 q 824 32 862 9 q 756 89 786 56 q 705 163 726 122 q 650 90 682 123 q 579 34 618 57 q 493 -3 539 10 q 394 -16 446 -16 q 272 4 328 -16 q 173 56 216 24 l 173 -352 q 177 -440 173 -404 q 191 -500 181 -477 q 218 -538 201 -524 q 263 -558 236 -551 q 328 -566 290 -565 q 417 -568 366 -568 l 998 -568 z "},"ဋ":{"ha":834,"x_min":81,"x_max":909,"o":"m 665 -652 l 665 -380 q 556 -402 613 -394 q 438 -410 500 -410 q 264 -392 343 -410 q 117 -340 185 -374 l 117 -15 q 257 -101 179 -70 q 438 -132 336 -132 q 665 -79 564 -132 l 665 64 q 567 5 622 26 q 438 -16 512 -16 q 295 12 360 -16 q 182 90 229 41 q 108 206 134 140 q 81 347 81 272 q 108 489 81 422 q 182 604 134 555 q 295 682 229 654 q 438 711 360 711 q 547 696 497 711 q 636 655 596 682 q 707 592 676 629 q 760 512 738 555 l 682 471 q 637 534 662 507 q 583 582 613 562 q 517 612 553 602 q 438 623 481 623 q 334 601 381 623 q 254 542 288 579 q 202 454 220 505 q 183 347 183 404 q 202 240 183 290 q 254 153 220 190 q 334 94 288 115 q 438 72 381 72 q 583 112 523 72 q 682 223 643 153 l 760 182 l 760 -127 q 612 -196 692 -172 q 439 -220 533 -220 q 321 -209 377 -220 q 212 -176 265 -197 l 212 -279 q 318 -311 263 -300 q 439 -321 373 -321 q 618 -298 539 -321 q 760 -236 698 -275 l 760 -557 l 909 -557 l 909 -652 l 665 -652 z "},"ဌ":{"ha":834,"x_min":81,"x_max":760,"o":"m 425 -422 q 377 -384 406 -399 q 307 -369 349 -369 q 219 -393 249 -369 q 189 -463 189 -416 q 206 -519 189 -498 q 254 -551 223 -540 q 325 -565 284 -562 q 414 -568 366 -568 q 538 -560 490 -568 q 614 -528 587 -553 q 651 -457 642 -503 q 661 -332 661 -410 l 661 57 q 561 3 616 22 q 440 -16 506 -16 q 295 12 361 -16 q 181 90 229 41 q 108 206 134 140 q 81 347 81 272 q 107 489 81 422 q 181 604 134 555 q 295 682 229 654 q 441 711 361 711 q 547 696 498 711 q 635 655 595 682 q 707 592 675 629 q 760 512 738 555 l 682 471 q 583 582 644 541 q 441 623 523 623 q 335 601 382 623 q 254 542 288 579 q 201 454 220 505 q 183 347 183 404 q 201 240 183 290 q 254 153 220 190 q 335 94 288 115 q 441 72 383 72 q 583 112 524 72 q 682 223 643 151 l 760 182 l 760 -344 q 740 -510 760 -448 q 678 -605 720 -572 q 571 -649 636 -638 q 415 -659 506 -659 q 330 -656 371 -659 q 252 -646 288 -654 q 186 -626 216 -639 q 135 -591 157 -612 q 102 -541 114 -570 q 90 -471 90 -511 q 105 -390 90 -425 q 149 -330 121 -355 q 217 -293 177 -306 q 307 -281 257 -281 q 418 -303 372 -281 q 490 -366 464 -326 l 425 -422 z "},"ဍ":{"ha":834,"x_min":75,"x_max":866,"o":"m 622 -652 l 622 -177 q 515 -209 570 -198 q 395 -220 459 -220 q 220 -196 300 -220 q 75 -129 140 -172 l 75 182 l 153 223 q 251 113 191 153 q 392 72 310 72 q 499 94 451 72 q 581 153 547 115 q 633 240 614 190 q 651 347 651 290 q 633 454 651 404 q 581 542 614 505 q 499 601 547 579 q 393 623 452 623 q 251 583 311 623 q 153 471 191 543 l 75 512 q 126 592 96 555 q 198 654 157 628 q 287 696 238 681 q 393 711 336 711 q 539 682 473 711 q 653 604 606 654 q 727 489 701 555 q 753 347 753 422 q 727 206 753 272 q 653 90 701 140 q 539 12 606 41 q 393 -16 473 -16 q 270 3 325 -16 q 170 60 214 23 l 170 -79 q 274 -117 218 -103 q 395 -132 330 -132 q 575 -101 496 -132 q 717 -11 655 -71 l 717 -557 l 866 -557 l 866 -652 l 622 -652 z "},"ဎ":{"ha":859,"x_min":68,"x_max":777,"o":"m 416 -16 q 276 9 338 -16 q 170 75 214 34 q 104 169 127 117 q 81 277 81 222 q 95 360 81 325 q 131 420 110 395 q 178 465 153 446 q 225 500 203 484 q 261 533 246 516 q 275 570 275 549 q 257 609 275 594 q 214 623 239 623 q 169 610 191 623 q 133 577 146 597 l 68 637 q 133 691 96 672 q 214 711 170 711 q 275 699 247 711 q 325 668 304 688 q 359 621 347 648 q 371 564 371 594 q 357 504 371 528 q 322 459 343 479 q 276 422 300 439 q 230 384 252 404 q 195 338 209 363 q 181 275 181 312 q 197 205 181 241 q 242 140 212 170 q 316 91 272 110 q 417 72 360 72 q 523 93 475 72 q 605 153 571 115 q 657 243 639 191 q 675 356 675 295 q 666 443 675 401 q 638 520 656 484 q 597 586 621 556 q 545 640 573 616 l 608 707 q 676 638 646 676 q 730 557 707 601 q 765 463 752 513 q 777 357 777 412 q 751 212 777 279 q 677 93 725 144 q 564 13 630 43 q 416 -16 497 -16 z "},"ဏ":{"ha":1611,"x_min":81,"x_max":1530,"o":"m 962 382 q 968 320 962 347 q 982 269 975 294 q 995 220 989 245 q 1001 164 1001 195 q 990 99 1001 132 q 957 41 980 66 q 896 0 933 16 q 806 -16 859 -16 q 715 0 753 -16 q 655 41 678 16 q 621 99 631 66 q 610 164 610 132 q 616 220 610 195 q 630 269 623 245 q 643 320 637 294 q 649 382 649 347 q 632 477 649 433 q 585 554 615 522 q 511 604 554 586 q 418 623 469 623 q 323 602 366 623 q 249 545 280 581 q 200 459 218 509 q 183 352 183 410 q 202 241 183 292 q 254 152 220 190 q 334 93 288 115 q 437 72 381 72 q 459 73 449 72 q 481 75 470 74 l 493 -12 q 438 -16 467 -16 q 295 12 360 -16 q 182 90 229 41 q 108 207 134 140 q 81 351 81 274 q 106 493 81 427 q 176 607 132 558 q 283 683 221 655 q 418 711 345 711 q 539 690 484 711 q 638 632 595 669 q 703 688 662 666 q 806 711 744 711 q 908 688 867 711 q 973 632 949 666 q 1072 690 1016 669 q 1194 711 1127 711 q 1329 683 1267 711 q 1435 607 1390 655 q 1505 493 1480 558 q 1530 351 1530 427 q 1503 207 1530 274 q 1430 90 1477 140 q 1317 12 1382 41 q 1173 -16 1251 -16 q 1118 -12 1145 -16 l 1130 75 q 1152 73 1141 74 q 1174 72 1162 72 q 1277 93 1230 72 q 1357 152 1324 115 q 1410 241 1391 190 q 1428 352 1428 292 q 1411 459 1428 410 q 1362 545 1394 509 q 1288 602 1331 581 q 1194 623 1245 623 q 1100 604 1143 623 q 1027 554 1057 586 q 979 477 996 522 q 962 382 962 433 m 747 383 q 742 317 747 345 q 729 264 736 288 q 716 217 722 239 q 710 170 710 195 q 715 134 710 152 q 732 103 721 117 q 762 80 744 89 q 806 72 780 72 q 849 80 831 72 q 879 103 867 89 q 896 134 890 117 q 901 170 901 152 q 896 217 901 195 q 883 264 890 239 q 870 317 876 288 q 864 383 864 345 q 877 479 864 433 q 914 563 890 524 q 873 606 902 589 q 806 623 845 623 q 738 606 766 623 q 697 563 709 589 q 734 479 721 524 q 747 383 747 433 z "},"တ":{"ha":1482,"x_min":81,"x_max":1401,"o":"m 81 347 q 108 489 81 422 q 182 604 134 555 q 295 682 229 654 q 438 711 360 711 q 536 697 490 711 q 621 661 582 684 q 692 604 661 637 q 746 531 724 570 q 798 606 768 572 q 866 662 827 639 q 950 698 904 686 q 1050 711 996 711 q 1193 682 1128 711 q 1304 604 1258 654 q 1376 489 1350 555 q 1401 348 1401 423 q 1375 205 1401 272 q 1302 90 1349 139 q 1192 12 1256 41 q 1050 -16 1127 -16 q 932 0 987 -16 l 957 85 q 1048 72 998 72 q 1152 94 1105 72 q 1231 153 1198 115 q 1281 240 1263 190 q 1299 347 1299 290 q 1282 454 1299 404 q 1232 542 1264 505 q 1153 601 1199 579 q 1050 623 1107 623 q 952 604 997 623 q 874 554 907 586 q 819 478 840 522 q 793 383 798 434 q 795 347 795 365 q 768 206 795 272 q 694 90 742 140 q 582 12 647 41 q 438 -16 516 -16 q 295 12 360 -16 q 182 90 229 41 q 108 206 134 140 q 81 347 81 272 m 183 347 q 202 240 183 290 q 254 153 220 190 q 334 94 288 115 q 438 72 381 72 q 542 94 495 72 q 622 153 589 115 q 674 240 656 190 q 693 347 693 290 q 674 454 693 404 q 622 542 656 505 q 542 601 589 579 q 438 623 495 623 q 334 601 381 623 q 254 542 288 579 q 202 454 220 505 q 183 347 183 404 z "},"ထ":{"ha":1471,"x_min":81,"x_max":1390,"o":"m 736 526 q 787 602 757 568 q 856 660 817 636 q 940 697 894 684 q 1036 711 985 711 q 1178 682 1114 711 q 1290 604 1243 654 q 1363 489 1337 555 q 1390 347 1390 422 q 1363 206 1390 272 q 1290 90 1337 140 q 1178 12 1243 41 q 1036 -16 1114 -16 q 940 -3 985 -16 q 856 34 895 10 q 787 92 817 58 q 736 168 757 126 l 734 168 q 683 92 713 126 q 615 34 653 58 q 532 -3 577 10 q 435 -16 486 -16 q 293 12 357 -16 q 181 90 228 41 q 107 206 134 140 q 81 347 81 272 q 107 489 81 422 q 181 604 134 555 q 293 682 228 654 q 435 711 357 711 q 532 697 486 711 q 615 660 577 684 q 684 602 654 636 q 734 526 713 568 l 736 526 m 787 347 q 805 240 787 290 q 855 153 823 190 q 934 94 888 115 q 1036 72 980 72 q 1138 94 1092 72 q 1218 153 1185 115 q 1270 240 1251 190 q 1288 347 1288 290 q 1270 454 1288 404 q 1218 542 1251 505 q 1138 601 1185 579 q 1036 623 1092 623 q 934 601 980 623 q 855 542 888 579 q 805 454 823 505 q 787 347 787 404 m 183 347 q 201 240 183 290 q 253 153 220 190 q 332 94 286 115 q 435 72 378 72 q 536 94 490 72 q 615 153 583 115 q 666 240 648 190 q 684 347 684 290 q 666 454 684 404 q 615 542 648 505 q 536 601 583 579 q 435 623 490 623 q 332 601 378 623 q 253 542 286 579 q 201 454 220 505 q 183 347 183 404 z "},"ဒ":{"ha":785,"x_min":71,"x_max":710,"o":"m 591 345 q 683 282 655 322 q 710 195 710 243 q 688 112 710 151 q 625 45 667 74 q 523 0 583 17 q 387 -16 463 -16 q 253 0 311 -16 q 156 43 195 16 q 95 108 116 71 q 71 187 73 145 l 173 187 q 189 142 176 163 q 228 106 202 121 q 293 81 254 90 q 387 72 332 72 q 481 81 439 72 q 551 105 522 90 q 594 143 579 121 q 608 191 608 165 q 596 235 608 214 q 561 271 584 256 q 502 295 537 286 q 421 304 467 304 l 402 304 l 402 392 l 421 392 q 505 401 469 392 q 563 426 540 410 q 597 462 586 441 q 608 505 608 483 q 551 591 608 559 q 389 623 493 623 q 295 613 334 623 q 230 589 256 604 q 192 552 205 573 q 176 507 179 531 l 75 507 q 97 587 77 549 q 157 651 117 624 q 254 695 196 679 q 389 711 312 711 q 522 696 463 711 q 623 656 581 682 q 687 592 665 629 q 710 509 710 555 q 704 463 710 486 q 683 419 697 440 q 647 379 669 397 q 591 349 624 361 l 591 345 z "},"ဓ":{"ha":876,"x_min":81,"x_max":795,"o":"m 81 354 q 108 494 81 429 q 182 608 134 559 q 295 683 229 656 q 438 711 360 711 q 582 683 516 711 q 694 608 647 656 q 768 494 742 559 q 795 354 795 429 q 768 209 795 276 q 694 91 742 141 q 582 13 647 41 q 438 -16 516 -16 q 295 13 360 -16 q 182 91 229 41 q 108 209 134 141 q 81 354 81 276 m 183 354 q 197 256 183 301 q 303 333 241 305 q 438 361 366 361 q 573 333 511 361 q 678 255 634 304 q 689 303 686 278 q 693 354 693 328 q 674 460 693 411 q 622 545 656 509 q 542 602 589 581 q 438 623 495 623 q 334 602 381 623 q 254 545 288 581 q 202 460 220 509 q 183 354 183 411 m 438 72 q 554 100 503 72 q 640 175 605 127 q 552 247 605 220 q 438 273 499 273 q 323 247 376 273 q 236 176 271 220 q 322 100 271 127 q 438 72 373 72 z "},"န":{"ha":758,"x_min":47,"x_max":704,"o":"m 361 -652 l 361 -16 q 229 0 287 -16 q 130 44 170 16 q 69 109 90 71 q 47 191 47 146 q 60 255 47 225 q 96 308 73 286 q 152 343 119 330 q 227 357 185 357 q 271 353 248 357 q 318 337 295 349 q 364 307 342 326 q 404 256 386 287 q 435 182 422 225 q 453 79 448 138 q 564 127 526 94 q 602 215 602 161 q 586 275 602 250 q 542 320 570 300 q 476 354 514 339 q 395 385 438 370 q 319 414 355 399 q 255 449 283 429 q 210 494 227 468 q 193 558 193 521 q 208 621 193 593 q 249 669 223 650 q 309 700 274 689 q 382 711 343 711 q 470 696 427 711 q 553 647 513 682 l 498 577 q 436 613 467 604 q 379 623 406 623 q 346 620 361 623 q 318 608 330 616 q 299 589 306 601 q 292 562 292 578 q 301 533 292 545 q 327 510 309 521 q 373 489 345 499 q 439 465 401 478 q 491 447 463 457 q 549 423 519 437 q 606 390 578 409 q 656 346 634 371 q 691 290 677 321 q 704 218 704 258 q 687 138 704 176 q 639 71 671 100 q 561 21 608 41 q 454 -9 514 0 l 454 -652 l 361 -652 m 229 270 q 193 263 208 270 q 166 246 177 257 q 150 220 155 235 q 144 190 144 206 q 158 143 144 164 q 199 106 172 122 q 267 82 227 91 q 361 72 308 73 q 342 170 356 132 q 311 231 329 208 q 271 261 292 253 q 229 270 250 270 z "},"ပ":{"ha":876,"x_min":81,"x_max":795,"o":"m 438 -16 q 295 12 360 -16 q 182 91 229 41 q 108 209 134 140 q 81 357 81 277 q 94 463 81 412 q 129 557 106 513 q 182 638 151 601 q 250 707 213 676 l 313 640 q 262 586 286 616 q 220 520 238 556 q 193 443 203 484 q 183 356 183 401 q 202 243 183 295 q 254 153 220 191 q 335 93 288 115 q 438 72 382 72 q 542 93 494 72 q 622 153 589 115 q 674 243 656 191 q 693 356 693 295 q 683 442 693 401 q 656 519 673 483 q 615 586 639 555 q 563 640 591 616 l 626 707 q 693 639 663 677 q 747 557 724 602 q 782 463 770 513 q 795 357 795 412 q 768 209 795 277 q 694 91 742 140 q 582 12 647 41 q 438 -16 516 -16 z "},"ဖ":{"ha":883,"x_min":81,"x_max":802,"o":"m 601 706 q 684 645 646 680 q 747 565 721 609 q 787 469 773 521 q 802 359 802 417 q 775 212 802 280 q 701 92 749 143 q 588 13 654 41 q 441 -16 522 -16 q 297 12 363 -16 q 183 91 231 41 q 108 209 135 141 q 81 357 81 277 q 94 463 81 412 q 129 557 106 513 q 183 639 152 602 q 250 707 214 677 l 313 640 q 261 586 285 616 q 220 519 237 555 q 193 442 203 483 q 183 357 183 401 q 202 243 183 296 q 255 153 221 191 q 336 94 289 115 q 441 72 384 72 q 522 84 484 72 q 590 120 559 97 q 532 171 558 141 q 486 236 505 200 q 456 313 467 272 q 445 399 445 355 q 457 491 445 445 q 489 578 469 537 q 538 652 510 618 q 601 706 567 686 m 700 362 q 674 489 700 434 q 605 588 649 543 q 559 499 575 549 q 543 398 543 449 q 551 331 543 363 q 572 271 558 299 q 605 220 586 243 q 648 182 625 197 q 687 265 673 219 q 700 362 700 311 z "},"ဗ":{"ha":883,"x_min":81,"x_max":802,"o":"m 441 500 q 491 507 467 500 q 533 527 515 513 q 562 560 551 541 q 572 606 572 580 q 550 675 572 638 l 613 707 q 688 635 654 674 q 748 551 723 596 q 787 456 773 507 q 802 351 802 406 q 775 208 802 275 q 700 91 748 141 q 586 13 652 41 q 441 -16 520 -16 q 297 13 363 -16 q 183 91 231 41 q 108 208 135 141 q 81 351 81 275 q 95 455 81 405 q 134 549 109 505 q 193 634 159 594 q 270 707 228 673 l 333 675 q 316 639 321 656 q 311 606 311 622 q 321 560 311 580 q 350 527 332 541 q 392 507 368 513 q 441 500 416 500 m 441 413 q 377 420 409 413 q 319 444 346 428 q 273 486 293 460 q 245 546 254 511 l 243 546 q 196 458 210 504 q 183 362 183 412 q 202 244 183 297 q 255 152 221 191 q 337 93 289 114 q 441 72 385 72 q 546 93 498 72 q 628 152 594 114 q 681 244 662 191 q 700 362 700 297 q 686 460 700 414 q 640 546 673 505 l 638 546 q 610 486 629 511 q 564 444 590 460 q 506 420 537 428 q 441 413 474 413 z "},"ဘ":{"ha":1434,"x_min":68,"x_max":1352,"o":"m 146 223 q 244 112 184 153 q 389 72 304 72 q 493 94 446 72 q 573 153 540 115 q 626 240 607 190 q 644 347 644 290 q 626 454 644 404 q 573 542 607 505 q 493 601 540 579 q 389 623 446 623 q 311 612 347 623 q 244 582 275 602 q 190 534 214 562 q 146 471 165 507 l 68 512 q 120 592 90 555 q 191 655 151 629 q 281 696 231 682 q 389 711 330 711 q 487 697 441 711 q 572 661 533 684 q 643 604 612 637 q 697 531 675 570 q 749 606 719 572 q 817 662 779 639 q 901 698 855 686 q 1001 711 947 711 q 1144 682 1080 711 q 1255 604 1209 654 q 1327 489 1301 555 q 1352 348 1352 423 q 1326 205 1352 272 q 1254 90 1300 139 q 1143 12 1207 41 q 1001 -16 1078 -16 q 883 0 939 -16 l 908 85 q 1000 72 949 72 q 1103 94 1057 72 q 1182 153 1149 115 q 1233 240 1215 190 q 1251 347 1251 290 q 1233 454 1251 404 q 1183 542 1215 505 q 1104 601 1150 579 q 1001 623 1058 623 q 903 604 948 623 q 825 554 859 586 q 770 478 791 522 q 744 383 749 434 q 746 347 746 365 q 720 206 746 272 q 646 90 693 140 q 533 12 598 41 q 389 -16 467 -16 q 281 -2 330 -16 q 191 39 231 13 q 120 102 151 66 q 68 182 90 138 l 146 223 z "},"မ":{"ha":876,"x_min":81,"x_max":795,"o":"m 438 -16 q 295 12 360 -16 q 182 91 229 41 q 108 209 134 140 q 81 357 81 277 q 94 463 81 412 q 129 557 106 513 q 182 638 151 601 q 250 707 213 676 l 313 640 q 262 586 286 616 q 220 520 238 556 q 193 443 203 484 q 183 356 183 401 q 187 304 183 329 q 197 256 191 279 q 303 333 241 305 q 438 361 365 361 q 573 333 511 361 q 678 255 634 304 q 689 304 686 279 q 693 356 693 329 q 683 442 693 401 q 656 519 673 483 q 615 586 639 555 q 563 640 591 616 l 626 707 q 693 639 663 677 q 747 557 724 602 q 782 463 770 513 q 795 357 795 412 q 768 209 795 277 q 694 91 742 140 q 582 12 647 41 q 438 -16 516 -16 m 438 72 q 554 99 503 72 q 640 175 605 127 q 552 247 605 220 q 438 273 499 273 q 323 247 376 273 q 236 176 271 220 q 322 99 271 127 q 438 72 373 72 z "},"ယ":{"ha":1482,"x_min":81,"x_max":1400,"o":"m 438 -16 q 295 12 360 -16 q 182 91 229 41 q 108 209 134 140 q 81 357 81 277 q 94 463 81 412 q 129 557 106 513 q 182 638 151 601 q 250 707 213 676 l 313 640 q 262 586 286 616 q 220 520 238 556 q 193 443 203 484 q 183 356 183 401 q 202 243 183 295 q 254 153 220 191 q 335 93 288 115 q 438 72 382 72 q 542 93 494 72 q 622 153 589 115 q 674 243 656 191 q 693 356 693 295 q 683 442 693 401 q 656 519 673 483 q 615 586 639 555 q 563 640 591 616 l 626 707 q 693 640 663 677 q 747 558 724 602 q 782 464 770 514 q 795 357 795 413 q 794 334 795 345 q 792 311 793 323 q 819 216 798 260 q 873 140 840 172 q 951 90 907 109 q 1049 72 996 72 q 1152 94 1106 72 q 1231 153 1198 115 q 1281 240 1263 190 q 1299 347 1299 290 q 1281 454 1299 404 q 1230 542 1263 505 q 1151 601 1197 579 q 1048 623 1105 623 q 956 610 998 623 l 931 694 q 1049 711 987 711 q 1191 682 1126 711 q 1302 605 1255 654 q 1374 489 1348 555 q 1400 347 1400 422 q 1375 205 1400 271 q 1303 90 1350 140 q 1193 12 1257 41 q 1049 -16 1128 -16 q 949 -4 996 -16 q 865 32 903 9 q 797 89 827 56 q 745 163 767 122 q 691 90 723 123 q 621 33 660 57 q 535 -3 581 9 q 438 -16 489 -16 z "},"ရ":{"ha":884,"x_min":81,"x_max":945,"o":"m 796 -561 l 945 -561 l 945 -652 l 697 -652 l 697 342 q 679 453 697 401 q 627 542 661 504 q 545 601 593 579 q 438 623 497 623 q 343 606 386 623 q 268 558 300 589 q 215 488 236 528 q 187 400 195 447 q 322 374 256 397 q 443 304 389 351 q 534 186 497 258 q 581 12 571 114 q 505 -10 542 -4 q 435 -16 468 -16 q 292 12 357 -16 q 180 90 227 41 q 107 205 133 139 q 81 347 81 271 q 107 489 81 422 q 179 604 132 555 q 292 682 226 654 q 438 711 357 711 q 584 682 518 711 q 697 604 650 654 q 770 488 745 555 q 796 343 796 420 l 796 -561 m 435 72 q 456 73 446 72 q 475 75 466 73 q 435 174 462 130 q 371 248 409 217 q 287 295 334 278 q 184 314 239 312 q 209 219 189 263 q 262 142 229 174 q 338 91 294 109 q 435 72 382 72 z "},"လ":{"ha":1483,"x_min":81,"x_max":1402,"o":"m 958 610 l 932 694 q 1044 711 985 711 q 1188 682 1122 711 q 1301 605 1254 654 q 1375 489 1349 555 q 1402 347 1402 422 q 1376 205 1402 271 q 1302 90 1350 140 q 1189 12 1255 41 q 1041 -16 1122 -16 q 927 2 976 -16 q 843 51 878 21 q 783 120 807 81 q 743 199 759 159 q 716 278 726 239 q 699 346 706 316 q 683 405 692 374 q 660 467 673 437 q 627 526 646 498 q 582 575 608 554 q 520 610 555 597 q 441 623 486 623 q 335 601 382 623 q 253 542 287 579 q 201 454 220 505 q 183 347 183 404 q 201 240 183 290 q 254 153 220 190 q 335 94 288 115 q 441 72 382 72 q 484 75 463 72 q 526 85 505 78 l 551 0 q 439 -16 498 -16 q 295 12 361 -16 q 182 90 229 41 q 108 205 134 139 q 81 348 81 272 q 107 489 81 423 q 181 604 134 555 q 295 682 229 654 q 443 711 361 711 q 557 692 508 711 q 643 644 606 674 q 704 576 679 614 q 746 497 729 538 q 773 418 762 457 q 791 349 784 379 q 807 290 798 321 q 828 229 815 259 q 858 170 840 198 q 902 119 876 141 q 962 85 928 98 q 1043 72 997 72 q 1149 94 1101 72 q 1230 153 1196 115 q 1282 240 1263 190 q 1300 347 1300 290 q 1282 454 1300 404 q 1230 542 1263 505 q 1148 601 1196 579 q 1042 623 1101 623 q 999 620 1021 623 q 958 610 978 616 z "},"ဝ":{"ha":876,"x_min":81,"x_max":795,"o":"m 81 347 q 108 489 81 422 q 182 604 134 555 q 295 682 229 654 q 438 711 360 711 q 582 682 516 711 q 694 604 647 654 q 768 489 742 555 q 795 347 795 422 q 768 206 795 272 q 694 90 742 140 q 582 12 647 41 q 438 -16 516 -16 q 295 12 360 -16 q 182 90 229 41 q 108 206 134 140 q 81 347 81 272 m 183 347 q 202 240 183 290 q 254 153 220 190 q 334 94 288 115 q 438 72 381 72 q 542 94 495 72 q 622 153 589 115 q 674 240 656 190 q 693 347 693 290 q 674 454 693 404 q 622 542 656 505 q 542 601 589 579 q 438 623 495 623 q 334 601 381 623 q 254 542 288 579 q 202 454 220 505 q 183 347 183 404 z "},"သ":{"ha":1434,"x_min":68,"x_max":1352,"o":"m 146 223 q 244 112 184 153 q 389 72 304 72 q 493 94 446 72 q 573 153 540 115 q 626 240 607 190 q 644 347 644 290 q 626 454 644 404 q 573 542 607 505 q 493 601 540 579 q 389 623 446 623 q 311 612 347 623 q 244 582 275 602 q 190 534 214 562 q 146 471 165 507 l 68 512 q 120 592 90 555 q 191 655 151 629 q 281 696 231 682 q 389 711 330 711 q 533 682 467 711 q 646 604 598 654 q 720 489 693 555 q 746 347 746 422 q 744 311 746 328 q 770 216 749 260 q 825 140 791 172 q 903 90 859 109 q 1001 72 948 72 q 1104 94 1058 72 q 1183 153 1150 115 q 1233 240 1215 190 q 1251 347 1251 290 q 1233 454 1251 404 q 1182 542 1215 505 q 1103 601 1149 579 q 1000 623 1057 623 q 908 610 949 623 l 883 694 q 1001 711 939 711 q 1143 682 1078 711 q 1254 605 1207 654 q 1326 489 1300 555 q 1352 347 1352 422 q 1327 205 1352 271 q 1255 90 1301 140 q 1144 12 1209 41 q 1001 -16 1080 -16 q 901 -4 947 -16 q 817 32 855 9 q 749 89 779 56 q 697 163 719 122 q 643 90 675 123 q 572 34 612 57 q 487 -3 533 10 q 389 -16 441 -16 q 281 -2 330 -16 q 191 39 231 13 q 120 102 151 66 q 68 182 90 138 l 146 223 z "},"ဟ":{"ha":1483,"x_min":81,"x_max":1402,"o":"m 438 -16 q 295 12 360 -16 q 182 91 229 41 q 108 209 134 140 q 81 357 81 277 q 94 463 81 412 q 129 557 106 513 q 182 638 151 601 q 250 707 213 676 l 313 640 q 262 586 286 616 q 220 520 238 556 q 193 443 203 484 q 183 356 183 401 q 202 243 183 295 q 254 153 220 191 q 335 93 288 115 q 438 72 382 72 q 542 93 494 72 q 622 153 589 115 q 674 243 656 191 q 693 356 693 295 q 683 442 693 401 q 656 519 673 483 q 615 586 639 555 q 563 640 591 616 l 626 707 q 698 633 665 674 q 753 543 730 591 q 872 665 796 620 q 1050 711 947 711 q 1194 682 1129 711 q 1305 604 1259 654 q 1376 489 1351 555 q 1402 348 1402 423 q 1376 205 1402 272 q 1303 90 1350 139 q 1192 12 1257 41 q 1050 -16 1128 -16 q 932 0 988 -16 l 958 85 q 1049 72 999 72 q 1152 94 1106 72 q 1231 153 1198 115 q 1282 240 1264 190 q 1300 347 1300 290 q 1282 454 1300 404 q 1232 542 1265 505 q 1154 601 1200 579 q 1050 623 1107 623 q 953 604 998 623 q 876 554 909 586 q 821 479 842 522 q 794 385 800 435 q 795 371 795 378 q 795 357 795 364 q 768 209 795 277 q 694 91 742 140 q 582 12 647 41 q 438 -16 516 -16 z "},"ဠ":{"ha":834,"x_min":81,"x_max":760,"o":"m 448 -568 q 554 -563 513 -568 q 619 -545 595 -558 q 652 -508 643 -532 q 661 -444 661 -484 l 661 -406 l 759 -406 l 759 -446 q 741 -553 759 -511 q 685 -618 723 -594 q 587 -650 646 -642 q 444 -659 527 -659 q 340 -657 387 -659 q 258 -645 294 -654 q 195 -617 222 -636 q 152 -567 169 -599 q 126 -486 134 -534 q 117 -368 117 -437 l 117 -15 q 257 -101 179 -70 q 438 -132 336 -132 q 665 -79 564 -132 l 665 64 q 567 5 622 26 q 438 -16 512 -16 q 295 12 360 -16 q 182 90 229 41 q 108 206 134 140 q 81 347 81 272 q 108 489 81 422 q 182 604 134 555 q 295 682 229 654 q 438 711 360 711 q 547 696 497 711 q 636 655 596 682 q 707 592 676 629 q 760 512 738 555 l 682 471 q 637 534 662 507 q 583 582 613 562 q 517 612 553 602 q 438 623 481 623 q 334 601 381 623 q 254 542 288 579 q 202 454 220 505 q 183 347 183 404 q 202 240 183 290 q 254 153 220 190 q 334 94 288 115 q 438 72 381 72 q 583 112 523 72 q 682 223 643 153 l 760 182 l 760 -127 q 612 -196 692 -172 q 439 -220 533 -220 q 321 -209 377 -220 q 212 -176 265 -197 l 212 -359 q 221 -480 212 -437 q 256 -542 231 -522 q 328 -564 282 -561 q 448 -568 374 -568 z "},"ဿ":{"ha":2040,"x_min":68,"x_max":1959,"o":"m 146 223 q 244 112 184 153 q 389 72 304 72 q 493 94 446 72 q 573 153 540 115 q 626 240 607 190 q 644 347 644 290 q 626 454 644 404 q 573 542 607 505 q 493 601 540 579 q 389 623 446 623 q 311 612 347 623 q 244 582 275 602 q 190 534 214 562 q 146 471 165 507 l 68 512 q 120 592 90 555 q 191 655 151 629 q 281 696 231 682 q 389 711 330 711 q 533 682 467 711 q 646 604 598 654 q 720 489 693 555 q 746 347 746 422 q 744 311 746 328 q 770 216 749 260 q 825 140 791 172 q 903 90 859 109 q 1001 72 948 72 q 1104 94 1058 72 q 1183 153 1150 115 q 1233 240 1215 190 q 1251 347 1251 290 q 1233 454 1251 404 q 1182 542 1215 505 q 1103 601 1149 579 q 1000 623 1057 623 q 908 610 949 623 l 883 694 q 1001 711 939 711 q 1143 682 1078 711 q 1254 605 1207 654 q 1326 489 1300 555 q 1352 347 1352 422 q 1350 311 1352 329 q 1377 216 1356 260 q 1432 140 1398 172 q 1510 90 1466 109 q 1607 72 1555 72 q 1710 94 1664 72 q 1789 153 1756 115 q 1839 240 1822 190 q 1857 347 1857 290 q 1839 454 1857 404 q 1788 542 1821 505 q 1709 601 1755 579 q 1606 623 1663 623 q 1514 610 1555 623 l 1489 694 q 1607 711 1545 711 q 1749 682 1685 711 q 1860 605 1813 654 q 1932 489 1906 555 q 1959 347 1959 422 q 1933 208 1959 274 q 1862 93 1908 142 q 1751 13 1815 43 q 1607 -16 1686 -16 q 1424 32 1500 -16 q 1305 161 1348 79 q 1252 89 1283 122 q 1182 33 1221 56 q 1098 -3 1143 9 q 1001 -16 1053 -16 q 901 -4 947 -16 q 817 32 855 9 q 749 89 779 56 q 697 163 719 121 q 643 90 675 123 q 572 34 612 57 q 487 -3 533 10 q 389 -16 441 -16 q 281 -2 330 -16 q 191 39 231 13 q 120 102 151 66 q 68 182 90 138 l 146 223 z "},"ၐ":{"ha":876,"x_min":81,"x_max":795,"o":"m 438 711 q 582 683 516 711 q 694 605 647 654 q 768 488 742 555 q 795 341 795 420 q 782 237 795 288 q 747 140 770 186 q 693 56 724 95 q 626 -12 663 18 l 563 54 q 614 109 591 77 q 656 178 638 141 q 683 257 673 216 q 693 340 693 298 q 674 453 693 401 q 622 543 656 505 q 542 602 589 581 q 438 623 494 623 q 335 602 382 623 q 254 543 288 581 q 202 453 220 505 q 183 340 183 401 q 193 257 183 298 q 220 178 203 216 q 262 109 238 141 q 313 54 286 77 l 250 -12 q 183 56 214 18 q 129 140 152 95 q 94 237 106 186 q 81 341 81 288 q 108 488 81 420 q 182 605 134 555 q 295 683 229 654 q 438 711 360 711 m 296 347 q 306 404 296 377 q 336 450 317 430 q 381 481 355 469 q 438 492 407 492 q 495 481 469 492 q 541 450 522 469 q 570 404 559 430 q 581 347 581 377 q 570 291 581 317 q 541 245 559 264 q 495 214 522 225 q 438 202 469 202 q 381 214 407 202 q 336 245 355 225 q 306 291 317 264 q 296 347 296 317 m 365 347 q 370 316 365 331 q 385 291 376 302 q 408 275 395 281 q 438 269 422 269 q 491 291 471 269 q 511 347 511 314 q 491 403 511 380 q 438 426 471 426 q 408 420 422 426 q 385 403 395 414 q 370 378 376 393 q 365 347 365 363 z "},"ၑ":{"ha":876,"x_min":81,"x_max":795,"o":"m 438 -16 q 295 12 360 -16 q 182 91 229 41 q 108 209 134 140 q 81 357 81 277 q 94 463 81 412 q 129 557 106 513 q 182 638 151 601 q 250 707 213 676 l 313 640 q 262 586 286 616 q 220 520 238 556 q 193 443 203 484 q 183 356 183 401 q 202 243 183 295 q 254 153 220 191 q 335 93 288 115 q 438 72 382 72 q 542 93 494 72 q 622 153 589 115 q 674 243 656 191 q 693 356 693 295 q 683 442 693 401 q 656 519 673 483 q 615 586 639 555 q 563 640 591 616 l 626 707 q 693 639 663 677 q 747 557 724 602 q 782 463 770 513 q 795 357 795 412 q 768 209 795 277 q 694 91 742 140 q 582 12 647 41 q 438 -16 516 -16 m 296 347 q 306 404 296 377 q 336 450 317 430 q 381 481 355 469 q 438 492 407 492 q 495 481 469 492 q 541 450 522 469 q 570 404 559 430 q 581 347 581 377 q 570 291 581 317 q 541 245 559 264 q 495 214 522 225 q 438 202 469 202 q 381 214 407 202 q 336 245 355 225 q 306 291 317 264 q 296 347 296 317 m 365 347 q 370 316 365 331 q 385 291 376 302 q 408 275 395 281 q 438 269 422 269 q 491 291 471 269 q 511 347 511 314 q 491 403 511 380 q 438 426 471 426 q 408 420 422 426 q 385 403 395 414 q 370 378 376 393 q 365 347 365 363 z "},"ၒ":{"ha":859,"x_min":81,"x_max":791,"o":"m 442 -16 q 295 12 361 -16 q 181 91 229 41 q 107 209 134 140 q 81 357 81 277 q 94 463 81 412 q 129 557 106 513 q 182 638 151 601 q 250 707 213 676 l 313 640 q 262 586 286 616 q 220 520 238 556 q 193 443 203 484 q 183 356 183 401 q 201 243 183 295 q 254 153 220 191 q 335 93 288 115 q 441 72 383 72 q 543 91 498 72 q 616 140 587 110 q 662 205 646 170 q 677 275 677 241 q 664 338 677 312 q 628 384 650 363 q 583 422 607 404 q 537 459 558 439 q 502 504 515 479 q 488 564 488 528 q 500 621 488 594 q 533 668 512 648 q 583 699 555 688 q 645 711 612 711 q 725 691 688 711 q 791 637 762 672 l 726 577 q 690 610 712 597 q 644 623 667 623 q 601 609 619 623 q 583 570 583 594 q 598 533 583 549 q 634 500 612 516 q 681 465 655 484 q 727 420 706 446 q 763 360 749 395 q 778 277 778 326 q 755 169 778 222 q 688 75 732 117 q 583 9 645 34 q 442 -16 520 -16 z "},"ၓ":{"ha":854,"x_min":44,"x_max":810,"o":"m 427 72 q 529 91 484 72 q 604 139 573 109 q 650 204 634 168 q 666 273 666 239 q 654 336 666 310 q 625 382 642 361 q 587 421 607 403 q 549 459 566 439 q 519 504 531 479 q 507 564 507 528 q 519 621 507 594 q 553 668 532 648 q 603 699 574 688 q 665 711 631 711 q 745 691 708 711 q 810 637 782 672 l 745 577 q 709 610 732 597 q 664 623 687 623 q 621 609 639 623 q 604 570 604 594 q 616 530 604 547 q 646 494 628 512 q 685 457 664 477 q 724 413 706 438 q 754 354 742 388 q 766 275 766 321 q 743 168 766 220 q 675 74 719 115 q 568 8 631 33 q 427 -16 505 -16 q 287 8 349 -16 q 180 74 224 33 q 112 168 136 115 q 88 275 88 220 q 100 354 88 321 q 131 413 113 388 q 170 457 149 438 q 209 494 191 477 q 239 530 227 512 q 251 570 251 547 q 233 609 251 594 q 191 623 216 623 q 145 610 168 623 q 109 577 123 597 l 44 637 q 110 691 73 672 q 190 711 146 711 q 252 699 223 711 q 301 668 280 688 q 335 621 323 648 q 347 564 347 594 q 335 504 347 528 q 306 459 323 479 q 268 421 288 439 q 230 382 248 403 q 200 336 212 361 q 189 273 189 310 q 204 204 189 239 q 251 139 220 168 q 326 91 281 109 q 427 72 370 72 z "},"ၔ":{"ha":833,"x_min":81,"x_max":772,"o":"m 183 347 q 201 240 183 290 q 254 153 220 190 q 335 94 288 115 q 441 72 382 72 q 583 113 523 72 q 682 223 644 154 l 760 182 q 707 102 738 138 q 635 39 675 66 q 547 -2 595 13 q 441 -16 498 -16 q 295 12 361 -16 q 182 90 229 41 q 108 205 134 140 q 81 347 81 271 q 108 489 81 422 q 181 605 134 555 q 294 682 229 654 q 439 711 360 711 q 558 692 502 711 q 658 639 614 673 q 732 556 702 605 q 772 449 762 508 q 722 407 750 426 q 661 374 693 388 q 593 353 628 361 q 522 346 557 346 q 429 359 472 346 q 349 397 385 373 q 285 453 313 421 q 239 524 257 486 q 197 443 212 487 q 183 347 183 398 m 442 623 q 366 612 401 623 q 300 582 330 602 q 337 523 314 550 q 389 476 359 496 q 453 445 418 456 q 526 434 488 434 q 603 445 565 434 q 673 477 640 456 q 580 585 640 547 q 442 623 521 623 z "},"ၕ":{"ha":840,"x_min":81,"x_max":786,"o":"m 321 72 q 358 82 342 72 q 385 107 374 92 q 400 141 395 122 q 406 179 406 161 l 502 179 q 508 142 503 161 q 523 107 513 123 q 548 82 533 92 q 585 72 564 72 q 621 80 606 72 q 648 103 637 89 q 667 136 660 117 q 677 175 674 155 l 770 162 q 752 95 765 127 q 718 38 740 63 q 663 -1 696 14 q 585 -16 630 -16 q 503 4 536 -16 q 454 55 470 24 l 451 55 q 402 4 435 24 q 326 -16 368 -16 q 227 11 271 -16 q 150 85 182 38 q 99 194 117 132 q 81 325 81 256 q 108 479 81 408 q 182 601 134 550 q 297 682 230 652 q 446 711 364 711 q 567 692 510 711 q 669 639 624 673 q 744 557 713 605 q 786 449 774 509 q 735 407 764 426 q 674 374 707 388 q 606 353 642 361 q 535 346 571 346 q 440 360 484 346 q 359 399 395 374 q 294 458 322 425 q 248 531 267 492 q 200 439 216 492 q 183 323 183 386 q 193 229 183 274 q 221 148 203 183 q 265 93 239 113 q 321 72 290 72 m 450 623 q 375 613 410 623 q 312 587 341 604 q 348 526 326 554 q 400 477 371 498 q 465 446 430 457 q 540 434 500 434 q 616 445 578 434 q 686 477 654 456 q 591 585 652 547 q 450 623 530 623 z "},"ၚ":{"ha":827,"x_min":81,"x_max":760,"o":"m 760 182 q 707 102 738 138 q 635 39 675 66 q 547 -2 595 13 q 441 -16 498 -16 q 295 12 361 -16 q 181 90 229 41 q 107 206 134 140 q 81 347 81 272 q 107 489 81 422 q 181 604 134 555 q 295 682 229 654 q 441 711 361 711 q 547 696 498 711 q 636 654 596 681 q 707 592 676 628 q 760 512 738 555 l 682 471 q 583 583 643 543 q 442 623 523 623 q 335 601 383 623 q 253 542 287 579 q 201 454 220 505 q 183 347 183 404 q 201 240 183 290 q 254 153 220 190 q 335 94 288 115 q 443 72 383 72 q 584 113 524 72 q 682 223 643 153 l 760 182 m 541 -598 q 460 -620 500 -620 q 410 -611 435 -620 q 367 -586 386 -602 q 337 -548 349 -570 q 326 -498 326 -526 q 338 -444 326 -469 q 370 -395 351 -418 q 411 -350 389 -372 q 453 -308 433 -329 q 485 -268 472 -288 q 497 -227 497 -248 q 480 -188 497 -203 q 438 -173 463 -173 q 394 -192 410 -173 q 378 -237 378 -212 l 290 -237 q 300 -179 290 -206 q 331 -131 311 -151 q 378 -98 351 -110 q 439 -85 406 -85 q 498 -97 471 -85 q 546 -129 526 -109 q 576 -173 566 -148 q 587 -226 587 -199 q 575 -282 587 -256 q 543 -331 562 -308 q 502 -374 524 -354 q 460 -414 479 -395 q 429 -453 441 -434 q 416 -491 416 -471 q 431 -523 416 -513 q 465 -533 446 -533 q 490 -529 477 -533 q 513 -520 503 -526 l 541 -598 z "},"ၛ":{"ha":1131,"x_min":81,"x_max":1029,"o":"m 522 -413 l 522 -7 q 483 -14 503 -12 q 441 -16 463 -16 q 295 12 361 -16 q 181 90 229 41 q 107 206 134 140 q 81 347 81 272 q 107 489 81 422 q 181 604 134 555 q 294 682 228 654 q 441 711 361 711 q 569 688 513 711 q 663 630 625 666 q 721 549 701 594 q 741 457 741 503 q 732 400 741 427 q 803 308 773 355 q 855 217 833 260 l 781 178 q 740 248 763 210 q 688 321 717 286 q 615 268 659 288 q 519 248 572 248 q 445 259 479 248 q 387 289 412 270 q 349 335 363 309 q 335 393 335 362 q 347 444 335 420 q 379 485 358 468 q 428 512 399 503 q 490 522 456 522 q 574 508 535 522 q 648 473 614 494 l 650 474 q 627 541 648 513 q 577 587 607 568 q 510 614 547 605 q 439 623 474 623 q 334 601 381 623 q 253 542 287 579 q 201 454 220 504 q 183 347 183 404 q 201 240 183 290 q 254 153 220 190 q 336 94 288 115 q 443 72 384 72 q 546 91 498 72 q 628 146 593 110 l 687 81 q 654 52 671 65 q 617 27 637 39 l 617 -413 q 629 -479 617 -448 q 661 -532 640 -509 q 711 -568 682 -555 q 776 -581 741 -581 q 840 -568 811 -581 q 890 -532 869 -555 q 923 -479 911 -509 q 935 -413 935 -448 l 935 696 l 1029 696 l 1029 -413 q 1011 -513 1029 -466 q 959 -594 992 -559 q 878 -649 925 -629 q 776 -669 831 -669 q 673 -649 720 -669 q 593 -594 627 -629 q 541 -513 559 -559 q 522 -413 522 -466 m 629 385 q 569 424 600 408 q 501 439 538 439 q 475 436 488 439 q 452 427 462 433 q 436 412 442 420 q 430 392 430 403 q 438 365 430 376 q 460 346 447 353 q 490 334 473 338 q 523 330 507 330 q 585 345 559 330 q 629 385 611 360 z "},"ၜ":{"ha":876,"x_min":81,"x_max":795,"o":"m 81 347 q 108 489 81 422 q 182 604 134 555 q 295 682 229 654 q 438 711 360 711 q 582 682 516 711 q 694 604 647 654 q 768 489 742 555 q 795 347 795 422 q 768 206 795 272 q 694 90 742 140 q 582 12 647 41 q 438 -16 516 -16 q 295 12 360 -16 q 182 90 229 41 q 108 206 134 140 q 81 347 81 272 m 183 347 q 202 240 183 290 q 254 153 220 190 q 334 94 288 115 q 438 72 381 72 q 542 94 495 72 q 622 153 589 115 q 674 240 656 190 q 693 347 693 290 q 674 454 693 404 q 622 542 656 505 q 542 601 589 579 q 438 623 495 623 q 334 601 381 623 q 254 542 288 579 q 202 454 220 505 q 183 347 183 404 m 296 347 q 306 404 296 377 q 336 450 317 430 q 381 481 355 469 q 438 492 407 492 q 495 481 469 492 q 541 450 522 469 q 570 404 559 430 q 581 347 581 377 q 570 291 581 317 q 541 245 559 264 q 495 214 522 225 q 438 202 469 202 q 381 214 407 202 q 336 245 355 225 q 306 291 317 264 q 296 347 296 317 m 365 347 q 370 316 365 331 q 385 291 376 302 q 408 275 395 281 q 438 269 422 269 q 491 291 471 269 q 511 347 511 314 q 491 403 511 380 q 438 426 471 426 q 408 420 422 426 q 385 403 395 414 q 370 378 376 393 q 365 347 365 363 z "},"ၝ":{"ha":876,"x_min":81,"x_max":795,"o":"m 438 -16 q 295 12 360 -16 q 182 91 229 41 q 108 209 134 140 q 81 357 81 277 q 94 463 81 412 q 129 557 106 513 q 182 638 151 601 q 250 707 213 676 l 313 640 q 262 586 286 616 q 220 520 238 556 q 193 443 203 484 q 183 356 183 401 q 187 304 183 329 q 197 256 191 279 q 303 333 241 305 q 438 361 365 361 q 573 333 511 361 q 678 255 634 304 q 689 304 686 279 q 693 356 693 329 q 683 442 693 401 q 656 519 673 483 q 615 586 639 555 q 563 640 591 616 l 626 707 q 693 639 663 677 q 747 557 724 602 q 782 463 770 513 q 795 357 795 412 q 786 268 795 310 q 760 188 777 226 l 760 -344 q 740 -510 760 -448 q 678 -605 720 -572 q 571 -649 636 -638 q 415 -659 506 -659 q 330 -656 371 -659 q 252 -646 288 -654 q 186 -626 216 -639 q 135 -591 157 -612 q 102 -541 114 -570 q 90 -471 90 -511 q 105 -390 90 -425 q 149 -330 121 -355 q 217 -293 177 -306 q 307 -281 257 -281 q 418 -303 372 -281 q 490 -366 464 -326 l 425 -422 q 377 -384 406 -399 q 307 -369 349 -369 q 219 -393 249 -369 q 189 -463 189 -416 q 206 -519 189 -498 q 254 -551 223 -540 q 325 -565 284 -562 q 414 -568 366 -568 q 539 -560 490 -568 q 615 -528 587 -553 q 652 -457 642 -503 q 663 -332 663 -410 l 663 61 q 561 4 617 24 q 438 -16 504 -16 m 438 72 q 554 99 503 72 q 640 175 605 127 q 552 247 605 220 q 438 273 499 273 q 323 247 376 273 q 236 176 271 220 q 322 99 271 127 q 438 72 373 72 z "},"ၡ":{"ha":897,"x_min":81,"x_max":808,"o":"m 333 -652 l 333 -561 l 482 -561 l 482 -14 q 458 -16 471 -15 q 435 -16 446 -16 q 292 13 357 -16 q 180 90 227 41 q 107 203 133 139 q 81 338 81 268 q 107 487 81 418 q 181 605 134 555 q 296 683 229 654 q 445 711 363 711 q 593 682 526 711 q 708 604 661 654 q 782 488 756 555 q 808 343 808 420 l 808 -652 l 711 -652 l 711 342 q 692 453 711 401 q 638 542 673 504 q 554 601 604 579 q 445 623 505 623 q 348 606 391 623 q 271 559 304 589 q 217 488 238 529 q 187 400 195 448 q 317 376 260 396 q 419 323 375 355 q 493 252 463 292 q 544 169 524 212 q 572 82 563 125 q 581 0 581 39 l 581 -652 l 333 -652 m 435 72 q 455 72 445 72 q 475 74 465 73 q 436 173 463 130 q 372 248 410 217 q 287 295 334 278 q 184 314 239 312 q 209 219 189 263 q 262 142 229 174 q 338 91 294 109 q 435 72 382 72 z "},"ၥ":{"ha":827,"x_min":68,"x_max":746,"o":"m 146 223 q 244 112 184 153 q 389 72 304 72 q 493 94 446 72 q 573 153 540 115 q 626 240 607 190 q 644 347 644 290 q 626 454 644 404 q 573 542 607 505 q 493 601 540 579 q 389 623 446 623 q 311 612 347 623 q 244 582 275 602 q 190 534 214 562 q 146 471 165 507 l 68 512 q 120 592 90 555 q 191 655 151 629 q 281 696 231 682 q 389 711 330 711 q 533 682 467 711 q 646 604 598 654 q 720 489 693 555 q 746 347 746 422 q 720 206 746 272 q 646 90 693 140 q 533 12 598 41 q 389 -16 467 -16 q 281 -2 330 -16 q 191 39 231 13 q 120 102 151 66 q 68 182 90 138 l 146 223 z "},"ၦ":{"ha":876,"x_min":81,"x_max":795,"o":"m 438 -16 q 295 12 360 -16 q 182 91 229 41 q 108 209 134 140 q 81 357 81 277 q 94 463 81 412 q 129 557 106 513 q 182 638 151 601 q 250 707 213 676 l 313 640 q 262 586 286 616 q 220 520 238 556 q 193 443 203 484 q 183 356 183 401 q 202 243 183 295 q 254 153 220 191 q 335 93 288 115 q 438 72 382 72 q 542 93 494 72 q 622 153 589 115 q 674 243 656 191 q 693 356 693 295 q 683 442 693 401 q 656 519 673 483 q 615 586 639 555 q 563 640 591 616 l 626 707 q 693 639 663 677 q 747 557 724 602 q 782 463 770 513 q 795 357 795 412 q 768 209 795 277 q 694 91 742 140 q 582 12 647 41 q 438 -16 516 -16 m 241 -652 l 241 -561 l 391 -561 l 391 11 l 486 11 l 486 -652 l 241 -652 z "},"ၮ":{"ha":1828,"x_min":81,"x_max":1747,"o":"m 438 711 q 529 700 486 711 q 610 667 572 688 q 691 700 648 688 q 784 711 734 711 q 882 698 836 711 q 967 661 928 685 q 1038 604 1006 637 q 1092 531 1069 571 q 1143 606 1114 572 q 1212 662 1173 639 q 1296 698 1250 686 q 1396 711 1342 711 q 1539 682 1474 711 q 1650 604 1604 654 q 1722 489 1696 555 q 1747 348 1747 423 q 1721 205 1747 272 q 1648 90 1695 139 q 1537 12 1602 41 q 1396 -16 1473 -16 q 1278 0 1333 -16 l 1303 85 q 1394 72 1342 72 q 1497 94 1451 72 q 1576 153 1544 115 q 1627 240 1609 190 q 1645 347 1645 290 q 1628 454 1645 404 q 1577 542 1610 505 q 1499 601 1545 579 q 1396 623 1453 623 q 1298 604 1343 623 q 1219 553 1253 586 q 1164 477 1185 521 q 1139 381 1143 433 q 1141 341 1141 361 q 1128 237 1141 288 q 1093 140 1116 186 q 1039 56 1070 95 q 972 -12 1008 18 l 909 54 q 960 109 937 77 q 1002 178 984 141 q 1029 257 1019 216 q 1039 340 1039 298 q 1020 453 1039 401 q 968 543 1002 505 q 887 602 935 581 q 784 623 840 623 q 690 606 733 623 q 767 487 740 555 q 795 341 795 419 q 782 237 795 288 q 747 140 770 186 q 693 56 724 95 q 626 -12 663 18 l 563 54 q 614 109 591 77 q 656 178 638 141 q 683 257 673 216 q 693 340 693 298 q 674 453 693 401 q 622 543 656 505 q 542 602 589 581 q 438 623 494 623 q 335 602 382 623 q 254 543 288 581 q 202 453 220 505 q 183 340 183 401 q 193 257 183 298 q 220 178 203 216 q 262 109 238 141 q 313 54 286 77 l 250 -12 q 183 56 214 18 q 129 140 152 95 q 94 237 106 186 q 81 341 81 288 q 108 488 81 420 q 182 605 134 555 q 295 683 229 654 q 438 711 360 711 z "},"ၯ":{"ha":1483,"x_min":81,"x_max":1402,"o":"m 438 -16 q 295 12 360 -16 q 182 91 229 41 q 108 209 134 140 q 81 357 81 277 q 94 463 81 412 q 129 557 106 513 q 182 638 151 601 q 250 707 213 676 l 313 640 q 262 586 286 616 q 220 520 238 556 q 193 443 203 484 q 183 356 183 401 q 202 243 183 295 q 254 153 220 191 q 335 93 288 115 q 438 72 382 72 q 542 93 494 72 q 622 153 589 115 q 674 243 656 191 q 693 356 693 295 q 683 442 693 401 q 656 519 673 483 q 615 586 639 555 q 563 640 591 616 l 626 707 q 698 633 665 674 q 753 543 730 591 q 872 665 796 620 q 1050 711 947 711 q 1194 682 1129 711 q 1305 604 1259 654 q 1376 489 1351 555 q 1402 348 1402 423 q 1376 205 1402 272 q 1303 90 1350 139 q 1192 12 1257 41 q 1050 -16 1128 -16 q 932 0 988 -16 l 958 85 q 1049 72 999 72 q 1152 94 1106 72 q 1231 153 1198 115 q 1282 240 1264 190 q 1300 347 1300 290 q 1282 454 1300 404 q 1232 542 1265 505 q 1154 601 1200 579 q 1050 623 1107 623 q 953 604 998 623 q 876 554 909 586 q 821 479 842 522 q 794 385 800 435 q 795 371 795 378 q 795 357 795 364 q 768 209 795 277 q 694 91 742 140 q 582 12 647 41 q 438 -16 516 -16 m 869 -652 l 869 -561 l 1018 -561 l 1018 11 l 1113 11 l 1113 -652 l 869 -652 z "},"ၰ":{"ha":1464,"x_min":68,"x_max":1383,"o":"m 416 -16 q 276 9 338 -16 q 170 75 214 34 q 104 169 127 117 q 81 277 81 222 q 95 360 81 325 q 131 420 110 395 q 178 465 153 446 q 225 500 203 484 q 261 533 246 516 q 275 570 275 549 q 257 609 275 594 q 214 623 239 623 q 169 610 191 623 q 133 577 146 597 l 68 637 q 133 691 96 672 q 214 711 170 711 q 275 699 247 711 q 325 668 304 688 q 359 621 347 648 q 371 564 371 594 q 357 504 371 528 q 322 459 343 479 q 276 422 300 439 q 230 384 252 404 q 195 338 209 363 q 181 275 181 312 q 197 205 181 241 q 242 140 212 170 q 316 91 272 110 q 417 72 360 72 q 523 93 475 72 q 605 153 571 115 q 657 243 639 191 q 675 356 675 295 q 666 443 675 401 q 638 520 656 484 q 597 586 621 556 q 545 640 573 616 l 608 707 q 676 638 646 676 q 730 557 707 601 q 765 463 752 513 q 777 357 777 412 q 777 334 777 345 q 774 311 776 323 q 801 216 780 260 q 856 140 822 172 q 934 90 889 109 q 1031 72 979 72 q 1135 94 1088 72 q 1213 153 1181 115 q 1263 240 1246 190 q 1281 347 1281 290 q 1263 454 1281 404 q 1212 542 1245 505 q 1133 601 1179 579 q 1030 623 1087 623 q 939 610 980 623 l 913 694 q 1031 711 969 711 q 1173 682 1109 711 q 1284 605 1238 654 q 1357 489 1331 555 q 1383 347 1383 422 q 1357 205 1383 271 q 1286 90 1332 140 q 1175 12 1240 41 q 1031 -16 1110 -16 q 932 -4 978 -16 q 848 32 886 9 q 780 89 810 56 q 728 163 749 122 q 674 90 706 123 q 603 33 642 56 q 516 -3 563 9 q 416 -16 469 -16 m 835 -652 l 835 -561 l 984 -561 l 984 11 l 1079 11 l 1079 -652 l 835 -652 z "},"ၵ":{"ha":858,"x_min":68,"x_max":777,"o":"m 417 623 q 316 604 360 623 q 242 555 272 585 q 197 489 212 525 q 181 419 181 453 q 195 357 181 382 q 230 311 209 331 q 276 273 252 290 q 322 235 300 255 q 357 191 343 216 q 371 131 371 165 q 359 73 371 100 q 325 26 347 46 q 275 -5 304 7 q 214 -16 247 -16 q 133 3 170 -16 q 68 57 96 22 l 133 117 q 169 84 146 98 q 214 71 191 71 q 257 86 239 71 q 275 124 275 100 q 261 162 275 145 q 225 195 246 178 q 178 230 203 211 q 131 274 153 248 q 95 335 110 300 q 81 418 81 370 q 104 525 81 473 q 170 619 127 578 q 276 686 214 661 q 416 711 338 711 q 562 683 496 711 q 676 605 629 654 q 750 489 724 556 q 777 342 777 421 q 764 237 777 288 q 729 141 751 186 q 675 57 707 96 q 608 -12 644 18 l 545 54 q 596 109 572 77 q 638 178 621 140 q 665 257 655 215 q 675 343 675 299 q 656 454 675 403 q 604 543 637 505 q 522 602 570 581 q 417 623 475 623 z "},"ၶ":{"ha":859,"x_min":71,"x_max":778,"o":"m 203 651 q 176 617 186 637 q 166 577 166 597 q 179 536 166 554 q 221 519 193 519 q 259 533 245 519 q 285 569 274 547 q 308 615 296 590 q 339 661 320 640 q 388 696 358 682 q 465 711 418 711 q 587 683 530 711 q 686 608 644 656 q 753 495 728 560 q 778 356 778 431 q 752 213 778 281 q 678 94 726 145 q 563 14 630 43 q 415 -16 496 -16 q 295 2 351 -16 q 193 55 238 21 q 118 138 149 90 q 77 245 87 186 q 127 288 99 269 q 189 320 156 307 q 256 341 221 334 q 328 349 292 349 q 422 334 378 349 q 502 296 466 320 q 566 238 538 271 q 612 165 594 204 q 660 253 644 204 q 676 355 676 302 q 659 459 676 411 q 614 544 642 508 q 548 602 585 581 q 471 623 511 623 q 417 609 437 623 q 384 574 397 595 q 358 528 370 553 q 330 483 347 504 q 289 448 314 462 q 222 434 263 434 q 157 445 185 434 q 110 475 129 456 q 81 520 91 494 q 71 576 71 546 q 88 649 71 616 q 136 710 105 682 l 203 651 m 410 72 q 486 82 451 72 q 549 110 520 92 q 513 170 536 142 q 461 217 491 197 q 397 249 432 237 q 323 260 361 260 q 246 249 284 260 q 176 217 208 238 q 271 110 210 147 q 410 72 332 72 z "},"ၷ":{"ha":880,"x_min":68,"x_max":798,"o":"m 428 711 q 581 682 512 711 q 697 602 649 653 q 772 483 745 551 q 798 335 798 414 q 783 225 798 277 q 740 130 768 174 q 674 50 713 85 q 591 -12 636 14 q 529 42 557 9 q 482 117 502 75 q 452 204 463 158 q 441 296 441 250 q 452 379 441 338 q 481 456 463 420 q 526 523 500 492 q 583 575 551 553 q 512 610 551 597 q 427 623 473 623 q 319 604 366 623 q 242 555 273 585 q 196 489 212 525 q 181 419 181 453 q 195 357 181 382 q 230 311 209 331 q 276 273 252 290 q 322 235 300 255 q 357 191 343 216 q 371 131 371 165 q 359 73 371 100 q 325 26 347 46 q 275 -5 304 7 q 214 -16 247 -16 q 133 3 170 -16 q 68 57 96 22 l 133 117 q 169 84 146 98 q 214 71 191 71 q 257 86 239 71 q 275 124 275 100 q 261 162 275 145 q 225 195 246 178 q 178 230 203 211 q 131 274 153 248 q 95 335 110 300 q 81 418 81 370 q 103 525 81 473 q 171 619 126 578 q 280 686 215 661 q 428 711 345 711 m 696 332 q 683 429 696 383 q 644 512 670 475 q 601 473 621 496 q 568 422 582 450 q 547 362 555 395 q 540 296 540 330 q 554 195 540 245 q 596 107 568 145 q 636 154 618 130 q 668 206 655 178 q 689 265 682 233 q 696 332 696 296 z "},"ၸ":{"ha":1482,"x_min":81,"x_max":1401,"o":"m 688 347 q 688 365 688 356 q 689 382 688 374 q 663 477 684 433 q 608 554 642 522 q 530 604 574 586 q 433 623 486 623 q 330 601 376 623 q 251 542 283 579 q 201 454 218 505 q 183 347 183 404 q 201 240 183 290 q 252 153 219 190 q 331 94 285 115 q 434 72 377 72 q 526 85 485 72 l 551 0 q 433 -16 494 -16 q 291 12 355 -16 q 180 90 227 41 q 107 205 134 139 q 81 348 81 272 q 107 489 81 423 q 178 604 132 555 q 289 682 224 654 q 433 711 354 711 q 532 698 486 711 q 616 662 578 686 q 684 606 654 639 q 736 531 714 572 q 790 604 758 570 q 861 661 822 637 q 947 697 901 684 q 1044 711 993 711 q 1188 682 1122 711 q 1301 604 1253 654 q 1375 489 1348 555 q 1401 347 1401 422 q 1375 206 1401 272 q 1301 90 1348 140 q 1188 12 1253 41 q 1044 -16 1122 -16 q 901 12 966 -16 q 788 90 836 41 q 714 206 741 140 q 688 347 688 272 m 789 347 q 808 240 789 290 q 860 153 827 190 q 941 94 894 115 q 1044 72 987 72 q 1148 94 1101 72 q 1229 153 1195 115 q 1281 240 1262 190 q 1299 347 1299 290 q 1281 454 1299 404 q 1229 542 1262 505 q 1148 601 1195 579 q 1044 623 1101 623 q 941 601 987 623 q 860 542 894 579 q 808 454 827 505 q 789 347 789 404 z "},"ၹ":{"ha":1482,"x_min":81,"x_max":1401,"o":"m 1401 347 q 1375 206 1401 272 q 1301 90 1348 140 q 1188 12 1253 41 q 1044 -16 1122 -16 q 901 13 966 -16 q 788 91 836 41 q 714 205 741 140 q 688 345 688 271 q 688 364 688 355 q 689 382 688 373 q 663 477 684 433 q 608 554 642 522 q 530 604 574 586 q 433 623 485 623 q 341 606 382 623 q 267 559 299 589 q 215 488 235 529 q 187 401 195 448 q 322 374 256 397 q 443 305 389 351 q 534 186 497 258 q 581 12 571 114 q 505 -10 542 -4 q 435 -16 468 -16 q 291 12 356 -16 q 180 90 227 41 q 107 205 133 139 q 81 348 81 272 q 106 489 81 423 q 178 604 132 555 q 290 682 224 654 q 435 711 355 711 q 533 698 487 711 q 616 662 578 686 q 684 606 654 639 q 736 532 714 573 q 790 604 758 571 q 862 661 822 637 q 947 697 901 684 q 1046 711 994 711 q 1188 682 1123 711 q 1301 604 1253 654 q 1375 489 1348 555 q 1401 347 1401 422 m 1299 347 q 1281 454 1299 404 q 1229 542 1262 505 q 1148 601 1195 579 q 1044 623 1101 623 q 941 601 987 623 q 860 542 894 579 q 808 454 827 505 q 789 347 789 404 q 808 240 789 290 q 860 153 827 190 q 941 94 894 115 q 1044 72 987 72 q 1148 94 1101 72 q 1229 153 1195 115 q 1281 240 1262 190 q 1299 347 1299 290 m 435 72 q 456 73 446 72 q 475 75 466 73 q 435 174 462 130 q 371 248 409 217 q 286 295 334 278 q 184 314 239 312 q 209 218 189 262 q 262 142 229 174 q 338 91 294 109 q 435 72 382 72 z "},"ၺ":{"ha":1499,"x_min":81,"x_max":1418,"o":"m 797 98 l 797 -561 l 949 -561 l 949 -652 l 699 -652 l 699 321 q 679 443 699 388 q 625 538 660 498 q 543 601 591 578 q 437 623 494 623 q 334 601 380 623 q 253 542 287 579 q 201 454 220 505 q 183 347 183 404 q 201 240 183 290 q 254 153 220 190 q 335 94 288 115 q 441 72 382 72 q 526 85 486 72 l 551 0 q 439 -16 498 -16 q 295 12 361 -16 q 182 90 229 41 q 108 205 134 139 q 81 348 81 272 q 107 489 81 423 q 180 604 134 555 q 293 682 227 654 q 437 711 358 711 q 583 682 517 711 q 695 602 648 652 q 770 484 743 551 q 800 339 797 416 q 824 232 802 281 q 881 148 845 183 q 964 92 916 112 q 1067 72 1012 72 q 1170 94 1124 72 q 1249 153 1216 115 q 1299 240 1281 190 q 1316 347 1316 290 q 1299 454 1316 404 q 1249 542 1281 505 q 1172 601 1217 579 q 1071 623 1126 623 q 1001 614 1038 623 q 931 583 964 605 l 886 662 q 966 697 921 684 q 1067 711 1012 711 q 1210 683 1145 711 q 1321 605 1275 654 q 1393 490 1367 556 q 1418 348 1418 424 q 1393 205 1418 272 q 1321 90 1367 139 q 1210 12 1275 41 q 1067 -16 1145 -16 q 910 15 979 -16 q 799 100 842 46 l 797 98 z "},"ၻ":{"ha":1482,"x_min":81,"x_max":1401,"o":"m 81 347 q 108 489 81 422 q 182 604 134 555 q 294 682 229 654 q 437 711 359 711 q 535 697 488 711 q 621 661 581 684 q 692 604 660 637 q 746 532 724 571 q 798 606 768 573 q 866 662 828 639 q 950 698 904 686 q 1048 711 996 711 q 1193 682 1128 711 q 1304 604 1258 654 q 1376 489 1350 555 q 1401 348 1401 423 q 1375 205 1401 272 q 1303 90 1350 139 q 1191 12 1256 41 q 1048 -16 1126 -16 q 978 -10 1015 -16 q 902 12 941 -4 q 948 186 911 114 q 1040 305 985 258 q 1160 374 1094 351 q 1295 401 1227 397 q 1267 488 1288 448 q 1215 559 1246 529 q 1142 606 1183 589 q 1050 623 1100 623 q 952 604 997 623 q 874 554 907 586 q 819 477 840 522 q 793 382 798 433 q 795 345 795 364 q 768 205 795 271 q 694 91 742 140 q 582 13 647 41 q 438 -16 516 -16 q 295 12 360 -16 q 182 90 229 41 q 108 206 134 140 q 81 347 81 272 m 183 347 q 202 240 183 290 q 254 153 220 190 q 334 94 288 115 q 438 72 381 72 q 542 94 495 72 q 622 153 589 115 q 674 240 656 190 q 693 347 693 290 q 674 454 693 404 q 622 542 656 505 q 542 601 589 579 q 438 623 495 623 q 334 601 381 623 q 254 542 288 579 q 202 454 220 505 q 183 347 183 404 m 1048 72 q 1144 91 1101 72 q 1220 142 1187 109 q 1272 218 1253 174 q 1297 314 1292 262 q 1196 295 1243 312 q 1111 248 1148 278 q 1046 174 1073 217 q 1006 75 1019 130 q 1027 73 1017 73 q 1048 72 1037 72 z "},"ၼ":{"ha":1402,"x_min":61,"x_max":1341,"o":"m 700 526 l 703 526 q 753 602 724 568 q 822 660 783 635 q 906 697 860 684 q 1007 711 953 711 q 1113 696 1063 711 q 1202 655 1162 682 q 1275 592 1243 629 q 1329 512 1307 555 l 1251 471 q 1151 582 1213 541 q 1007 623 1088 623 q 901 601 948 623 q 821 542 854 579 q 770 454 788 505 q 752 347 752 404 q 766 252 752 296 q 807 171 781 208 q 853 241 825 208 q 918 297 882 273 q 998 335 954 321 q 1090 349 1041 349 q 1162 341 1126 349 q 1230 320 1197 334 q 1291 288 1262 307 q 1341 245 1319 269 q 1301 138 1331 186 q 1226 55 1271 90 q 1126 2 1182 21 q 1007 -16 1070 -16 q 906 -3 952 -16 q 821 35 859 10 q 753 93 783 59 q 703 168 724 127 l 700 168 q 649 93 679 127 q 582 35 620 59 q 497 -3 543 10 q 395 -16 450 -16 q 276 2 332 -16 q 176 55 220 21 q 102 138 132 90 q 61 245 72 186 q 112 288 83 269 q 173 320 140 307 q 241 341 205 334 q 312 349 276 349 q 405 335 361 349 q 485 297 448 321 q 549 241 521 273 q 595 171 577 208 q 636 252 622 208 q 650 347 650 296 q 632 454 650 404 q 582 542 614 505 q 502 601 549 579 q 395 623 454 623 q 252 582 314 623 q 152 471 190 541 l 74 512 q 127 592 96 555 q 200 655 159 629 q 290 696 241 682 q 395 711 339 711 q 496 697 450 711 q 581 660 543 684 q 649 602 619 635 q 700 526 679 568 m 392 72 q 469 82 435 72 q 533 111 503 92 q 497 171 519 143 q 445 218 474 198 q 380 249 415 238 q 307 260 345 260 q 231 249 269 260 q 160 217 193 238 q 253 110 193 147 q 392 72 313 72 m 1010 72 q 1149 110 1090 72 q 1242 217 1209 147 q 1172 249 1210 238 q 1095 260 1134 260 q 1022 249 1057 260 q 958 218 987 238 q 906 171 928 198 q 869 111 883 143 q 933 82 900 92 q 1010 72 967 72 z "},"ၽ":{"ha":1428,"x_min":68,"x_max":1367,"o":"m 735 537 q 785 608 755 576 q 852 663 814 640 q 935 698 890 686 q 1032 711 980 711 q 1138 696 1088 711 q 1227 655 1187 682 q 1300 592 1268 629 q 1354 512 1332 555 l 1276 471 q 1176 582 1238 541 q 1032 623 1114 623 q 926 601 973 623 q 847 542 880 579 q 796 454 814 505 q 779 347 779 404 q 832 171 779 243 q 879 241 850 208 q 943 297 907 273 q 1023 335 979 321 q 1116 349 1066 349 q 1187 341 1152 349 q 1255 320 1222 334 q 1316 288 1287 307 q 1367 245 1344 269 q 1326 138 1356 186 q 1252 55 1296 90 q 1151 2 1207 21 q 1032 -16 1095 -16 q 931 -3 977 -16 q 846 35 884 10 q 778 93 808 59 q 728 168 749 127 l 725 168 q 672 93 703 127 q 603 35 642 59 q 517 -3 564 10 q 416 -16 470 -16 q 276 9 338 -16 q 170 75 214 34 q 104 169 127 117 q 81 277 81 222 q 95 360 81 325 q 131 420 110 395 q 178 465 153 446 q 225 500 203 484 q 261 533 246 516 q 275 570 275 549 q 257 609 275 594 q 214 623 239 623 q 169 610 191 623 q 133 577 146 597 l 68 637 q 133 691 96 672 q 214 711 170 711 q 275 699 247 711 q 325 668 304 688 q 359 621 347 648 q 371 564 371 594 q 357 504 371 528 q 322 459 343 479 q 276 422 300 439 q 230 384 252 404 q 195 338 209 363 q 181 275 181 312 q 197 205 181 241 q 242 140 212 170 q 316 91 272 110 q 417 72 360 72 q 523 93 475 72 q 605 153 571 115 q 657 243 639 191 q 675 356 675 295 q 666 443 675 401 q 638 520 656 484 q 597 586 621 556 q 545 640 573 616 l 607 707 q 680 631 648 673 q 732 537 711 588 l 735 537 m 1036 72 q 1175 110 1116 72 q 1267 217 1234 147 q 1197 249 1235 238 q 1120 260 1159 260 q 1047 249 1082 260 q 983 218 1013 238 q 931 171 954 198 q 895 111 908 143 q 959 82 925 92 q 1036 72 992 72 z "},"ၾ":{"ha":1428,"x_min":68,"x_max":1367,"o":"m 735 537 q 785 608 755 576 q 852 663 814 640 q 935 698 890 686 q 1032 711 980 711 q 1138 696 1088 711 q 1227 655 1187 682 q 1300 592 1268 629 q 1354 512 1332 555 l 1276 471 q 1176 582 1238 541 q 1032 623 1114 623 q 926 601 973 623 q 847 542 880 579 q 796 454 814 505 q 779 347 779 404 q 832 171 779 243 q 879 241 850 208 q 943 297 907 273 q 1023 335 979 321 q 1116 349 1066 349 q 1187 341 1152 349 q 1255 320 1222 334 q 1316 288 1287 307 q 1367 245 1344 269 q 1326 138 1356 186 q 1252 55 1296 90 q 1151 2 1207 21 q 1032 -16 1095 -16 q 931 -3 977 -16 q 846 35 884 10 q 778 93 808 59 q 728 168 749 127 l 725 168 q 672 93 703 127 q 603 35 642 59 q 517 -3 564 10 q 416 -16 470 -16 q 276 9 338 -16 q 170 75 214 34 q 104 169 127 117 q 81 277 81 222 q 95 360 81 325 q 131 420 110 395 q 178 465 153 446 q 225 500 203 484 q 261 533 246 516 q 275 570 275 549 q 257 609 275 594 q 214 623 239 623 q 169 610 191 623 q 133 577 146 597 l 68 637 q 133 691 96 672 q 214 711 170 711 q 275 699 247 711 q 325 668 304 688 q 359 621 347 648 q 371 564 371 594 q 357 504 371 528 q 322 459 343 479 q 276 422 300 439 q 230 384 252 404 q 195 338 209 363 q 181 275 181 312 q 197 205 181 241 q 242 140 212 170 q 316 91 272 110 q 417 72 360 72 q 523 93 475 72 q 605 153 571 115 q 657 243 639 191 q 675 356 675 295 q 666 443 675 401 q 638 520 656 484 q 597 586 621 556 q 545 640 573 616 l 607 707 q 680 631 648 673 q 732 537 711 588 l 735 537 m 1036 72 q 1175 110 1116 72 q 1267 217 1234 147 q 1197 249 1235 238 q 1120 260 1159 260 q 1047 249 1082 260 q 983 218 1013 238 q 931 171 954 198 q 895 111 908 143 q 959 82 925 92 q 1036 72 992 72 m 836 -652 l 836 -561 l 985 -561 l 985 11 l 1080 11 l 1080 -652 l 836 -652 z "},"ၿ":{"ha":883,"x_min":81,"x_max":802,"o":"m 442 72 q 547 94 499 72 q 628 153 594 115 q 681 243 662 191 q 700 357 700 296 q 690 442 700 401 q 663 519 680 483 q 622 586 646 555 q 570 640 598 616 l 633 707 q 700 639 669 677 q 754 557 731 602 q 789 463 777 513 q 802 357 802 412 q 775 209 802 277 q 700 91 748 141 q 586 12 652 41 q 441 -16 520 -16 q 295 13 361 -16 q 182 92 229 41 q 108 212 134 143 q 81 359 81 280 q 96 469 81 417 q 136 565 110 521 q 199 645 162 609 q 282 706 236 680 q 344 652 315 686 q 394 578 373 618 q 426 491 414 537 q 438 399 438 445 q 427 313 438 355 q 397 236 416 272 q 351 171 378 200 q 293 120 324 141 q 361 84 323 97 q 442 72 398 72 m 183 362 q 196 265 183 311 q 235 182 210 219 q 278 220 258 197 q 311 271 297 243 q 332 331 325 299 q 340 398 340 363 q 323 499 340 449 q 278 588 307 549 q 209 489 234 543 q 183 362 183 434 z "},"ႀ":{"ha":1440,"x_min":61,"x_max":1358,"o":"m 650 347 q 632 454 650 404 q 580 542 614 505 q 498 601 546 579 q 392 623 451 623 q 250 582 311 623 q 152 471 190 541 l 74 512 q 127 592 96 555 q 198 655 158 629 q 287 696 238 682 q 392 711 335 711 q 538 682 472 711 q 652 604 604 654 q 726 489 699 555 q 752 348 752 423 q 750 311 752 330 q 777 216 755 260 q 831 140 798 172 q 909 90 865 109 q 1007 72 954 72 q 1110 94 1064 72 q 1189 153 1156 115 q 1239 240 1221 190 q 1257 347 1257 290 q 1239 454 1257 404 q 1188 542 1221 505 q 1109 601 1155 579 q 1006 623 1063 623 q 914 610 956 623 l 889 694 q 1007 711 945 711 q 1149 682 1084 711 q 1260 605 1213 654 q 1332 489 1306 555 q 1358 347 1358 422 q 1333 205 1358 271 q 1261 90 1308 140 q 1151 12 1215 41 q 1007 -16 1086 -16 q 823 32 900 -16 q 704 162 747 80 q 650 90 682 122 q 578 33 618 57 q 493 -3 539 9 q 395 -16 446 -16 q 276 2 332 -16 q 176 55 220 21 q 102 138 132 90 q 61 245 72 186 q 112 288 83 269 q 173 320 140 307 q 241 341 205 334 q 312 349 276 349 q 405 335 361 349 q 484 297 448 321 q 548 241 520 273 q 595 171 576 208 q 636 252 621 207 q 650 347 650 296 m 391 72 q 467 82 432 72 q 532 112 503 93 q 496 171 519 144 q 444 218 473 198 q 380 249 415 238 q 307 260 345 260 q 231 249 269 260 q 160 217 193 238 q 253 110 193 147 q 391 72 313 72 z "},"ႁ":{"ha":876,"x_min":81,"x_max":795,"o":"m 438 711 q 582 683 516 711 q 694 605 647 654 q 768 488 742 555 q 795 341 795 420 q 782 237 795 288 q 747 140 770 186 q 693 56 724 95 q 626 -12 663 18 l 563 54 q 614 109 591 77 q 656 178 638 141 q 683 257 673 216 q 693 340 693 298 q 674 453 693 401 q 622 543 656 505 q 542 602 589 581 q 438 623 494 623 q 335 602 382 623 q 254 543 288 581 q 202 453 220 505 q 183 340 183 401 q 193 257 183 298 q 220 178 203 216 q 262 109 238 141 q 313 54 286 77 l 250 -12 q 183 56 214 18 q 129 140 152 95 q 94 237 106 186 q 81 341 81 288 q 108 488 81 420 q 182 605 134 555 q 295 683 229 654 q 438 711 360 711 m 241 -652 l 241 -561 l 391 -561 l 391 -102 l 486 -102 l 486 -652 l 241 -652 z "},"ႎ":{"ha":876,"x_min":81,"x_max":795,"o":"m 81 340 q 108 486 81 418 q 182 603 134 553 q 295 682 229 653 q 438 711 360 711 q 582 682 516 711 q 694 603 647 653 q 768 486 742 553 q 795 340 795 418 q 768 200 795 265 q 694 87 742 135 q 582 11 647 39 q 438 -16 516 -16 q 295 11 360 -16 q 182 87 229 39 q 108 200 134 135 q 81 340 81 265 m 183 340 q 202 234 183 283 q 254 149 220 185 q 334 93 288 113 q 438 72 381 72 q 542 93 495 72 q 622 149 589 113 q 674 234 656 185 q 693 340 693 283 q 689 391 693 366 q 678 439 686 416 q 573 361 634 390 q 438 333 511 333 q 303 361 366 333 q 197 438 241 389 q 183 340 183 392 m 438 623 q 322 595 373 623 q 236 519 271 567 q 323 447 271 473 q 438 421 376 421 q 552 448 499 421 q 640 519 605 474 q 554 595 605 567 q 438 623 503 623 z "},"ꩠ":{"ha":1482,"x_min":81,"x_max":1401,"o":"m 438 711 q 536 698 490 711 q 621 661 582 685 q 692 605 661 637 q 746 531 724 572 q 798 606 768 572 q 866 662 828 639 q 950 698 904 686 q 1048 711 996 711 q 1193 682 1128 711 q 1304 604 1258 654 q 1376 489 1350 555 q 1401 348 1401 423 q 1375 205 1401 272 q 1303 90 1350 139 q 1191 12 1256 41 q 1048 -16 1126 -16 q 978 -10 1015 -16 q 902 12 941 -4 q 948 186 911 114 q 1040 305 985 258 q 1160 374 1094 351 q 1295 401 1227 397 q 1267 488 1288 448 q 1215 559 1246 529 q 1142 606 1183 589 q 1050 623 1100 623 q 952 604 997 623 q 873 553 907 586 q 819 477 840 521 q 793 381 798 433 q 795 341 795 361 q 782 237 795 288 q 747 140 770 186 q 693 56 724 95 q 626 -12 663 18 l 563 54 q 614 109 591 77 q 656 178 638 141 q 683 257 673 216 q 693 340 693 298 q 674 453 693 401 q 622 543 656 505 q 542 602 589 581 q 438 623 494 623 q 335 602 382 623 q 254 543 288 581 q 202 453 220 505 q 183 340 183 401 q 193 257 183 298 q 220 178 203 216 q 262 109 238 141 q 313 54 286 77 l 250 -12 q 183 56 214 18 q 129 140 152 95 q 94 237 106 186 q 81 341 81 288 q 108 488 81 420 q 182 605 134 555 q 295 683 229 654 q 438 711 360 711 m 1048 72 q 1144 91 1101 72 q 1220 142 1187 109 q 1272 218 1253 174 q 1297 314 1292 262 q 1196 295 1243 312 q 1111 248 1148 278 q 1046 174 1073 217 q 1006 75 1019 130 q 1027 73 1017 73 q 1048 72 1037 72 z "},"ꩡ":{"ha":1461,"x_min":68,"x_max":1380,"o":"m 730 160 q 608 -12 689 53 l 545 54 q 596 109 572 77 q 638 178 621 140 q 665 257 655 215 q 675 343 675 299 q 656 454 675 403 q 604 543 637 505 q 522 602 570 581 q 417 623 475 623 q 316 604 360 623 q 242 555 272 585 q 197 489 212 525 q 181 419 181 453 q 195 357 181 382 q 230 311 209 331 q 276 273 252 290 q 322 235 300 255 q 357 191 343 216 q 371 131 371 165 q 359 73 371 100 q 325 26 347 46 q 275 -5 304 7 q 214 -16 247 -16 q 133 3 170 -16 q 68 57 96 22 l 133 117 q 169 84 146 98 q 214 71 191 71 q 257 86 239 71 q 275 124 275 100 q 261 162 275 145 q 225 195 246 178 q 178 230 203 211 q 131 274 153 248 q 95 335 110 300 q 81 418 81 370 q 104 525 81 473 q 170 619 127 578 q 276 686 214 661 q 416 711 338 711 q 517 697 469 711 q 604 660 564 684 q 673 602 643 636 q 724 526 704 568 l 727 526 q 778 602 747 568 q 846 660 808 636 q 930 697 884 684 q 1027 711 976 711 q 1169 682 1104 711 q 1281 604 1234 654 q 1354 489 1328 555 q 1380 347 1380 422 q 1354 206 1380 272 q 1281 90 1328 140 q 1169 12 1234 41 q 1027 -16 1104 -16 q 932 -4 977 -16 q 850 32 888 9 q 782 87 812 55 q 733 160 752 120 l 730 160 m 777 347 q 795 240 777 290 q 846 153 813 190 q 924 94 878 115 q 1027 72 970 72 q 1129 94 1082 72 q 1208 153 1175 115 q 1260 240 1242 190 q 1278 347 1278 290 q 1260 454 1278 404 q 1208 542 1242 505 q 1129 601 1175 579 q 1027 623 1082 623 q 924 601 970 623 q 846 542 878 579 q 795 454 813 505 q 777 347 777 404 z "},"ꩢ":{"ha":1004,"x_min":95,"x_max":923,"o":"m 658 73 q 721 92 691 73 q 773 147 751 112 q 808 232 795 182 q 821 340 821 281 q 806 455 821 403 q 764 544 791 507 q 696 602 736 581 q 606 623 656 623 q 566 620 587 623 q 523 610 545 616 l 499 695 q 607 710 555 710 q 736 683 678 710 q 836 607 794 656 q 900 491 878 559 q 923 344 923 424 q 902 199 923 265 q 844 85 880 133 q 760 11 808 37 q 657 -16 711 -16 q 574 4 608 -16 q 514 54 539 24 q 470 119 488 84 q 436 184 452 154 q 404 234 420 214 q 366 254 387 254 q 333 240 350 254 q 295 195 316 227 q 245 114 273 164 q 179 -8 217 64 l 95 5 l 95 696 l 190 696 l 190 344 q 189 241 190 277 q 187 184 189 204 l 190 184 q 243 264 219 233 q 287 313 267 295 q 328 338 308 331 q 368 345 347 345 q 438 325 410 345 q 487 274 466 304 q 524 209 507 243 q 558 143 540 174 q 600 93 576 113 q 658 73 623 73 z "},"ꩣ":{"ha":1483,"x_min":68,"x_max":1402,"o":"m 749 163 q 684 63 725 107 q 591 -12 644 19 q 529 42 557 9 q 482 117 502 75 q 452 204 463 158 q 441 296 441 250 q 452 379 441 338 q 481 456 463 420 q 526 523 500 492 q 583 575 551 553 q 512 610 551 597 q 427 623 473 623 q 319 604 366 623 q 242 555 273 585 q 196 489 212 525 q 181 419 181 453 q 195 357 181 382 q 230 311 209 331 q 276 273 252 290 q 322 235 300 255 q 357 191 343 216 q 371 131 371 165 q 359 73 371 100 q 325 26 347 46 q 275 -5 304 7 q 214 -16 247 -16 q 133 3 170 -16 q 68 57 96 22 l 133 117 q 169 84 146 98 q 214 71 191 71 q 257 86 239 71 q 275 124 275 100 q 261 162 275 145 q 225 195 246 178 q 178 230 203 211 q 131 274 153 248 q 95 335 110 300 q 81 418 81 370 q 103 525 81 473 q 171 619 126 578 q 280 686 215 661 q 428 711 345 711 q 533 697 484 711 q 622 660 582 684 q 694 602 663 636 q 746 526 725 568 l 749 526 q 799 602 769 568 q 868 660 829 636 q 952 697 906 684 q 1048 711 998 711 q 1191 682 1126 711 q 1302 604 1255 654 q 1376 489 1350 555 q 1402 347 1402 422 q 1376 206 1402 272 q 1302 90 1350 140 q 1191 12 1255 41 q 1048 -16 1126 -16 q 953 -3 998 -16 q 870 33 908 9 q 802 90 832 56 q 752 163 772 123 l 749 163 m 799 347 q 817 240 799 290 q 867 153 835 190 q 946 94 900 115 q 1048 72 992 72 q 1151 94 1104 72 q 1230 153 1197 115 q 1282 240 1263 190 q 1300 347 1300 290 q 1282 454 1300 404 q 1230 542 1263 505 q 1151 601 1197 579 q 1048 623 1104 623 q 946 601 992 623 q 867 542 900 579 q 817 454 835 505 q 799 347 799 404 m 696 332 q 683 429 696 383 q 644 512 670 475 q 601 473 621 496 q 568 422 582 450 q 547 362 555 395 q 540 296 540 330 q 554 195 540 245 q 596 107 568 145 q 636 154 618 130 q 668 206 655 178 q 689 265 682 233 q 696 332 696 296 z "},"ꩤ":{"ha":1480,"x_min":81,"x_max":1398,"o":"m 751 536 q 871 665 794 619 q 1048 711 949 711 q 1190 682 1126 711 q 1301 604 1255 654 q 1373 489 1347 555 q 1398 347 1398 422 q 1372 206 1398 272 q 1299 90 1346 140 q 1187 12 1252 41 q 1045 -16 1122 -16 q 949 -3 994 -16 q 865 34 903 10 q 796 92 827 58 q 745 168 766 126 l 743 168 q 691 92 722 126 q 622 34 661 58 q 537 -3 583 10 q 438 -16 490 -16 q 295 12 360 -16 q 182 91 229 41 q 108 209 134 140 q 81 357 81 277 q 94 463 81 412 q 129 557 106 513 q 182 638 151 601 q 250 707 213 676 l 313 640 q 262 586 286 616 q 220 520 238 556 q 193 443 203 484 q 183 356 183 401 q 202 243 183 295 q 254 153 220 191 q 335 93 288 115 q 438 72 382 72 q 541 93 494 72 q 622 153 588 115 q 674 243 655 191 q 692 356 692 295 q 682 442 692 401 q 653 519 671 483 q 611 586 635 555 q 558 640 587 616 l 620 707 q 694 631 661 673 q 749 536 728 589 l 751 536 m 795 347 q 813 240 795 290 q 864 153 831 190 q 943 94 897 115 q 1045 72 989 72 q 1147 94 1101 72 q 1227 153 1194 115 q 1278 240 1260 190 q 1297 347 1297 290 q 1279 454 1297 404 q 1228 542 1261 505 q 1150 601 1196 579 q 1048 623 1104 623 q 946 601 992 623 q 866 542 899 579 q 814 454 832 505 q 795 347 795 404 z "},"ꩥ":{"ha":1499,"x_min":81,"x_max":1418,"o":"m 701 100 q 589 15 657 46 q 433 -16 521 -16 q 289 12 354 -16 q 178 90 224 41 q 107 205 132 139 q 81 348 81 272 q 107 490 81 424 q 178 605 132 556 q 289 683 224 654 q 433 711 354 711 q 533 697 488 711 q 613 662 578 684 l 568 583 q 498 614 536 605 q 429 623 461 623 q 328 601 373 623 q 251 542 283 579 q 201 454 218 505 q 183 347 183 404 q 201 240 183 290 q 251 153 218 190 q 330 94 283 115 q 433 72 376 72 q 535 92 488 72 q 619 148 583 112 q 676 232 654 183 q 699 339 697 281 q 729 484 702 416 q 804 602 757 551 q 917 682 851 652 q 1063 711 983 711 q 1207 682 1141 711 q 1319 604 1272 654 q 1392 489 1366 555 q 1418 348 1418 423 q 1392 205 1418 272 q 1318 90 1365 139 q 1204 12 1270 41 q 1060 -16 1139 -16 q 949 0 1002 -16 l 974 85 q 1059 72 1013 72 q 1164 94 1117 72 q 1246 153 1212 115 q 1298 240 1280 190 q 1316 347 1316 290 q 1298 454 1316 404 q 1246 542 1280 505 q 1166 601 1213 579 q 1062 623 1119 623 q 957 601 1005 623 q 874 538 909 578 q 820 443 840 498 q 801 321 801 388 l 801 -652 l 550 -652 l 550 -561 l 703 -561 l 703 98 l 701 100 z "},"ꩦ":{"ha":1482,"x_min":81,"x_max":1401,"o":"m 81 347 q 108 489 81 422 q 182 604 134 555 q 295 682 229 654 q 438 711 360 711 q 536 697 490 711 q 621 661 582 684 q 692 604 661 637 q 746 531 724 570 q 798 606 768 572 q 866 662 827 639 q 950 698 904 686 q 1050 711 996 711 q 1193 682 1128 711 q 1304 604 1258 654 q 1376 489 1350 555 q 1401 348 1401 423 q 1375 205 1401 272 q 1302 90 1349 139 q 1192 12 1256 41 q 1050 -16 1127 -16 q 932 0 987 -16 l 957 85 q 1048 72 996 72 q 1152 94 1105 72 q 1231 153 1198 115 q 1281 240 1263 190 q 1299 347 1299 290 q 1282 454 1299 404 q 1232 542 1264 505 q 1153 601 1199 579 q 1050 623 1107 623 q 952 604 997 623 q 874 554 907 586 q 819 478 840 522 q 793 383 798 434 q 795 347 795 365 q 768 206 795 272 q 694 90 742 140 q 582 12 647 41 q 438 -16 516 -16 q 295 12 360 -16 q 182 90 229 41 q 108 206 134 140 q 81 347 81 272 m 183 347 q 202 240 183 290 q 254 153 220 190 q 334 94 288 115 q 438 72 381 72 q 542 94 495 72 q 622 153 589 115 q 674 240 656 190 q 693 347 693 290 q 674 454 693 404 q 622 542 656 505 q 542 601 589 579 q 438 623 495 623 q 334 601 381 623 q 254 542 288 579 q 202 454 220 505 q 183 347 183 404 m 336 347 q 343 387 336 368 q 365 420 351 406 q 397 443 378 435 q 438 452 416 452 q 479 443 460 452 q 512 420 498 435 q 533 387 526 406 q 541 347 541 368 q 533 307 541 326 q 512 273 526 288 q 479 251 498 259 q 438 243 460 243 q 397 251 416 243 q 365 273 378 259 q 343 307 351 288 q 336 347 336 326 z "},"ꩧ":{"ha":1471,"x_min":81,"x_max":1390,"o":"m 736 526 q 787 602 757 568 q 856 660 817 636 q 940 697 894 684 q 1036 711 985 711 q 1178 682 1114 711 q 1290 604 1243 654 q 1363 489 1337 555 q 1390 347 1390 422 q 1363 206 1390 272 q 1290 90 1337 140 q 1178 12 1243 41 q 1036 -16 1114 -16 q 940 -3 985 -16 q 856 34 895 10 q 787 92 818 58 q 736 168 757 126 l 734 168 q 683 92 713 126 q 615 34 653 58 q 532 -3 577 10 q 435 -16 486 -16 q 293 12 357 -16 q 181 90 228 41 q 107 206 134 140 q 81 347 81 272 q 107 489 81 422 q 181 604 134 555 q 293 682 228 654 q 435 711 357 711 q 532 697 486 711 q 615 660 577 684 q 684 602 654 636 q 734 526 713 568 l 736 526 m 787 347 q 805 240 787 290 q 855 153 823 190 q 934 94 888 115 q 1036 72 980 72 q 1138 94 1092 72 q 1218 153 1185 115 q 1270 240 1251 190 q 1288 347 1288 290 q 1270 454 1288 404 q 1218 542 1251 505 q 1138 601 1185 579 q 1036 623 1092 623 q 934 601 980 623 q 855 542 888 579 q 805 454 823 505 q 787 347 787 404 m 183 347 q 201 240 183 290 q 253 153 220 190 q 332 94 286 115 q 435 72 378 72 q 536 94 490 72 q 615 153 583 115 q 666 240 648 190 q 684 347 684 290 q 666 454 684 404 q 615 542 648 505 q 536 601 583 579 q 435 623 490 623 q 332 601 378 623 q 253 542 286 579 q 201 454 220 505 q 183 347 183 404 m 332 347 q 340 387 332 368 q 361 420 347 406 q 394 443 375 435 q 435 452 412 452 q 476 443 457 452 q 508 420 494 435 q 530 387 522 406 q 537 347 537 368 q 530 307 537 326 q 508 273 522 288 q 476 251 494 259 q 435 243 457 243 q 394 251 412 243 q 361 273 375 259 q 340 307 347 288 q 332 347 332 326 z "},"ꩨ":{"ha":1482,"x_min":81,"x_max":1401,"o":"m 81 347 q 108 489 81 422 q 182 604 134 555 q 294 682 229 654 q 437 711 359 711 q 535 697 488 711 q 621 661 581 684 q 692 604 660 637 q 746 532 724 571 q 798 606 768 573 q 866 662 828 639 q 950 698 904 686 q 1048 711 996 711 q 1193 682 1128 711 q 1304 604 1258 654 q 1376 489 1350 555 q 1401 348 1401 423 q 1375 205 1401 272 q 1303 90 1350 139 q 1191 12 1256 41 q 1048 -16 1126 -16 q 978 -10 1015 -16 q 902 12 941 -4 q 948 186 911 114 q 1040 305 985 258 q 1160 374 1094 351 q 1295 401 1227 397 q 1267 488 1288 448 q 1215 559 1246 529 q 1142 606 1183 589 q 1050 623 1100 623 q 952 604 997 623 q 874 554 907 586 q 819 477 840 522 q 793 382 798 433 q 795 345 795 364 q 768 205 795 271 q 694 91 742 140 q 582 13 647 41 q 438 -16 516 -16 q 295 12 360 -16 q 182 90 229 41 q 108 206 134 140 q 81 347 81 272 m 183 347 q 202 240 183 290 q 254 153 220 190 q 334 94 288 115 q 438 72 381 72 q 542 94 495 72 q 622 153 589 115 q 674 240 656 190 q 693 347 693 290 q 674 454 693 404 q 622 542 656 505 q 542 601 589 579 q 438 623 495 623 q 334 601 381 623 q 254 542 288 579 q 202 454 220 505 q 183 347 183 404 m 1048 72 q 1144 91 1101 72 q 1220 142 1187 109 q 1272 218 1253 174 q 1297 314 1292 262 q 1196 295 1243 312 q 1111 248 1148 278 q 1046 174 1073 217 q 1006 75 1019 130 q 1027 73 1017 73 q 1048 72 1037 72 m 332 347 q 340 387 332 368 q 361 420 347 406 q 394 443 375 435 q 435 452 412 452 q 476 443 457 452 q 508 420 494 435 q 530 387 522 406 q 537 347 537 368 q 530 307 537 326 q 508 273 522 288 q 476 251 494 259 q 435 243 457 243 q 394 251 412 243 q 361 273 375 259 q 340 307 347 288 q 332 347 332 326 z "},"ꩩ":{"ha":1471,"x_min":81,"x_max":1390,"o":"m 736 526 q 787 602 757 568 q 856 660 817 636 q 940 697 894 684 q 1036 711 985 711 q 1178 682 1114 711 q 1290 604 1243 654 q 1363 489 1337 555 q 1390 347 1390 422 q 1363 206 1390 272 q 1290 90 1337 140 q 1178 12 1243 41 q 1036 -16 1114 -16 q 940 -3 985 -16 q 856 34 895 10 q 787 92 817 58 q 736 168 757 126 l 734 168 q 683 92 713 126 q 615 34 653 58 q 532 -3 577 10 q 435 -16 486 -16 q 293 12 357 -16 q 181 90 228 41 q 107 206 134 140 q 81 347 81 272 q 107 489 81 422 q 181 604 134 555 q 293 682 228 654 q 435 711 357 711 q 532 697 486 711 q 615 660 577 684 q 684 602 654 636 q 734 526 713 568 l 736 526 m 183 347 q 201 240 183 290 q 253 153 220 190 q 332 94 286 115 q 435 72 378 72 q 536 94 490 72 q 615 153 583 115 q 666 240 648 190 q 684 347 684 290 q 666 454 684 404 q 615 542 648 505 q 536 601 583 579 q 435 623 490 623 q 332 601 378 623 q 253 542 286 579 q 201 454 220 505 q 183 347 183 404 m 1288 347 q 1270 454 1288 404 q 1218 542 1251 505 q 1138 601 1185 579 q 1036 623 1092 623 q 945 606 987 623 q 871 559 903 589 q 819 488 840 529 q 791 400 798 448 q 909 379 850 397 q 1017 327 967 362 q 1106 238 1067 292 q 1165 108 1145 184 q 1255 207 1223 144 q 1288 347 1288 270 m 1036 72 q 1058 73 1048 72 q 1079 75 1069 74 q 1039 174 1065 130 q 975 248 1013 217 q 890 295 937 278 q 788 314 842 312 q 813 219 793 263 q 865 142 833 174 q 941 91 897 109 q 1036 72 984 72 m 332 347 q 340 387 332 368 q 361 420 347 406 q 394 443 375 435 q 435 452 412 452 q 476 443 457 452 q 508 420 494 435 q 530 387 522 406 q 537 347 537 368 q 530 307 537 326 q 508 273 522 288 q 476 251 494 259 q 435 243 457 243 q 394 251 412 243 q 361 273 375 259 q 340 307 347 288 q 332 347 332 326 z "},"ꩪ":{"ha":1471,"x_min":81,"x_max":1390,"o":"m 736 526 q 787 602 757 568 q 856 660 817 636 q 940 697 894 684 q 1036 711 985 711 q 1178 682 1114 711 q 1290 604 1243 654 q 1363 489 1337 555 q 1390 347 1390 422 q 1363 206 1390 272 q 1290 90 1337 140 q 1178 12 1243 41 q 1036 -16 1114 -16 q 940 -3 985 -16 q 856 34 895 10 q 787 92 817 58 q 736 168 757 126 l 734 168 q 683 92 713 126 q 615 34 653 58 q 532 -3 577 10 q 435 -16 486 -16 q 293 12 357 -16 q 181 90 228 41 q 107 206 134 140 q 81 347 81 272 q 107 489 81 422 q 181 604 134 555 q 293 682 228 654 q 435 711 357 711 q 532 697 486 711 q 615 660 577 684 q 684 602 654 636 q 734 526 713 568 l 736 526 m 183 347 q 201 240 183 290 q 253 153 220 190 q 332 94 286 115 q 435 72 378 72 q 536 94 490 72 q 615 153 583 115 q 666 240 648 190 q 684 347 684 290 q 666 454 684 404 q 615 542 648 505 q 536 601 583 579 q 435 623 490 623 q 332 601 378 623 q 253 542 286 579 q 201 454 220 505 q 183 347 183 404 m 1288 347 q 1270 454 1288 404 q 1218 542 1251 505 q 1138 601 1185 579 q 1036 623 1092 623 q 945 606 987 623 q 871 559 903 589 q 819 488 840 529 q 791 400 798 448 q 909 379 850 397 q 1017 327 967 362 q 1106 238 1067 292 q 1165 108 1145 184 q 1255 207 1223 144 q 1288 347 1288 270 m 1036 72 q 1058 73 1048 72 q 1079 75 1069 74 q 1039 174 1065 130 q 975 248 1013 217 q 890 295 937 278 q 788 314 842 312 q 813 219 793 263 q 865 142 833 174 q 941 91 897 109 q 1036 72 984 72 z "},"ꩫ":{"ha":1020,"x_min":54,"x_max":939,"o":"m 165 696 q 155 632 155 663 q 159 585 155 607 q 173 544 163 563 q 199 510 182 526 q 243 481 216 494 q 293 571 262 530 q 366 644 323 613 q 460 693 408 675 q 576 711 513 711 q 723 683 656 711 q 837 607 789 656 q 912 490 885 557 q 939 342 939 422 q 926 236 939 288 q 891 140 913 185 q 837 56 868 94 q 770 -12 806 18 l 707 54 q 759 110 735 78 q 800 178 783 141 q 827 257 817 215 q 837 343 837 299 q 818 455 837 404 q 765 544 799 507 q 683 602 731 581 q 578 623 635 623 q 494 609 532 623 q 425 572 456 595 q 373 515 395 548 q 337 445 351 483 q 427 407 389 431 q 492 354 466 384 q 530 288 517 323 q 543 215 543 253 q 514 98 543 157 q 428 -14 486 39 q 334 50 374 12 q 267 132 294 87 q 228 228 241 177 q 215 330 215 278 q 216 362 215 346 q 220 395 217 378 q 151 429 182 410 q 99 473 120 448 q 66 534 77 499 q 54 618 54 570 q 57 655 54 637 q 64 696 59 674 l 165 696 m 317 324 q 339 204 317 262 q 412 106 361 147 q 440 160 431 134 q 450 212 450 187 q 416 301 450 261 q 318 360 382 340 q 317 342 317 351 q 317 324 317 334 z "},"ꩬ":{"ha":1598,"x_min":81,"x_max":1516,"o":"m 640 288 q 636 331 640 313 q 627 364 632 349 q 618 395 622 379 q 614 433 614 411 q 630 502 614 472 q 672 550 646 531 q 732 578 699 569 q 799 588 765 588 q 868 578 835 588 q 928 548 902 568 q 969 499 954 528 q 984 433 984 470 q 980 395 984 411 q 971 364 976 379 q 962 331 966 349 q 958 288 958 313 q 975 202 958 242 q 1021 134 991 163 q 1091 88 1051 104 q 1178 72 1131 72 q 1275 93 1232 72 q 1350 152 1318 115 q 1398 240 1381 189 q 1415 348 1415 290 q 1396 459 1415 408 q 1344 546 1377 509 q 1263 602 1310 582 q 1161 623 1217 623 q 1138 622 1148 623 q 1116 619 1128 621 l 1105 707 q 1160 711 1131 711 q 1303 683 1238 711 q 1416 608 1369 656 q 1490 493 1463 559 q 1516 349 1516 427 q 1492 207 1516 273 q 1422 91 1467 140 q 1316 13 1378 41 q 1178 -16 1253 -16 q 1049 8 1108 -16 q 949 74 991 33 q 883 169 907 115 q 859 285 859 224 q 863 332 859 313 q 872 367 867 351 q 880 395 876 382 q 884 423 884 408 q 878 455 884 441 q 859 478 871 469 q 831 494 847 488 q 799 499 816 499 q 765 493 781 499 q 738 477 749 488 q 720 453 726 467 q 713 422 713 439 q 718 395 713 408 q 726 367 722 382 q 734 332 730 352 q 739 285 739 313 q 714 168 739 222 q 648 72 690 113 q 547 7 605 31 q 420 -16 488 -16 q 282 13 345 -16 q 176 91 220 41 q 106 206 131 140 q 81 348 81 273 q 108 493 81 427 q 182 608 134 559 q 295 684 229 656 q 438 711 360 711 q 493 707 467 711 l 481 619 q 460 622 470 621 q 437 623 450 623 q 334 602 380 623 q 254 546 288 582 q 202 459 220 509 q 183 348 183 408 q 200 240 183 291 q 248 153 217 190 q 322 94 279 115 q 420 72 366 72 q 508 89 467 72 q 577 134 548 105 q 624 203 607 163 q 640 288 640 243 z "},"ꩭ":{"ha":1138,"x_min":-136,"x_max":1057,"o":"m 257 711 q 315 702 288 711 q 366 679 342 694 q 406 642 389 663 q 433 595 423 621 q 553 680 486 648 q 705 711 619 711 q 849 682 784 711 q 960 604 913 654 q 1031 489 1006 555 q 1057 348 1057 423 q 1030 205 1057 272 q 958 90 1004 139 q 847 12 911 41 q 705 -16 783 -16 q 587 0 643 -16 l 612 85 q 704 72 653 72 q 807 94 761 72 q 886 153 853 115 q 937 240 919 190 q 955 347 955 290 q 937 454 955 404 q 887 542 920 505 q 808 601 854 579 q 705 623 762 623 q 628 612 664 623 q 559 582 591 602 q 499 534 527 562 q 447 473 471 507 l 447 -377 q 426 -490 447 -437 q 367 -583 405 -543 q 275 -646 328 -623 q 157 -669 222 -669 q 38 -646 92 -669 q -54 -583 -16 -623 q -114 -490 -93 -543 q -136 -377 -136 -437 l -37 -377 q -23 -458 -37 -420 q 16 -525 -9 -496 q 77 -569 41 -553 q 155 -585 113 -585 q 234 -569 199 -585 q 295 -525 270 -553 q 335 -458 321 -496 q 349 -377 349 -420 l 349 359 q 257 338 307 338 q 182 352 216 338 q 123 392 148 367 q 84 452 98 418 q 70 524 70 486 q 84 597 70 563 q 123 656 98 631 q 182 696 148 682 q 257 711 216 711 m 257 625 q 220 617 237 625 q 191 596 203 610 q 172 564 179 583 q 165 524 165 545 q 172 485 165 503 q 191 453 179 467 q 220 433 203 440 q 257 425 237 425 q 297 433 280 425 q 326 454 315 441 q 343 486 338 467 q 349 524 349 504 q 342 564 349 545 q 323 596 336 583 q 294 617 311 610 q 257 625 277 625 z "},"ꩮ":{"ha":1483,"x_min":81,"x_max":1402,"o":"m 435 -16 q 292 12 357 -16 q 180 90 227 41 q 107 205 133 139 q 81 347 81 271 q 107 489 81 422 q 181 604 134 555 q 295 682 229 654 q 443 711 361 711 q 557 692 508 711 q 643 644 606 674 q 704 576 679 614 q 746 497 729 538 q 773 418 762 457 q 791 349 784 379 q 807 290 798 321 q 828 229 815 259 q 858 170 840 198 q 902 119 876 141 q 962 85 928 98 q 1043 72 997 72 q 1149 94 1101 72 q 1230 153 1196 115 q 1282 240 1263 190 q 1300 347 1300 290 q 1282 454 1300 404 q 1230 542 1263 505 q 1148 601 1196 579 q 1042 623 1101 623 q 999 620 1021 623 q 958 610 978 616 l 932 694 q 1044 711 985 711 q 1188 682 1122 711 q 1301 605 1254 654 q 1375 489 1349 555 q 1402 347 1402 422 q 1376 205 1402 271 q 1302 90 1350 140 q 1189 12 1255 41 q 1041 -16 1122 -16 q 927 2 976 -16 q 843 51 878 21 q 783 120 807 81 q 743 199 759 159 q 716 278 726 239 q 699 346 706 316 q 683 405 692 374 q 660 467 673 437 q 627 526 646 498 q 582 575 608 554 q 520 610 555 597 q 441 623 486 623 q 346 606 389 623 q 270 559 303 589 q 216 488 237 529 q 187 400 195 448 q 322 373 256 396 q 443 304 389 351 q 534 186 497 258 q 581 12 571 114 q 505 -10 542 -4 q 435 -16 468 -16 m 435 72 q 456 73 446 72 q 475 75 466 73 q 435 174 462 130 q 371 248 409 217 q 287 295 334 278 q 184 314 239 312 q 209 219 189 263 q 262 142 229 174 q 338 91 294 109 q 435 72 382 72 z "},"ꩯ":{"ha":1120,"x_min":95,"x_max":1039,"o":"m 326 347 l 326 354 l 190 529 l 190 0 l 95 0 l 95 689 l 179 703 l 349 479 q 399 573 367 530 q 474 646 431 615 q 569 693 517 676 q 682 711 622 711 q 826 682 760 711 q 939 604 891 654 q 1013 489 986 555 q 1039 347 1039 422 q 1013 206 1039 272 q 939 90 986 140 q 826 12 891 41 q 682 -16 760 -16 q 539 12 604 -16 q 426 90 473 41 q 352 206 378 140 q 326 347 326 272 m 427 347 q 446 240 427 290 q 498 153 465 190 q 578 94 532 115 q 682 72 625 72 q 786 94 739 72 q 866 153 833 115 q 919 240 900 190 q 937 347 937 290 q 919 454 937 404 q 866 542 900 505 q 786 601 833 579 q 682 623 739 623 q 578 601 625 623 q 498 542 532 579 q 446 454 465 505 q 427 347 427 404 z "},"ꩱ":{"ha":1488,"x_min":81,"x_max":1407,"o":"m 282 -12 q 199 50 236 14 q 136 130 162 85 q 96 225 110 174 q 81 335 81 277 q 108 483 81 414 q 182 602 134 551 q 295 682 229 653 q 441 711 361 711 q 539 698 493 711 q 625 661 585 685 q 697 605 665 637 q 751 531 729 572 q 803 606 773 572 q 871 662 833 639 q 956 698 909 686 q 1055 711 1002 711 q 1199 682 1134 711 q 1310 604 1263 654 q 1381 489 1356 555 q 1407 348 1407 423 q 1380 205 1407 272 q 1308 90 1354 139 q 1197 12 1261 41 q 1055 -16 1133 -16 q 937 0 993 -16 l 962 85 q 1054 72 1003 72 q 1157 94 1111 72 q 1236 153 1203 115 q 1287 240 1269 190 q 1305 347 1305 290 q 1287 454 1305 404 q 1237 542 1270 505 q 1158 601 1204 579 q 1055 623 1112 623 q 959 605 1003 623 q 881 555 914 587 q 826 479 847 523 q 799 386 804 436 q 801 361 800 374 q 802 337 802 349 q 789 232 802 282 q 754 137 777 181 q 700 55 731 93 q 633 -12 669 18 l 570 54 q 622 109 598 78 q 663 175 646 139 q 690 253 680 212 q 700 338 700 294 q 681 451 700 399 q 628 541 662 503 q 547 601 594 579 q 442 623 499 623 q 361 610 399 623 q 293 574 323 597 q 351 524 324 553 q 397 458 378 494 q 427 381 416 422 q 438 296 438 340 q 426 203 438 250 q 394 117 414 157 q 344 42 373 76 q 282 -12 315 9 m 183 332 q 209 205 183 260 q 278 106 234 151 q 323 195 307 144 q 340 296 340 245 q 332 362 340 330 q 311 422 325 395 q 278 473 297 450 q 235 512 258 496 q 196 429 210 475 q 183 332 183 383 z "},"ꩲ":{"ha":1871,"x_min":68,"x_max":1790,"o":"m 1137 523 q 1187 600 1157 566 q 1255 659 1217 635 q 1339 697 1293 684 q 1438 711 1385 711 q 1579 682 1514 711 q 1691 604 1644 654 q 1764 489 1737 555 q 1790 347 1790 422 q 1764 206 1790 272 q 1691 90 1737 140 q 1579 12 1644 41 q 1438 -16 1514 -16 q 1341 -3 1387 -16 q 1258 33 1296 9 q 1190 89 1219 56 q 1143 160 1161 121 l 1140 160 q 1089 64 1120 107 q 1017 -12 1058 20 l 954 54 q 1006 109 982 77 q 1047 178 1030 140 q 1075 257 1065 216 q 1084 343 1084 299 q 1066 454 1084 403 q 1014 543 1047 505 q 933 601 980 580 q 829 623 886 623 q 730 604 775 623 q 653 552 685 585 q 603 476 621 519 q 585 382 585 432 q 590 325 585 353 q 603 271 596 297 q 616 219 610 244 q 623 169 623 193 q 611 102 623 135 q 573 42 599 68 q 508 0 548 16 q 410 -16 467 -16 q 288 6 349 -16 q 178 72 227 29 q 98 175 129 114 q 68 312 68 235 q 78 393 68 353 q 111 471 88 433 q 118 471 116 471 q 121 471 121 471 q 235 450 179 471 q 334 390 290 429 q 405 293 378 350 q 431 165 431 236 q 429 120 431 143 q 420 72 426 96 q 469 80 449 72 q 502 102 489 88 q 519 133 514 115 q 525 168 525 150 q 519 215 525 192 q 506 264 513 239 q 492 319 498 290 q 486 384 486 348 q 512 513 486 453 q 583 616 538 572 q 691 686 629 661 q 828 711 754 711 q 928 697 881 711 q 1014 659 975 684 q 1083 600 1053 635 q 1135 523 1114 566 l 1137 523 m 1187 347 q 1205 240 1187 290 q 1256 153 1223 190 q 1335 94 1289 115 q 1437 72 1381 72 q 1539 94 1493 72 q 1618 153 1586 115 q 1670 240 1651 190 q 1688 347 1688 290 q 1670 454 1688 404 q 1618 542 1651 505 q 1539 601 1586 579 q 1437 623 1493 623 q 1335 601 1381 623 q 1256 542 1289 579 q 1205 454 1223 505 q 1187 347 1187 404 m 156 313 q 170 234 156 271 q 207 168 183 197 q 264 117 231 138 q 336 85 297 96 q 341 120 340 103 q 343 155 343 138 q 332 232 343 195 q 300 299 321 269 q 245 352 278 330 q 166 385 212 374 q 158 347 161 366 q 156 313 156 328 z "},"ꩳ":{"ha":1008,"x_min":95,"x_max":926,"o":"m 190 -8 l 95 -8 l 95 689 l 179 703 q 329 448 265 553 q 439 273 393 342 q 518 163 486 203 q 575 103 551 123 q 617 78 599 83 q 652 73 635 73 q 718 91 686 73 q 772 143 749 109 q 810 226 796 177 q 825 336 825 275 q 810 452 825 399 q 767 543 795 505 q 699 602 739 581 q 610 623 659 623 q 568 620 591 623 q 523 610 545 616 l 499 695 q 556 706 528 703 q 610 710 585 710 q 740 683 682 710 q 839 606 798 655 q 904 489 881 557 q 926 340 926 421 q 904 194 926 259 q 844 81 882 128 q 756 9 806 35 q 652 -16 707 -16 q 602 -12 625 -16 q 557 3 578 -7 q 515 32 536 14 q 471 77 494 50 q 417 145 446 106 q 354 236 389 184 q 279 356 319 289 q 190 509 238 424 l 190 -8 z "},"ꩺ":{"ha":1757,"x_min":102,"x_max":1676,"o":"m 483 1190 l 728 1190 q 899 1249 844 1190 q 954 1439 954 1309 l 1057 1439 q 1032 1280 1057 1345 q 963 1174 1007 1215 q 858 1116 919 1134 q 724 1098 797 1098 l 479 1098 q 342 1078 396 1098 q 258 1017 289 1058 q 215 914 227 977 q 203 768 203 852 l 203 -244 q 215 -390 203 -329 q 258 -491 227 -451 q 342 -549 289 -530 q 479 -568 396 -568 l 681 -568 q 817 -549 764 -568 q 902 -491 871 -530 q 944 -390 932 -451 q 956 -244 956 -329 l 956 321 q 937 443 956 388 q 883 538 918 498 q 800 601 848 578 q 695 623 752 623 q 591 601 638 623 q 511 542 545 579 q 459 454 477 505 q 441 347 441 404 q 459 240 441 290 q 511 153 477 190 q 593 94 545 115 q 699 72 640 72 q 783 85 745 72 l 808 0 q 697 -16 755 -16 q 553 12 618 -16 q 439 90 487 41 q 366 205 392 139 q 339 348 339 272 q 365 489 339 423 q 438 604 391 555 q 550 682 485 654 q 694 711 616 711 q 840 682 774 711 q 953 602 906 652 q 1027 484 1000 551 q 1058 339 1055 416 q 1081 232 1060 281 q 1138 148 1103 183 q 1222 92 1174 112 q 1324 72 1270 72 q 1428 94 1381 72 q 1506 153 1474 115 q 1556 240 1539 190 q 1574 347 1574 290 q 1556 454 1574 404 q 1507 542 1539 505 q 1429 601 1474 579 q 1329 623 1384 623 q 1259 614 1296 623 q 1189 583 1221 605 l 1144 662 q 1224 697 1179 684 q 1324 711 1270 711 q 1468 683 1403 711 q 1579 605 1533 654 q 1650 490 1625 556 q 1676 348 1676 424 q 1650 205 1676 272 q 1579 90 1625 139 q 1468 12 1533 41 q 1324 -16 1403 -16 q 1168 15 1236 -16 q 1057 100 1100 46 l 1055 98 l 1055 -258 q 1032 -447 1055 -370 q 962 -571 1009 -524 q 844 -638 916 -618 q 677 -659 773 -659 l 483 -659 q 314 -638 386 -659 q 196 -571 243 -618 q 125 -447 149 -524 q 102 -258 102 -370 l 102 781 q 125 971 102 894 q 196 1098 149 1049 q 314 1168 243 1146 q 483 1190 386 1190 z "},"ျ":{"ha":258,"x_min":-338,"x_max":163,"o":"m -243 67 l -243 -441 l 68 -554 l 68 696 l 163 696 l 163 -686 l -338 -505 l -338 67 l -243 67 z "},"ြ":{"ha":298,"x_min":102,"x_max":1058,"o":"m 954 1091 q 940 1204 954 1156 q 893 1284 926 1253 q 809 1332 861 1316 q 681 1348 757 1348 l 479 1348 q 342 1329 396 1348 q 258 1271 289 1310 q 215 1170 227 1231 q 203 1024 203 1109 l 203 -244 q 215 -390 203 -329 q 258 -491 227 -451 q 342 -549 289 -530 q 479 -568 396 -568 l 681 -568 q 817 -549 764 -568 q 902 -491 871 -530 q 944 -390 932 -451 q 956 -244 956 -329 l 956 182 l 1058 182 l 1058 -258 q 1035 -447 1058 -370 q 964 -571 1011 -524 q 845 -638 917 -618 q 677 -659 773 -659 l 483 -659 q 314 -638 386 -659 q 196 -571 243 -618 q 125 -447 149 -524 q 102 -258 102 -370 l 102 1038 q 125 1227 102 1150 q 196 1351 149 1303 q 314 1418 243 1398 q 483 1439 386 1439 l 677 1439 q 838 1420 767 1439 q 957 1359 909 1401 q 1031 1252 1006 1318 q 1057 1091 1057 1185 l 954 1091 z "},"ွ":{"ha":0,"x_min":-728,"x_max":-149,"o":"m -438 -85 q -321 -109 -374 -85 q -230 -171 -268 -132 q -170 -264 -191 -211 q -149 -377 -149 -317 q -170 -490 -149 -437 q -230 -583 -191 -543 q -321 -646 -268 -623 q -438 -669 -374 -669 q -555 -646 -502 -669 q -647 -583 -608 -623 q -706 -490 -685 -543 q -728 -377 -728 -437 q -706 -264 -728 -317 q -647 -171 -685 -211 q -555 -109 -608 -132 q -438 -85 -502 -85 m -438 -169 q -517 -185 -481 -169 q -579 -230 -553 -201 q -618 -296 -604 -258 q -633 -377 -633 -334 q -618 -458 -633 -420 q -579 -525 -604 -496 q -517 -569 -553 -553 q -438 -585 -481 -585 q -359 -569 -395 -585 q -297 -525 -323 -553 q -258 -458 -272 -496 q -243 -377 -243 -420 q -258 -296 -243 -334 q -297 -230 -272 -258 q -359 -185 -323 -201 q -438 -169 -395 -169 z "},"ှ":{"ha":0,"x_min":-635,"x_max":-391,"o":"m -635 -652 l -635 -561 l -486 -561 l -486 11 l -391 11 l -391 -652 l -635 -652 z "},"ၞ":{"ha":0,"x_min":-787,"x_max":-130,"o":"m -486 11 l -391 11 l -391 -238 q -255 -275 -321 -249 q -130 -341 -189 -300 l -174 -410 q -280 -354 -225 -375 q -391 -324 -336 -334 l -391 -455 q -406 -547 -391 -507 q -447 -614 -420 -587 q -508 -655 -473 -641 q -585 -669 -544 -669 q -667 -654 -630 -669 q -730 -612 -704 -639 q -772 -547 -757 -585 q -787 -465 -787 -510 q -760 -356 -787 -401 q -691 -284 -734 -311 q -594 -244 -648 -256 q -486 -232 -541 -232 l -486 11 m -692 -467 q -663 -552 -692 -521 q -585 -583 -633 -583 q -546 -576 -564 -583 q -514 -553 -528 -569 q -493 -514 -501 -538 q -486 -455 -486 -490 l -486 -317 q -564 -325 -527 -317 q -630 -350 -602 -332 q -675 -396 -659 -368 q -692 -467 -692 -425 z "},"ၟ":{"ha":0,"x_min":-789,"x_max":-130,"o":"m -130 -557 q -210 -605 -166 -584 q -300 -640 -253 -625 q -396 -661 -347 -654 q -494 -669 -446 -669 q -608 -656 -554 -669 q -702 -617 -662 -643 q -765 -551 -742 -591 q -789 -456 -789 -511 q -774 -377 -789 -412 q -735 -318 -759 -343 q -680 -276 -711 -293 q -615 -250 -648 -260 q -551 -236 -583 -240 q -493 -232 -519 -232 l -486 -232 l -486 11 l -391 11 l -391 -324 q -475 -317 -428 -317 q -551 -323 -513 -317 q -621 -345 -589 -330 q -672 -386 -652 -360 q -692 -451 -692 -412 q -678 -509 -692 -484 q -637 -550 -664 -534 q -574 -575 -611 -567 q -490 -583 -536 -583 q -411 -577 -452 -583 q -329 -560 -370 -572 q -248 -530 -288 -548 q -174 -489 -209 -513 l -130 -557 z "},"ၠ":{"ha":0,"x_min":-707,"x_max":-208,"o":"m -707 -644 l -404 -102 l -294 -102 l -551 -561 l -208 -561 l -208 -652 l -701 -652 l -707 -644 z "},"ႂ":{"ha":0,"x_min":-606,"x_max":-106,"o":"m -311 -163 q -399 -201 -361 -177 q -462 -255 -437 -224 q -499 -321 -487 -286 q -511 -395 -511 -357 q -499 -467 -511 -433 q -464 -527 -487 -501 q -407 -567 -440 -552 q -332 -582 -374 -582 q -243 -561 -281 -582 q -176 -503 -205 -540 l -106 -560 q -202 -639 -147 -609 q -334 -669 -257 -669 q -450 -646 -399 -669 q -536 -586 -501 -624 q -588 -498 -570 -548 q -606 -393 -606 -448 q -590 -294 -606 -342 q -542 -203 -574 -245 q -458 -131 -509 -162 q -340 -82 -408 -99 l -311 -163 z "},"ꩰ":{"ha":514,"x_min":-109,"x_max":623,"o":"m 558 886 q 422 973 498 941 q 257 1005 347 1005 q 92 973 168 1005 q -44 886 16 941 l -95 960 q 67 1057 -20 1020 q 257 1093 155 1093 q 447 1057 359 1093 q 609 960 534 1020 l 558 886 m 572 1174 q 429 1249 508 1221 q 257 1276 351 1276 q 85 1250 163 1276 q -58 1177 6 1223 l -109 1251 q 60 1334 -31 1303 q 257 1364 151 1364 q 454 1333 363 1364 q 623 1248 545 1301 l 572 1174 z "},"အ":{"ha":1388,"x_min":71,"x_max":1306,"o":"m 591 345 q 683 283 655 322 q 710 195 710 243 q 688 112 710 151 q 625 45 667 74 q 523 0 583 17 q 387 -16 463 -16 q 253 0 311 -16 q 156 43 195 16 q 95 108 116 71 q 71 187 73 145 l 173 187 q 189 142 176 163 q 229 106 203 121 q 293 81 254 90 q 387 72 332 72 q 481 81 439 72 q 551 105 522 90 q 594 143 579 121 q 608 191 608 165 q 596 235 608 214 q 561 271 584 256 q 502 295 537 286 q 421 304 467 304 l 402 304 l 402 392 l 421 392 q 505 401 469 392 q 563 426 540 410 q 597 462 586 441 q 608 505 608 483 q 551 591 608 559 q 389 623 493 623 q 295 613 334 623 q 230 589 256 604 q 192 552 205 573 q 176 507 179 531 l 75 507 q 97 587 77 549 q 157 651 117 624 q 254 695 196 679 q 389 711 312 711 q 564 683 490 711 q 675 608 637 656 q 797 684 727 657 q 947 711 867 711 q 1097 682 1030 711 q 1210 605 1163 654 q 1281 489 1256 555 q 1306 349 1306 423 q 1280 205 1306 272 q 1208 90 1255 139 q 1096 12 1161 40 q 952 -16 1031 -16 q 883 -10 920 -16 q 807 12 846 -4 q 853 186 817 114 q 945 305 890 258 q 1065 374 999 351 q 1200 401 1132 397 q 1173 488 1193 448 q 1120 559 1152 529 q 1045 606 1088 589 q 948 623 1002 623 q 878 615 912 623 q 813 593 844 607 q 756 558 782 578 q 709 513 730 538 q 710 511 709 512 q 710 509 710 511 q 704 463 710 486 q 683 419 697 440 q 647 379 669 397 q 591 349 624 361 l 591 345 m 953 72 q 1049 90 1006 72 q 1125 141 1093 109 q 1177 218 1158 174 q 1202 314 1197 262 q 1101 295 1148 312 q 1016 248 1053 278 q 951 174 978 217 q 911 75 924 130 q 932 73 922 73 q 953 72 942 72 z "},"ဢ":{"ha":1464,"x_min":68,"x_max":1383,"o":"m 417 623 q 316 604 360 623 q 242 555 272 585 q 197 489 212 525 q 181 419 181 453 q 195 357 181 382 q 230 311 209 331 q 276 273 252 290 q 322 235 300 255 q 357 191 343 216 q 371 131 371 165 q 359 73 371 100 q 325 26 347 46 q 275 -5 304 7 q 214 -16 247 -16 q 133 3 170 -16 q 68 57 96 22 l 133 117 q 169 84 146 98 q 214 71 191 71 q 257 86 239 71 q 275 124 275 100 q 261 162 275 145 q 225 195 246 178 q 178 230 203 211 q 131 274 153 248 q 95 335 110 300 q 81 418 81 370 q 104 525 81 473 q 170 619 127 578 q 276 686 214 661 q 416 711 338 711 q 516 698 469 711 q 603 662 564 686 q 675 606 643 639 q 729 533 707 574 q 780 607 750 574 q 848 663 810 640 q 932 698 886 686 q 1031 711 979 711 q 1175 682 1110 711 q 1286 604 1240 654 q 1357 489 1332 555 q 1383 348 1383 423 q 1357 205 1383 272 q 1284 90 1331 139 q 1173 12 1238 41 q 1031 -16 1109 -16 q 913 0 969 -16 l 939 85 q 1030 72 980 72 q 1133 94 1087 72 q 1212 153 1179 115 q 1263 240 1245 190 q 1281 347 1281 290 q 1263 454 1281 404 q 1213 542 1246 505 q 1135 601 1181 579 q 1031 623 1088 623 q 934 604 979 623 q 856 553 889 586 q 801 477 822 521 q 774 382 780 433 q 777 342 777 362 q 764 237 777 288 q 729 141 751 186 q 675 57 707 96 q 608 -12 644 18 l 545 54 q 596 109 572 77 q 638 178 621 140 q 665 257 655 215 q 675 343 675 299 q 656 454 675 403 q 604 543 637 505 q 522 602 570 581 q 417 623 475 623 z "},"ဣ":{"ha":1477,"x_min":81,"x_max":1396,"o":"m 438 623 q 335 602 382 623 q 254 544 288 581 q 202 454 220 506 q 183 341 183 402 q 193 258 183 299 q 220 179 203 216 q 262 110 238 142 q 313 55 286 78 l 250 -12 q 183 57 214 18 q 129 141 152 96 q 94 237 106 186 q 81 342 81 288 q 108 489 81 421 q 182 606 134 556 q 295 683 229 655 q 438 711 360 711 q 535 698 490 711 q 619 661 581 685 q 687 603 657 637 q 737 527 717 568 l 740 527 q 790 603 760 568 q 858 661 820 637 q 942 698 897 685 q 1039 711 987 711 q 1182 683 1117 711 q 1295 606 1248 655 q 1369 489 1343 556 q 1396 342 1396 421 q 1383 237 1396 288 q 1348 141 1371 186 q 1294 57 1325 96 q 1227 -12 1263 18 l 1164 55 q 1215 110 1192 78 q 1257 179 1239 142 q 1284 258 1274 216 q 1294 341 1294 299 q 1275 454 1294 402 q 1223 544 1257 506 q 1142 602 1190 581 q 1039 623 1095 623 q 937 602 983 623 q 858 542 891 581 q 807 451 825 504 q 789 337 789 399 l 789 166 l 688 166 l 688 336 q 670 451 688 398 q 619 542 652 504 q 540 602 586 580 q 438 623 494 623 m 1223 -557 l 1348 -557 l 1348 -652 l 1122 -652 l 1075 -604 q 1116 -562 1097 -587 q 1149 -509 1135 -538 q 1171 -448 1163 -480 q 1179 -384 1179 -416 q 1165 -298 1179 -337 q 1124 -230 1150 -258 q 1063 -185 1099 -201 q 983 -169 1027 -169 q 903 -185 939 -169 q 841 -231 867 -201 q 800 -300 814 -260 q 786 -387 786 -340 l 786 -525 l 691 -525 l 691 -388 q 677 -300 691 -340 q 636 -231 663 -260 q 574 -185 610 -201 q 494 -169 538 -169 q 414 -185 450 -169 q 352 -230 378 -201 q 312 -298 326 -258 q 298 -384 298 -337 q 306 -449 298 -416 q 327 -510 313 -481 q 359 -564 340 -539 q 400 -606 378 -589 l 340 -669 q 285 -614 310 -645 q 241 -546 260 -583 q 213 -468 223 -509 q 203 -383 203 -427 q 224 -265 203 -319 q 285 -171 246 -210 q 377 -108 323 -131 q 494 -85 430 -85 q 573 -96 536 -85 q 641 -126 610 -106 q 696 -173 672 -146 q 737 -234 721 -201 l 740 -234 q 780 -173 756 -201 q 836 -126 804 -146 q 904 -96 867 -106 q 983 -85 941 -85 q 1100 -108 1047 -85 q 1192 -171 1154 -131 q 1253 -265 1231 -210 q 1274 -383 1274 -319 q 1260 -476 1274 -433 q 1222 -555 1246 -519 l 1223 -557 z "},"ဤ":{"ha":1733,"x_min":81,"x_max":1691,"o":"m 438 711 q 532 699 488 711 q 615 665 576 687 q 685 612 653 643 q 739 543 716 581 q 858 666 783 621 q 1036 711 933 711 q 1178 682 1115 711 q 1285 604 1241 654 q 1354 489 1330 555 q 1377 348 1377 423 l 1377 -344 q 1358 -510 1377 -448 q 1296 -605 1338 -572 q 1189 -649 1254 -638 q 1033 -659 1124 -659 l 422 -659 q 297 -652 357 -659 q 191 -626 237 -646 q 118 -570 145 -606 q 90 -475 90 -534 q 119 -377 90 -416 q 198 -314 147 -338 q 319 -281 249 -291 q 473 -271 389 -271 q 623 -279 553 -271 q 753 -299 693 -286 q 861 -329 812 -312 q 948 -366 910 -347 l 911 -443 q 835 -411 878 -426 q 737 -385 791 -396 q 616 -366 682 -373 q 470 -359 549 -359 q 352 -365 404 -359 q 264 -383 300 -370 q 209 -417 228 -395 q 190 -470 190 -438 q 208 -521 190 -502 q 258 -550 227 -540 q 331 -564 289 -561 q 420 -568 373 -568 l 1031 -568 q 1156 -560 1108 -568 q 1232 -528 1204 -553 q 1269 -457 1259 -503 q 1279 -332 1279 -410 l 1279 347 q 1262 454 1279 404 q 1215 542 1246 505 q 1138 601 1183 579 q 1036 623 1093 623 q 948 608 989 623 q 874 566 907 593 q 820 503 842 540 q 786 423 797 467 q 792 383 790 404 q 795 341 795 362 q 782 237 795 288 q 747 140 770 186 q 693 56 724 95 q 626 -12 663 18 l 563 54 q 614 109 591 77 q 656 178 638 141 q 683 257 673 216 q 693 340 693 298 q 674 453 693 401 q 622 543 656 505 q 542 602 589 581 q 438 623 494 623 q 335 602 382 623 q 254 543 288 581 q 202 453 220 505 q 183 340 183 401 q 193 257 183 298 q 220 178 203 216 q 262 109 238 141 q 313 54 286 77 l 250 -12 q 183 56 214 18 q 129 140 152 95 q 94 237 106 186 q 81 341 81 288 q 108 488 81 420 q 182 605 134 555 q 295 683 229 654 q 438 711 360 711 m 1540 -652 l 1540 608 q 1525 675 1540 645 q 1486 731 1510 705 q 1429 781 1461 758 q 1365 829 1398 805 q 1301 880 1333 853 q 1245 939 1270 907 q 1205 1009 1220 970 q 1190 1097 1190 1048 q 1208 1198 1190 1149 q 1262 1285 1227 1247 q 1348 1346 1297 1323 q 1463 1369 1398 1369 q 1595 1339 1539 1369 q 1691 1259 1650 1309 l 1621 1202 q 1554 1260 1592 1239 q 1466 1281 1516 1281 q 1389 1265 1422 1281 q 1332 1224 1355 1250 q 1298 1166 1310 1199 q 1286 1099 1286 1134 q 1301 1028 1286 1059 q 1341 970 1316 997 q 1397 920 1366 943 q 1462 872 1429 896 q 1527 822 1495 848 q 1583 763 1558 795 q 1623 691 1608 731 q 1638 602 1638 652 l 1638 -652 l 1540 -652 z "},"ဥ":{"ha":834,"x_min":75,"x_max":753,"o":"m 739 -406 l 739 -446 q 721 -553 739 -511 q 662 -618 702 -594 q 561 -650 623 -642 q 412 -659 498 -659 q 306 -657 354 -659 q 220 -645 258 -654 q 156 -617 183 -636 q 110 -567 128 -599 q 83 -486 92 -534 q 75 -368 75 -437 l 75 182 l 153 223 q 251 112 191 151 q 393 72 311 72 q 499 94 451 72 q 581 153 547 115 q 633 240 614 190 q 651 347 651 290 q 633 454 651 404 q 581 542 614 505 q 499 601 547 579 q 393 623 452 623 q 251 582 311 623 q 153 471 191 541 l 75 512 q 127 592 96 555 q 199 655 159 629 q 287 696 239 682 q 393 711 336 711 q 539 682 473 711 q 653 604 606 654 q 727 489 701 555 q 753 347 753 422 q 726 206 753 272 q 653 90 700 140 q 539 12 606 41 q 394 -16 473 -16 q 272 4 328 -16 q 173 56 216 24 l 173 -359 q 177 -447 173 -412 q 191 -506 181 -483 q 218 -542 201 -529 q 263 -560 236 -554 q 328 -567 290 -566 q 417 -568 366 -568 q 529 -563 485 -568 q 597 -545 572 -558 q 632 -508 623 -532 q 642 -444 642 -484 l 642 -406 l 739 -406 z "},"ဦ":{"ha":834,"x_min":75,"x_max":753,"o":"m 739 -406 l 739 -446 q 721 -553 739 -511 q 662 -618 702 -594 q 561 -650 623 -642 q 412 -659 498 -659 q 306 -657 354 -659 q 220 -645 258 -654 q 156 -617 183 -636 q 110 -567 128 -599 q 83 -486 92 -534 q 75 -368 75 -437 l 75 182 l 153 223 q 251 112 191 151 q 393 72 311 72 q 499 94 451 72 q 581 153 547 115 q 633 240 614 190 q 651 347 651 290 q 633 454 651 404 q 581 542 614 505 q 499 601 547 579 q 393 623 452 623 q 251 582 311 623 q 153 471 191 541 l 75 512 q 127 592 96 555 q 199 655 159 629 q 287 696 239 682 q 393 711 336 711 q 539 682 473 711 q 653 604 606 654 q 727 489 701 555 q 753 347 753 422 q 726 206 753 272 q 653 90 700 140 q 539 12 606 41 q 394 -16 473 -16 q 272 4 328 -16 q 173 56 216 24 l 173 -359 q 177 -447 173 -412 q 191 -506 181 -483 q 218 -542 201 -529 q 263 -560 236 -554 q 328 -567 290 -566 q 417 -568 366 -568 q 529 -563 485 -568 q 597 -545 572 -558 q 632 -508 623 -532 q 642 -444 642 -484 l 642 -406 l 739 -406 m 393 1364 q 510 1341 456 1364 q 601 1279 563 1318 q 661 1186 640 1239 q 682 1073 682 1133 q 661 960 682 1013 q 601 867 640 907 q 510 804 563 827 q 393 781 456 781 q 276 804 329 781 q 184 867 222 827 q 124 960 146 907 q 103 1073 103 1013 q 124 1186 103 1133 q 184 1279 146 1239 q 276 1341 222 1318 q 393 1364 329 1364 m 393 1281 q 313 1265 349 1281 q 251 1220 277 1249 q 211 1154 225 1192 q 197 1073 197 1116 q 204 1015 197 1043 q 288 1072 239 1051 q 393 1093 337 1093 q 497 1072 449 1093 q 582 1014 546 1050 q 589 1073 589 1041 q 574 1154 589 1116 q 534 1220 560 1192 q 472 1265 509 1249 q 393 1281 436 1281 m 393 1012 q 306 993 347 1012 q 237 941 266 974 q 303 884 263 905 q 393 863 342 863 q 483 884 443 863 q 549 941 523 905 q 480 993 520 974 q 393 1012 439 1012 z "},"ဧ":{"ha":810,"x_min":81,"x_max":749,"o":"m 749 172 q 699 94 730 129 q 627 35 667 59 q 539 -3 587 10 q 439 -16 492 -16 q 294 12 360 -16 q 181 90 229 41 q 108 205 134 139 q 81 347 81 271 q 108 489 81 423 q 181 605 134 555 q 294 682 229 654 q 439 711 360 711 q 539 697 492 711 q 627 660 587 684 q 699 601 667 635 q 749 522 730 566 q 696 469 726 493 q 630 426 665 444 q 557 398 595 408 q 478 389 518 389 q 404 397 439 389 q 337 422 369 406 q 279 461 306 439 q 231 512 252 484 q 195 436 207 477 q 183 347 183 394 q 195 258 183 300 q 231 182 207 216 q 279 232 252 209 q 337 271 306 255 q 404 297 369 288 q 478 306 439 306 q 556 296 517 306 q 631 268 595 286 q 696 226 666 250 q 749 172 726 201 m 442 623 q 356 609 395 623 q 286 572 317 595 q 370 502 319 528 q 479 477 420 477 q 564 491 523 477 q 639 532 604 506 q 554 599 604 576 q 442 623 504 623 m 442 72 q 554 95 504 72 q 639 162 604 118 q 564 203 604 189 q 479 218 523 218 q 370 192 420 218 q 286 123 319 166 q 356 85 317 99 q 442 72 395 72 z "},"ဨ":{"ha":883,"x_min":88,"x_max":802,"o":"m 309 376 q 369 425 334 408 q 445 442 404 442 q 505 431 478 442 q 549 402 531 420 q 577 360 568 384 q 587 309 587 336 q 575 252 587 275 q 543 215 562 230 q 502 189 524 199 q 460 168 479 178 q 428 146 441 157 q 416 117 416 134 q 438 83 416 96 q 501 71 461 71 q 589 93 552 71 q 651 151 627 115 q 688 235 676 188 q 700 334 700 283 q 683 446 700 394 q 633 538 665 498 q 553 600 600 577 q 447 623 506 623 q 341 601 389 623 q 260 542 294 579 q 208 454 227 505 q 190 347 190 404 l 190 -305 q 209 -412 190 -362 q 261 -500 227 -463 q 341 -559 294 -537 q 445 -581 388 -581 q 549 -559 502 -581 q 629 -500 595 -537 q 681 -412 663 -463 q 700 -305 700 -362 l 802 -305 q 775 -447 802 -380 q 701 -562 749 -513 q 588 -640 654 -612 q 445 -669 523 -669 q 301 -640 367 -669 q 189 -562 236 -612 q 115 -447 141 -513 q 88 -305 88 -380 l 88 347 q 115 489 88 422 q 189 604 141 555 q 302 682 236 654 q 446 711 368 711 q 592 681 526 711 q 704 600 658 651 q 776 481 751 549 q 802 337 802 413 q 784 210 802 273 q 730 96 766 146 q 638 15 694 46 q 508 -16 583 -16 q 434 -8 468 -16 q 375 17 400 1 q 336 58 350 33 q 321 114 321 82 q 334 169 321 147 q 367 206 347 191 q 408 231 386 221 q 450 251 431 241 q 482 273 469 261 q 495 304 495 286 q 479 340 495 327 q 442 353 464 353 q 421 350 431 353 q 401 341 410 347 q 386 330 393 336 q 375 318 379 324 l 309 376 z "},"ဩ":{"ha":1725,"x_min":102,"x_max":1644,"o":"m 1504 1091 q 1490 1204 1504 1156 q 1443 1284 1476 1253 q 1359 1332 1411 1316 q 1231 1348 1307 1348 l 482 1348 q 346 1329 399 1348 q 260 1271 292 1310 q 216 1170 229 1231 q 203 1024 203 1109 l 203 -244 q 216 -390 203 -329 q 259 -491 228 -451 q 345 -549 291 -530 q 481 -568 399 -568 l 1231 -568 q 1367 -549 1314 -568 q 1452 -491 1421 -530 q 1494 -390 1482 -451 q 1506 -244 1506 -329 l 1506 53 q 1409 2 1463 20 q 1293 -16 1356 -16 q 1193 -4 1239 -16 q 1108 32 1147 9 q 1040 89 1070 56 q 989 163 1010 122 q 935 90 966 123 q 864 34 903 57 q 779 -3 825 10 q 681 -16 732 -16 q 572 -2 622 -16 q 483 39 523 13 q 412 102 443 66 q 359 182 381 138 l 437 223 q 536 112 476 153 q 681 72 596 72 q 785 94 738 72 q 865 153 831 115 q 917 240 899 190 q 936 347 936 290 q 917 454 936 404 q 865 542 899 505 q 785 601 831 579 q 681 623 738 623 q 602 612 638 623 q 536 582 566 602 q 481 534 506 562 q 437 471 457 507 l 359 512 q 412 592 381 555 q 483 655 443 629 q 572 696 523 682 q 681 711 622 711 q 824 682 759 711 q 937 604 890 654 q 1011 489 985 555 q 1038 347 1038 422 q 1036 311 1038 328 q 1062 216 1041 260 q 1117 140 1083 172 q 1195 90 1150 109 q 1293 72 1240 72 q 1396 94 1350 72 q 1474 153 1442 115 q 1525 240 1507 190 q 1542 347 1542 290 q 1524 454 1542 404 q 1473 542 1506 505 q 1394 601 1440 579 q 1291 623 1348 623 q 1200 610 1241 623 l 1175 694 q 1293 711 1230 711 q 1434 682 1370 711 q 1545 605 1499 654 q 1618 489 1592 555 q 1644 347 1644 422 q 1635 260 1644 302 q 1608 180 1626 218 l 1608 -258 q 1585 -447 1608 -370 q 1514 -571 1561 -524 q 1395 -638 1467 -618 q 1227 -659 1323 -659 l 483 -659 q 314 -638 386 -659 q 196 -571 243 -618 q 125 -447 149 -524 q 102 -258 102 -370 l 102 1038 q 125 1227 102 1150 q 196 1351 149 1303 q 314 1418 243 1398 q 483 1439 386 1439 l 1227 1439 q 1388 1420 1317 1439 q 1507 1359 1459 1401 q 1581 1252 1556 1318 q 1607 1091 1607 1185 l 1504 1091 z "},"ဪ":{"ha":3180,"x_min":81,"x_max":3099,"o":"m 772 245 q 732 138 762 186 q 658 55 702 90 q 558 2 614 21 q 439 -16 502 -16 q 294 12 360 -16 q 181 90 229 41 q 108 205 134 139 q 81 348 81 272 q 108 489 81 423 q 182 604 134 555 q 295 682 229 654 q 441 711 361 711 q 547 696 498 711 q 635 655 595 682 q 707 592 675 629 q 760 512 738 555 l 682 471 q 583 582 644 541 q 441 623 523 623 q 335 601 382 623 q 254 542 288 579 q 201 454 220 505 q 183 347 183 404 q 197 252 183 296 q 239 171 212 207 q 285 241 257 208 q 349 297 313 273 q 429 335 385 321 q 522 349 472 349 q 593 341 557 349 q 661 320 628 334 q 722 288 693 307 q 772 245 750 269 m 442 72 q 580 110 521 72 q 673 217 640 147 q 603 249 640 238 q 526 260 565 260 q 453 249 488 260 q 389 218 418 238 q 337 171 359 198 q 300 112 314 144 q 366 82 330 93 q 442 72 401 72 m 2338 1091 q 2323 1204 2338 1156 q 2277 1284 2309 1253 q 2193 1332 2245 1316 q 2064 1348 2140 1348 l 1316 1348 q 1179 1329 1233 1348 q 1094 1271 1125 1310 q 1049 1170 1062 1231 q 1037 1024 1037 1109 l 1037 -244 q 1049 -390 1037 -329 q 1093 -491 1061 -451 q 1178 -549 1124 -530 q 1315 -568 1232 -568 l 2064 -568 q 2201 -549 2147 -568 q 2285 -491 2254 -530 q 2328 -390 2316 -451 q 2340 -244 2340 -329 l 2340 53 q 2243 2 2296 20 q 2126 -16 2189 -16 q 2026 -4 2072 -16 q 1942 32 1980 9 q 1874 89 1904 56 q 1822 163 1844 122 q 1768 90 1800 123 q 1697 34 1737 57 q 1612 -3 1658 10 q 1514 -16 1566 -16 q 1406 -2 1455 -16 q 1316 39 1356 13 q 1245 102 1276 66 q 1193 182 1215 138 l 1271 223 q 1370 112 1310 153 q 1514 72 1430 72 q 1618 94 1571 72 q 1698 153 1665 115 q 1751 240 1732 190 q 1769 347 1769 290 q 1751 454 1769 404 q 1698 542 1732 505 q 1618 601 1665 579 q 1514 623 1571 623 q 1436 612 1472 623 q 1370 582 1400 602 q 1315 534 1339 562 q 1271 471 1291 507 l 1193 512 q 1245 592 1215 555 q 1316 655 1276 629 q 1406 696 1356 682 q 1514 711 1455 711 q 1658 682 1592 711 q 1771 604 1723 654 q 1845 489 1818 555 q 1871 347 1871 422 q 1869 311 1871 328 q 1895 216 1874 260 q 1950 140 1917 172 q 2028 90 1984 109 q 2126 72 2073 72 q 2229 94 2183 72 q 2308 153 2275 115 q 2358 240 2340 190 q 2376 347 2376 290 q 2358 454 2376 404 q 2307 542 2340 505 q 2228 601 2274 579 q 2125 623 2182 623 q 2033 610 2075 623 l 2008 694 q 2126 711 2064 711 q 2268 682 2203 711 q 2379 605 2332 654 q 2451 489 2425 555 q 2477 347 2477 422 q 2468 260 2477 302 q 2441 180 2459 218 l 2441 -258 q 2418 -447 2441 -370 q 2347 -571 2395 -524 q 2228 -638 2300 -618 q 2060 -659 2157 -659 l 1316 -659 q 1148 -638 1219 -659 q 1029 -571 1076 -618 q 959 -447 982 -524 q 935 -258 935 -370 l 935 1038 q 959 1227 935 1150 q 1029 1351 982 1303 q 1148 1418 1076 1398 q 1316 1439 1219 1439 l 2060 1439 q 2221 1420 2150 1439 q 2341 1359 2292 1401 q 2415 1252 2389 1318 q 2440 1091 2440 1185 l 2338 1091 m 2395 519 q 2473 598 2432 563 q 2558 659 2513 633 q 2651 697 2602 684 q 2752 711 2699 711 q 2894 682 2830 711 q 3003 604 2957 654 q 3073 489 3048 555 q 3099 348 3099 423 q 3073 205 3099 272 q 3000 90 3047 139 q 2888 12 2953 41 q 2743 -16 2823 -16 q 2676 -12 2711 -16 q 2610 0 2640 -7 l 2639 85 q 2690 75 2662 78 q 2740 72 2718 72 q 2848 94 2800 72 q 2928 153 2895 115 q 2979 240 2962 190 q 2997 348 2997 291 q 2980 455 2997 405 q 2931 542 2963 505 q 2853 601 2898 579 q 2751 623 2808 623 q 2664 608 2705 623 q 2587 571 2623 594 q 2517 517 2550 547 q 2455 454 2484 487 l 2395 519 m 2840 778 q 2721 826 2772 794 q 2638 900 2671 858 q 2590 990 2606 941 q 2574 1090 2574 1039 q 2592 1197 2574 1146 q 2645 1285 2610 1247 q 2730 1345 2679 1323 q 2847 1368 2781 1368 q 2978 1338 2923 1368 q 3074 1259 3033 1308 l 3004 1202 q 2937 1260 2975 1239 q 2848 1281 2898 1281 q 2773 1266 2806 1281 q 2716 1226 2740 1251 q 2681 1166 2693 1200 q 2669 1093 2669 1131 q 2681 1019 2669 1055 q 2718 951 2693 983 q 2781 897 2743 920 q 2869 859 2818 873 l 2840 778 z "},"ါ":{"ha":302,"x_min":-376,"x_max":207,"o":"m 109 0 l 109 1073 q 95 1154 109 1116 q 55 1220 81 1192 q -6 1265 30 1249 q -85 1281 -41 1281 q -163 1265 -127 1281 q -224 1220 -199 1249 q -263 1154 -250 1192 q -277 1073 -277 1116 l -376 1073 q -354 1186 -376 1133 q -294 1279 -333 1239 q -202 1341 -256 1318 q -83 1364 -148 1364 q 35 1341 -18 1364 q 126 1279 88 1318 q 186 1186 165 1239 q 207 1073 207 1133 l 207 0 l 109 0 z "},"ာ":{"ha":621,"x_min":-164,"x_max":540,"o":"m -164 519 q -86 598 -127 563 q -1 659 -45 633 q 92 697 43 684 q 193 711 140 711 q 335 682 271 711 q 444 604 399 654 q 515 489 490 555 q 540 348 540 423 q 514 205 540 272 q 441 90 488 139 q 329 12 395 41 q 184 -16 264 -16 q 117 -12 153 -16 q 51 0 81 -7 l 80 85 q 131 75 103 78 q 182 72 159 72 q 289 94 241 72 q 370 153 336 115 q 420 240 403 190 q 438 348 438 291 q 421 455 438 405 q 372 542 404 505 q 294 601 340 579 q 192 623 249 623 q 105 608 146 623 q 28 571 64 594 q -42 517 -9 547 q -104 454 -75 487 l -164 519 z "},"ိ":{"ha":0,"x_min":-728,"x_max":-149,"o":"m -438 1364 q -321 1341 -374 1364 q -230 1279 -268 1318 q -170 1186 -191 1239 q -149 1073 -149 1133 q -170 960 -149 1013 q -230 867 -191 907 q -321 804 -268 827 q -438 781 -374 781 q -555 804 -502 781 q -647 867 -608 827 q -706 960 -685 907 q -728 1073 -728 1013 q -706 1186 -728 1133 q -647 1279 -685 1239 q -555 1341 -608 1318 q -438 1364 -502 1364 m -438 1281 q -517 1265 -481 1281 q -579 1220 -553 1249 q -618 1154 -604 1192 q -633 1073 -633 1116 q -618 991 -633 1029 q -579 925 -604 954 q -517 881 -553 897 q -438 865 -481 865 q -359 881 -395 865 q -297 925 -323 897 q -258 991 -272 954 q -243 1073 -243 1029 q -258 1154 -243 1116 q -297 1220 -272 1192 q -359 1265 -323 1249 q -438 1281 -395 1281 z "},"ီ":{"ha":0,"x_min":-728,"x_max":-149,"o":"m -438 1364 q -321 1341 -374 1364 q -230 1279 -268 1318 q -170 1186 -191 1239 q -149 1073 -149 1133 q -170 960 -149 1013 q -230 867 -191 907 q -321 804 -268 827 q -438 781 -374 781 q -555 804 -502 781 q -647 867 -608 827 q -706 960 -685 907 q -728 1073 -728 1013 q -706 1186 -728 1133 q -647 1279 -685 1239 q -555 1341 -608 1318 q -438 1364 -502 1364 m -438 1281 q -518 1265 -482 1281 q -580 1220 -554 1249 q -620 1154 -606 1192 q -634 1073 -634 1116 q -627 1015 -634 1043 q -543 1072 -591 1051 q -438 1093 -494 1093 q -333 1072 -382 1093 q -249 1014 -285 1050 q -242 1073 -242 1041 q -256 1154 -242 1116 q -296 1220 -271 1192 q -358 1265 -322 1249 q -438 1281 -395 1281 m -438 1012 q -525 993 -484 1012 q -593 941 -565 974 q -528 884 -568 905 q -438 863 -488 863 q -348 884 -388 863 q -282 941 -308 905 q -351 993 -311 974 q -438 1012 -391 1012 z "},"ု":{"ha":0,"x_min":-486,"x_max":-241,"o":"m -486 -652 l -486 11 l -391 11 l -391 -561 l -241 -561 l -241 -652 l -486 -652 z "},"ူ":{"ha":0,"x_min":-588,"x_max":-139,"o":"m -383 -652 l -383 31 l -288 31 l -288 -561 l -139 -561 l -139 -652 l -383 -652 m -588 -652 l -588 31 l -493 31 l -493 -652 l -588 -652 z "},"ေ":{"ha":833,"x_min":81,"x_max":772,"o":"m 772 245 q 732 138 762 186 q 658 55 702 90 q 558 2 614 21 q 439 -16 502 -16 q 294 12 360 -16 q 181 90 229 41 q 108 205 134 139 q 81 348 81 272 q 108 489 81 423 q 182 604 134 555 q 295 682 229 654 q 441 711 361 711 q 547 696 498 711 q 635 655 595 682 q 707 592 675 629 q 760 512 738 555 l 682 471 q 583 582 644 541 q 441 623 523 623 q 335 601 382 623 q 254 542 288 579 q 201 454 220 505 q 183 347 183 404 q 197 252 183 296 q 239 171 212 207 q 285 241 257 208 q 349 297 313 273 q 429 335 385 321 q 522 349 472 349 q 593 341 557 349 q 661 320 628 334 q 722 288 693 307 q 772 245 750 269 m 442 72 q 580 110 521 72 q 673 217 640 147 q 603 249 640 238 q 526 260 565 260 q 453 249 488 260 q 389 218 418 238 q 337 171 359 198 q 300 112 314 144 q 366 82 330 93 q 442 72 401 72 z "},"ဲ":{"ha":0,"x_min":-698,"x_max":-200,"o":"m -640 1253 l -200 880 l -258 814 l -698 1187 l -640 1253 z "}}}
